# File exported by Houdini 15.0.393 (www.sidefx.com)
# 54 points
# 72 vertices
# 24 primitives
# Bounds: [162.872345, 20.7524529, 141.977371] to [243.722824, 56.7831688, 233.278397]
g 
v 204.988663 56.7831688 146.044327
v 239.820251 56.7831688 167.67421
v 238.839294 56.7831688 209.280563
v 202.31662 56.7831688 229.234222
v 166.774948 56.7831688 207.581512
v 168.130707 56.7831688 165.371567
v 204.278534 56.7831688 146.021515
v 240.155563 56.7831688 168.300598
v 238.464462 56.7831688 209.884125
v 201.606506 56.7831688 229.211411
v 166.439636 56.7831688 206.955109
v 167.755905 56.7831688 165.975159
v 243.387512 20.7524529 165.764633
v 205.11853 20.7524529 142.000153
v 243.387512 20.7524529 165.764633
v 242.276672 20.7524529 211.415131
v 243.722824 20.7524529 166.391037
v 242.276672 20.7524529 211.415131
v 202.186752 20.7524529 233.278397
v 241.901855 20.7524529 212.018707
v 202.186752 20.7524529 233.278397
v 163.207657 20.7524529 209.491104
v 201.476624 20.7524529 233.255569
v 163.207657 20.7524529 209.491104
v 164.318497 20.7524529 163.840607
v 162.872345 20.7524529 208.8647
v 164.318497 20.7524529 163.840607
v 204.408432 20.7524529 141.977371
v 164.693329 20.7524529 163.237
v 204.408432 20.7524529 141.977371
v 205.11853 20.7524529 142.000153
v 204.408432 20.7524529 141.977371
v 205.11853 20.7524529 142.000153
v 243.722824 20.7524529 166.391037
v 243.387512 20.7524529 165.764633
v 239.820251 56.7831688 167.67421
v 239.820251 56.7831688 167.67421
v 240.155563 56.7831688 168.300598
v 243.722824 20.7524529 166.391037
v 241.901855 20.7524529 212.018707
v 242.276672 20.7524529 211.415131
v 241.901855 20.7524529 212.018707
v 201.476624 20.7524529 233.255569
v 202.186752 20.7524529 233.278397
v 201.476624 20.7524529 233.255569
v 162.872345 20.7524529 208.8647
v 163.207657 20.7524529 209.491104
v 166.774948 56.7831688 207.581512
v 166.774948 56.7831688 207.581512
v 166.439636 56.7831688 206.955109
v 162.872345 20.7524529 208.8647
v 164.693329 20.7524529 163.237
v 164.318497 20.7524529 163.840607
v 164.693329 20.7524529 163.237
vt -0.102668002 -2.45646501 0
vt -0.651232004 -2.45646501 0
vt 1.10266805 -2.45646501 0
vt -0.0109259998 -2.45646501 0
vt -0.575954974 -2.45646501 0
vt 1.01092601 -2.45646501 0
vt -0.0862030014 -2.45646501 0
vt 1.651232 -2.45646501 0
vt 1.08620298 -2.45646501 0
vt -0.0273909997 -2.45646501 0
vt 1.57595503 -2.45646501 0
vt 1.02739 -2.45646501 0
vt -0.75950402 -3.69668102 0
vt -0.156803995 -3.69668102 0
vt -0.75950402 -3.69668102 0
vt 1.15680397 -3.69668102 0
vt 1.75950396 -3.69668102 0
vt 1.15680397 -3.69668102 0
vt -0.0650620013 -3.69668102 0
vt 1.14033902 -3.69668102 0
vt -0.0650620013 -3.69668102 0
vt -0.684225976 -3.69668102 0
vt -0.0815259963 -3.69668102 0
vt -0.684225976 -3.69668102 0
vt 1.08152604 -3.69668102 0
vt 1.68422604 -3.69668102 0
vt 1.08152604 -3.69668102 0
vt -0.140339002 -3.69668102 0
vt 1.06506097 -3.69668102 0
vt -0.140339002 -3.69668102 0
vt -0.156803995 -3.69668102 0
vt -0.140339002 -3.69668102 0
vt -0.156803995 -3.69668102 0
vt 0.907199025 -3.69668102 0
vt 0.943104029 -3.69668102 0
vt 0.943104029 -2.45646501 0
vt 0.943104029 -2.45646501 0
vt 0.907199025 -2.45646501 0
vt 0.907199025 -3.69668102 0
vt 1.14033902 -3.69668102 0
vt 1.15680397 -3.69668102 0
vt 1.14033902 -3.69668102 0
vt -0.0815259963 -3.69668102 0
vt -0.0650620013 -3.69668102 0
vt -0.0815259963 -3.69668102 0
vt 0.056894999 -3.69668102 0
vt 0.0927999988 -3.69668102 0
vt 0.0927999988 -2.45646501 0
vt 0.0927999988 -2.45646501 0
vt 0.056894999 -2.45646501 0
vt 0.056894999 -3.69668102 0
vt 1.06506097 -3.69668102 0
vt 1.08152604 -3.69668102 0
vt 1.06506097 -3.69668102 0
vn 0.525080979 0.0967999846 -0.84559983
vn 0.525080979 0.0967999846 -0.84559983
vn 0.525080979 0.0967999846 -0.84559983
vn 0.525080979 0.0967999846 -0.84559983
vn 0.525080979 0.0967999846 -0.84559983
vn 0.525080979 0.0967999846 -0.84559983
vn 0.994850099 0.0967999846 0.0319750905
vn 0.994850099 0.0967999846 0.0319750905
vn 0.994850099 0.0967999846 0.0319750905
vn 0.994850099 0.0967999846 0.0319750905
vn 0.994850099 0.0967999846 0.0319750905
vn 0.994850099 0.0967999846 0.0319750905
vn 0.469722033 0.0968000144 0.877487004
vn 0.469722033 0.0968000144 0.877487004
vn 0.469722033 0.0968000144 0.877487004
vn 0.469722033 0.0968000144 0.877487004
vn 0.469722033 0.0968000144 0.877487004
vn 0.469722033 0.0968000144 0.877487004
vn -0.525080979 0.0967999846 0.84559983
vn -0.525080979 0.0967999846 0.84559983
vn -0.525080979 0.0967999846 0.84559983
vn -0.525080979 0.0967999846 0.84559983
vn -0.525080979 0.0967999846 0.84559983
vn -0.525080979 0.0967999846 0.84559983
vn -0.994850099 0.0967999846 -0.0319750905
vn -0.994850099 0.0967999846 -0.0319750905
vn -0.994850099 0.0967999846 -0.0319750905
vn -0.994850099 0.0967999846 -0.0319750905
vn -0.994850099 0.0967999846 -0.0319750905
vn -0.994850099 0.0967999846 -0.0319750905
vn -0.469722033 0.0968000144 -0.877487004
vn -0.469722033 0.0968000144 -0.877487004
vn -0.469722033 0.0968000144 -0.877487004
vn -0.469722033 0.0968000144 -0.877487004
vn -0.469722033 0.0968000144 -0.877487004
vn -0.469722033 0.0968000144 -0.877487004
vn 0.0319306292 0.111600012 -0.993238449
vn 0.0319306292 0.111600012 -0.993238449
vn 0.0319306292 0.111600012 -0.993238449
vn 0.0319306292 0.111600012 -0.993238449
vn 0.0319306292 0.111600012 -0.993238449
vn 0.0319306292 0.111600012 -0.993238449
vn 0.876164436 0.111599989 -0.469014078
vn 0.876164436 0.111599989 -0.469014078
vn 0.876164436 0.111599989 -0.469014078
vn 0.876164436 0.111599989 -0.469014078
vn 0.876164436 0.111599989 -0.469014078
vn 0.876164436 0.111599989 -0.469014078
vn 0.844234049 0.111600012 0.524224222
vn 0.844234049 0.111600012 0.524224222
vn 0.844234049 0.111600012 0.524224222
vn 0.844234049 0.111600012 0.524224222
vn 0.844234049 0.111600012 0.524224222
vn 0.844234049 0.111600012 0.524224222
vn -0.0319306292 0.111600012 0.993238449
vn -0.0319306292 0.111600012 0.993238449
vn -0.0319306292 0.111600012 0.993238449
vn -0.0319306292 0.111600012 0.993238449
vn -0.0319306292 0.111600012 0.993238449
vn -0.0319306292 0.111600012 0.993238449
vn -0.876164436 0.111599989 0.469014078
vn -0.876164436 0.111599989 0.469014078
vn -0.876164436 0.111599989 0.469014078
vn -0.876164436 0.111599989 0.469014078
vn -0.876164436 0.111599989 0.469014078
vn -0.876164436 0.111599989 0.469014078
vn -0.844234049 0.111600012 -0.524224222
vn -0.844234049 0.111600012 -0.524224222
vn -0.844234049 0.111600012 -0.524224222
vn -0.844234049 0.111600012 -0.524224222
vn -0.844234049 0.111600012 -0.524224222
vn -0.844234049 0.111600012 -0.524224222
g NGon001_NGon001_Material__90
f 13/13/1 14/14/2 1/1/3
f 1/1/4 2/2/5 15/15/6
f 16/16/7 17/17/8 8/8/9
f 8/8/10 3/3/11 18/18/12
f 19/19/13 20/20/14 9/9/15
f 9/9/16 4/4/17 21/21/18
f 22/22/19 23/23/20 10/10/21
f 10/10/22 5/5/23 24/24/24
f 25/25/25 26/26/26 11/11/27
f 11/11/28 12/12/29 27/27/30
f 28/28/31 29/29/32 6/6/33
f 6/6/34 7/7/35 30/30/36
f 31/31/37 32/32/38 7/7/39
f 7/7/40 1/1/41 33/33/42
f 34/34/43 35/35/44 36/36/45
f 37/37/46 38/38/47 39/39/48
f 40/40/49 41/41/50 3/3/51
f 3/3/52 9/9/53 42/42/54
f 43/43/55 44/44/56 4/4/57
f 4/4/58 10/10/59 45/45/60
f 46/46/61 47/47/62 48/48/63
f 49/49/64 50/50/65 51/51/66
f 52/52/67 53/53/68 12/12/69
f 12/12/70 6/6/71 54/54/72
