# File exported by Houdini 15.0.393 (www.sidefx.com)
# 58 points
# 198 vertices
# 55 primitives
# Bounds: [560.698975, -0.315236509, 850.205322] to [598.393188, 46.629364, 886.945801]
g 
v 579.909485 24.9279137 869.594543
v 578.224609 19.3807144 870.040466
v 583.259705 18.9261131 867.14624
v 586.926331 21.7360649 865.038574
v 579.457947 24.9279137 868.809021
v 584.237976 28.2451134 867.106445
v 581.920532 31.9963646 868.438538
v 577.809326 28.8457127 870.801758
v 588.75177 27.4483128 863.989319
v 577.357788 28.8457127 870.016235
v 581.468994 31.9963646 867.653015
v 583.786438 28.2451134 866.320923
v 580.231201 33.7091141 868.118713
v 594.542175 46.629364 858.795959
v 596.733765 42.8247643 857.536194
v 581.41394 31.6558647 867.438904
v 573.542847 29.607214 871.256653
v 575.045593 26.9984646 870.392883
v 580.898376 33.7091141 869.279358
v 574.776062 29.607214 873.402039
v 576.278809 26.9984646 872.538208
v 582.081116 31.6558647 868.599548
v 596.112305 46.629364 861.527527
v 598.303894 42.8247643 860.267761
v 577.462891 20.5642643 854.687927
v 576.953918 8.82181358 855.638367
v 577.525391 20.5642643 868.409485
v 575.928223 20.5642643 854.811035
v 568.199585 20.5642643 858.424561
v 568.841187 8.82181358 859.098999
v 576.710876 -0.315236509 850.205322
v 571.188171 -0.315236509 853.572937
v 591.388672 20.5642643 867.789246
v 586.254822 20.5642643 857.61676
v 563.99469 20.5642643 869.014893
v 564.196899 -0.315236509 864.296021
v 560.698975 -0.315236509 869.162354
v 564.920532 8.82181358 868.973511
v 563.4953 -0.315236509 853.652405
v 594.622498 -0.315236509 861.922363
v 591.388611 -0.315236509 854.817139
v 585.676025 8.82181358 858.345764
v 590.462891 8.82181358 867.830627
v 598.393188 -0.315236509 867.47583
v 587.300415 20.5642643 878.374329
v 578.126099 20.5642643 882.106995
v 583.10791 -0.315236509 853.317261
v 585.797363 -0.315236509 882.59375
v 593.35376 -0.315236509 880.785217
v 586.65094 8.82181358 877.700317
v 578.354736 -0.315236509 886.945801
v 578.096802 8.82181358 881.180664
v 569.011902 20.5642643 879.192627
v 572.1745 -0.315236509 882.957886
v 569.598633 8.82181358 878.463257
v 564.306763 -0.315236509 883.584717
v 564.169861 -0.315236509 875.069214
v 594.423096 -0.315236509 875.101501
vt 0.790040016 0.46528399 0
vt 0.824135005 0.491739005 0
vt 0.790932 0.519429982 0
vt 0.790040016 0.46528399 0
vt 0.790932 0.519429982 0
vt 0.753265977 0.520639002 0
vt 0.745526016 0.466838986 0
vt 0.791324019 0.519625008 0
vt 0.753549993 0.520465016 0
vt 0.745526016 0.466838986 0
vt 0.753549993 0.520465016 0
vt 0.715903997 0.495231003 0
vt 0.790040016 0.46528399 0
vt 0.745576024 0.466711998 0
vt 0.745595992 0.432525009 0
vt 0.787828028 0.431169987 0
vt 0.745576024 0.466711998 0
vt 0.790040016 0.46528399 0
vt 0.753265977 0.520639002 0
vt 0.715903997 0.495231003 0
vt 0.745347977 0.43246001 0
vt 0.787696004 0.431674004 0
vt 0.790040016 0.46528399 0
vt 0.745526016 0.466838986 0
vt 0.745526016 0.466838986 0
vt 0.790040016 0.46528399 0
vt 0.824018002 0.491654009 0
vt 0.791324019 0.519625008 0
vt 0.790040016 0.46528399 0
vt 0.787696004 0.431674004 0
vt 0.795681 0.430523992 0
vt 0.797022998 0.461367011 0
vt 0.824018002 0.491654009 0
vt 0.790040016 0.46528399 0
vt 0.797022998 0.461367011 0
vt 0.738317013 0.465456992 0
vt 0.735884011 0.43147701 0
vt 0.745347977 0.43246001 0
vt 0.745526016 0.466838986 0
vt 0.715903997 0.495231003 0
vt 0.738317013 0.465456992 0
vt 0.745526016 0.466838986 0
vt 0.757641017 0.638529003 0
vt 0.754770994 0.769208014 0
vt 0.728278995 0.767917991 0
vt 0.73803401 0.640196979 0
vt 0.749271989 0.560467005 0
vt 0.757641017 0.638529003 0
vt 0.73803401 0.640196979 0
vt 0.723042011 0.566183984 0
vt 0.771981001 0.638080001 0
vt 0.771082997 0.558695972 0
vt 0.798197985 0.560186982 0
vt 0.791796029 0.639081001 0
vt 0.772983015 0.768486023 0
vt 0.771981001 0.638080001 0
vt 0.791796029 0.639081001 0
vt 0.799077988 0.766920984 0
vt 0.757641017 0.638529003 0
vt 0.749271989 0.560467005 0
vt 0.771082997 0.558695972 0
vt 0.771981001 0.638080001 0
vt 0.754770994 0.769208014 0
vt 0.757641017 0.638529003 0
vt 0.771981001 0.638080001 0
vt 0.772983015 0.768486023 0
vt 0.805819988 0.639725983 0
vt 0.817736983 0.765994012 0
vt 0.799077988 0.766920984 0
vt 0.791796029 0.639081001 0
vt 0.821000993 0.562995017 0
vt 0.805819988 0.639725983 0
vt 0.791796029 0.639081001 0
vt 0.798197985 0.560186982 0
vt 0.798197985 0.560186982 0
vt 0.771082997 0.558695972 0
vt 0.772261024 0.53727299 0
vt 0.799376011 0.538764 0
vt 0.800158024 0.784919977 0
vt 0.774062991 0.786485016 0
vt 0.772983015 0.768486023 0
vt 0.799077988 0.766920984 0
vt 0.711075008 0.780902028 0
vt 0.721984029 0.780056 0
vt 0.72280997 0.88478899 0
vt 0.735108018 0.781171978 0
vt 0.72280997 0.88478899 0
vt 0.721984029 0.780056 0
vt 0.735108018 0.781171978 0
vt 0.803417027 0.815611005 0
vt 0.72280997 0.88478899 0
vt 0.993341982 0.472941011 0
vt 0.992380023 0.523523986 0
vt 0.911720991 0.534501016 0
vt 0.90693599 0.46954 0
vt 0.90693599 0.46954 0
vt 0.911720991 0.534501016 0
vt 0.839640021 0.529769003 0
vt 0.839749992 0.502887011 0
vt 0.624028027 0.888489008 0
vt 0.643917978 0.816990972 0
vt 0.711075008 0.780902028 0
vt 0.72280997 0.88478899 0
vt 0.72280997 0.88478899 0
vt 0.803417027 0.815611005 0
vt 0.827378988 0.881711006 0
vt 0.850621998 0.420590997 0
vt 0.854170978 0.385152012 0
vt 0.91010201 0.406383991 0
vt 0.90693599 0.46954 0
vt 0.823943973 0.462597013 0
vt 0.850621998 0.420590997 0
vt 0.90693599 0.46954 0
vt 0.90693599 0.46954 0
vt 0.91010201 0.406383991 0
vt 0.991913974 0.407303005 0
vt 0.993341982 0.472941011 0
vt 0.835762024 0.640465021 0
vt 0.833517015 0.59523499 0
vt 0.907595992 0.593972027 0
vt 0.907993019 0.671721995 0
vt 0.826743007 0.677304983 0
vt 0.835762024 0.640465021 0
vt 0.907993019 0.671721995 0
vt 0.907993019 0.671721995 0
vt 0.907595992 0.593972027 0
vt 0.986150026 0.597153008 0
vt 0.986109018 0.665489972 0
vt 0.645660996 0.960267007 0
vt 0.624028027 0.888489008 0
vt 0.72280997 0.88478899 0
vt 0.723527014 0.993727982 0
vt 0.645660996 0.960267007 0
vt 0.72280997 0.88478899 0
vt 0.989655018 0.542433977 0
vt 0.986150026 0.597153008 0
vt 0.907595992 0.593972027 0
vt 0.911720991 0.534501016 0
vt 0.833517015 0.59523499 0
vt 0.848038018 0.552528977 0
vt 0.911720991 0.534501016 0
vt 0.907595992 0.593972027 0
vt 0.911720991 0.534501016 0
vt 0.848038018 0.552528977 0
vt 0.839640021 0.529769003 0
vt 0.843047976 0.798107028 0
vt 0.829451025 0.75642401 0
vt 0.905314982 0.768958986 0
vt 0.838374972 0.840165019 0
vt 0.843047976 0.798107028 0
vt 0.905314982 0.768958986 0
vt 0.91197598 0.843432009 0
vt 0.91197598 0.843432009 0
vt 0.905314982 0.768958986 0
vt 0.987765014 0.767948985 0
vt 0.990177989 0.847054005 0
vt 0.803677022 0.954505026 0
vt 0.723527014 0.993727982 0
vt 0.72280997 0.88478899 0
vt 0.803677022 0.954505026 0
vt 0.72280997 0.88478899 0
vt 0.827378988 0.881711006 0
vt 0.90693599 0.46954 0
vt 0.839749992 0.502887011 0
vt 0.823943973 0.462597013 0
vt 0.847645998 0.882111013 0
vt 0.838374972 0.840165019 0
vt 0.91197598 0.843432009 0
vt 0.911392987 0.909475982 0
vt 0.835904002 0.926271975 0
vt 0.847645998 0.882111013 0
vt 0.911392987 0.909475982 0
vt 0.911392987 0.909475982 0
vt 0.91197598 0.843432009 0
vt 0.990177989 0.847054005 0
vt 0.991319001 0.904163003 0
vt 0.847078979 0.967275023 0
vt 0.835904002 0.926271975 0
vt 0.911392987 0.909475982 0
vt 0.849241018 1.00229001 0
vt 0.847078979 0.967275023 0
vt 0.911392987 0.909475982 0
vt 0.91385299 0.996445 0
vt 0.91385299 0.996445 0
vt 0.911392987 0.909475982 0
vt 0.991319001 0.904163003 0
vt 0.993804991 0.995117009 0
vt 0.842639029 0.722594023 0
vt 0.826743007 0.677304983 0
vt 0.907993019 0.671721995 0
vt 0.829451025 0.75642401 0
vt 0.842639029 0.722594023 0
vt 0.907993019 0.671721995 0
vt 0.905314982 0.768958986 0
vt 0.905314982 0.768958986 0
vt 0.907993019 0.671721995 0
vt 0.986109018 0.665489972 0
vt 0.987765014 0.767948985 0
vn 0.491357833 -0.0794999972 0.867304087
vn 0.491357833 -0.0794999972 0.867304087
vn 0.491357833 -0.0794999972 0.867304087
vn 0.527138948 -0.0516999923 0.848185658
vn 0.527138948 -0.0516999923 0.848185658
vn 0.527138948 -0.0516999923 0.848185658
vn -0.467608005 -0.0516999923 -0.882380724
vn -0.467608005 -0.0516999923 -0.882380724
vn -0.467608005 -0.0516999923 -0.882380724
vn -0.502191901 -0.0794999897 -0.861113608
vn -0.502191901 -0.0794999897 -0.861113608
vn -0.502191901 -0.0794999897 -0.861113608
vn 0.498350859 0 0.866991282
vn 0.498350859 0 0.866991282
vn 0.498350859 0 0.866991282
vn 0.498350859 0 0.866991282
vn 0.543420076 -0.0419000015 0.838448167
vn 0.543420076 -0.0419000015 0.838448167
vn 0.543420076 -0.0419000015 0.838448167
vn 0.543420076 -0.0419000015 0.838448167
vn -0.498350859 0 -0.866991282
vn -0.498350859 0 -0.866991282
vn -0.498350859 0 -0.866991282
vn -0.498350859 0 -0.866991282
vn -0.451000422 -0.0419000015 -0.891532242
vn -0.451000422 -0.0419000015 -0.891532242
vn -0.451000422 -0.0419000015 -0.891532242
vn -0.451000422 -0.0419000015 -0.891532242
vn 0.706064284 0.580299973 -0.405865222
vn 0.706064284 0.580299973 -0.405865222
vn 0.706064284 0.580299973 -0.405865222
vn 0.706064284 0.580299973 -0.405865222
vn 0.125012949 0.989500046 -0.0718596503
vn 0.125012949 0.989500046 -0.0718596503
vn 0.125012949 0.989500046 -0.0718596503
vn -0.73739028 -0.525900066 0.423883468
vn -0.73739028 -0.525900066 0.423883468
vn -0.73739028 -0.525900066 0.423883468
vn -0.73739028 -0.525900066 0.423883468
vn -0.829610109 0.290300012 0.476958513
vn -0.829610109 0.290300012 0.476958513
vn -0.829610109 0.290300012 0.476958513
vn -0.679803073 0.595699966 -0.427841812
vn -0.181127727 0.798699856 -0.573777437
vn 0.389217824 -0.180500031 -0.90320009
vn -0.00631916337 -0.59829998 -0.801218331
vn -0.971396863 0.199699953 -0.128108621
vn -0.679803073 0.595699966 -0.427841812
vn -0.00631916337 -0.59829998 -0.801218331
vn -0.426101387 -0.786599934 -0.446900755
vn 0.0275992118 0.592899919 0.804770589
vn -0.382042885 0.198700011 0.902478576
vn 0.168301195 -0.788600087 0.591368377
vn 0.687583804 -0.598099887 0.411577731
vn 0.404639453 0.799499989 0.443756938
vn 0.0275992118 0.592899919 0.804770589
vn 0.687583804 -0.598099887 0.411577731
vn 0.97669059 -0.180099964 0.116660587
vn -0.679803073 0.595699966 -0.427841812
vn -0.971396863 0.199699953 -0.128108621
vn -0.382042885 0.198700011 0.902478576
vn 0.0275992118 0.592899919 0.804770589
vn -0.181127727 0.798699856 -0.573777437
vn -0.679803073 0.595699966 -0.427841812
vn 0.0275992118 0.592899919 0.804770589
vn 0.404639453 0.799499989 0.443756938
vn -0.00631916337 -0.59829998 -0.801218331
vn 0.389217824 -0.180500031 -0.90320009
vn 0.97669059 -0.180099964 0.116660587
vn 0.687583804 -0.598099887 0.411577731
vn -0.426101387 -0.786599934 -0.446900755
vn -0.00631916337 -0.59829998 -0.801218331
vn 0.687583804 -0.598099887 0.411577731
vn 0.168301195 -0.788600087 0.591368377
vn 0.168301195 -0.788600087 0.591368377
vn -0.382042885 0.198700011 0.902478576
vn -0.971396863 0.199699953 -0.128108621
vn -0.426101387 -0.786599934 -0.446900755
vn 0.389217824 -0.180500031 -0.90320009
vn -0.181127727 0.798699856 -0.573777437
vn 0.404639453 0.799499989 0.443756938
vn 0.97669059 -0.180099964 0.116660587
vn -0.466133565 0.547299922 -0.695059478
vn -0.0606784225 0.229499996 -0.971358657
vn -0.000794283347 0.999899983 -0.0132777672
vn 0.370265812 0.554799914 -0.745094776
vn -0.000794283347 0.999899983 -0.0132777672
vn -0.0606784225 0.229499996 -0.971358657
vn 0.370265812 0.554799914 -0.745094776
vn -0.576420367 0.601100028 -0.553588569
vn -0.000794283347 0.999899983 -0.0132777672
vn -0.576420367 0.601100028 -0.553588569
vn 0.370265812 0.554799914 -0.745094776
vn -0.0606784225 0.229499996 -0.971358657
vn -0.71701318 0.224499971 -0.6599105
vn -0.71701318 0.224499971 -0.6599105
vn -0.0606784225 0.229499996 -0.971358657
vn -0.00797634386 0.489800006 -0.871814787
vn -0.250692368 0.477400035 -0.842136323
vn 0.801732361 0.596300066 -0.0395752899
vn 0.519710064 0.599399924 -0.608738363
vn -0.466133565 0.547299922 -0.695059478
vn -0.000794283347 0.999899983 -0.0132777672
vn -0.000794283347 0.999899983 -0.0132777672
vn -0.576420367 0.601100028 -0.553588569
vn -0.802063048 0.596300006 0.032182686
vn -0.89023608 0.363699973 -0.273982108
vn -0.932657063 0.360300004 0.0151028885
vn -0.98823595 0.151500002 0.0212933347
vn -0.71701318 0.224499971 -0.6599105
vn -0.557926357 0.640799999 -0.527288854
vn -0.89023608 0.363699973 -0.273982108
vn -0.71701318 0.224499971 -0.6599105
vn -0.71701318 0.224499971 -0.6599105
vn -0.98823595 0.151500002 0.0212933347
vn -0.802063048 0.596300006 0.032182686
vn -0.576420367 0.601100028 -0.553588569
vn 0.706315935 0.586899936 -0.395766348
vn 0.553077161 0.552400053 -0.62364471
vn 0.593384624 0.256199956 -0.763085663
vn 0.943754673 0.326299965 -0.0534372404
vn 0.753665686 0.655799925 -0.0422294624
vn 0.706315935 0.586899936 -0.395766348
vn 0.943754673 0.326299965 -0.0534372404
vn 0.943754673 0.326299965 -0.0534372404
vn 0.593384624 0.256199956 -0.763085663
vn 0.519710064 0.599399924 -0.608738363
vn 0.801732361 0.596300066 -0.0395752899
vn 0.571596503 0.597699881 0.562112629
vn 0.801732361 0.596300066 -0.0395752899
vn -0.000794283347 0.999899983 -0.0132777672
vn 0.03049073 0.60800004 0.793330073
vn 0.571596503 0.597699881 0.562112629
vn -0.000794283347 0.999899983 -0.0132777672
vn -0.466133565 0.547299922 -0.695059478
vn 0.519710064 0.599399924 -0.608738363
vn 0.593384624 0.256199956 -0.763085663
vn -0.0606784225 0.229499996 -0.971358657
vn 0.553077161 0.552400053 -0.62364471
vn 0.279314339 0.439200044 -0.853838205
vn -0.0606784225 0.229499996 -0.971358657
vn 0.593384624 0.256199956 -0.763085663
vn -0.0606784225 0.229499996 -0.971358657
vn 0.279314339 0.439200044 -0.853838205
vn -0.00797634386 0.489800006 -0.871814787
vn 0.315681249 0.452999979 0.833722949
vn 0.586648643 0.582199931 0.562940657
vn 0.670798779 0.272599965 0.689705968
vn 0.0169177298 0.467599928 0.883727014
vn 0.315681249 0.452999979 0.833722949
vn 0.670798779 0.272599965 0.689705968
vn 0.0224866532 0.212700009 0.976871192
vn 0.0224866532 0.212700009 0.976871192
vn 0.670798779 0.272599965 0.689705968
vn 0.571596503 0.597699881 0.562112629
vn 0.03049073 0.60800004 0.793330073
vn -0.522383451 0.598700047 0.607156277
vn 0.03049073 0.60800004 0.793330073
vn -0.000794283347 0.999899983 -0.0132777672
vn -0.522383451 0.598700047 0.607156277
vn -0.000794283347 0.999899983 -0.0132777672
vn -0.802063048 0.596300006 0.032182686
vn -0.71701318 0.224499971 -0.6599105
vn -0.250692368 0.477400035 -0.842136323
vn -0.557926357 0.640799999 -0.527288854
vn -0.203771308 0.438199997 0.875483096
vn 0.0169177298 0.467599928 0.883727014
vn 0.0224866532 0.212700009 0.976871192
vn -0.647526264 0.226400003 0.727570236
vn -0.531374693 0.627000034 0.569520593
vn -0.203771308 0.438199997 0.875483096
vn -0.647526264 0.226400003 0.727570236
vn -0.647526264 0.226400003 0.727570236
vn 0.0224866532 0.212700009 0.976871192
vn 0.03049073 0.60800004 0.793330073
vn -0.522383451 0.598700047 0.607156277
vn -0.859293401 0.424399972 0.285594016
vn -0.531374693 0.627000034 0.569520593
vn -0.647526264 0.226400003 0.727570236
vn -0.932657063 0.360300004 0.0151028885
vn -0.859293401 0.424399972 0.285594016
vn -0.647526264 0.226400003 0.727570236
vn -0.98823595 0.151500002 0.0212933347
vn -0.98823595 0.151500002 0.0212933347
vn -0.647526264 0.226400003 0.727570236
vn -0.522383451 0.598700047 0.607156277
vn -0.802063048 0.596300006 0.032182686
vn 0.751046777 0.593900025 0.288518161
vn 0.753665686 0.655799925 -0.0422294624
vn 0.943754673 0.326299965 -0.0534372404
vn 0.586648643 0.582199931 0.562940657
vn 0.751046777 0.593900025 0.288518161
vn 0.943754673 0.326299965 -0.0534372404
vn 0.670798779 0.272599965 0.689705968
vn 0.670798779 0.272599965 0.689705968
vn 0.943754673 0.326299965 -0.0534372404
vn 0.801732361 0.596300066 -0.0395752899
vn 0.571596503 0.597699881 0.562112629
g 
f 1/1/1 2/2/2 3/3/3
f 1/4/4 3/5/5 4/6/6
f 5/7/7 4/8/8 3/9/9
f 5/10/10 3/11/11 2/12/12
f 1/13/13 6/14/14 7/15/15 8/16/16
f 6/17/17 1/18/18 4/19/19 9/20/20
f 10/21/21 11/22/22 12/23/23 5/24/24
f 5/25/25 12/26/26 9/27/27 4/28/28
f 12/29/29 11/30/30 7/31/31 6/32/32
f 9/33/33 12/34/34 6/35/35
f 1/36/36 8/37/37 10/38/38 5/39/39
f 2/40/40 1/41/41 5/42/42
f 13/43/43 14/44/44 15/45/45 16/46/46
f 17/47/47 13/48/48 16/49/49 18/50/50
f 19/51/51 20/52/52 21/53/53 22/54/54
f 23/55/55 19/56/56 22/57/57 24/58/58
f 13/59/59 17/60/60 20/61/61 19/62/62
f 14/63/63 13/64/64 19/65/65 23/66/66
f 16/67/67 15/68/68 24/69/69 22/70/70
f 18/71/71 16/72/72 22/73/73 21/74/74
f 21/75/75 20/76/76 17/77/77 18/78/78
f 15/79/79 14/80/80 23/81/81 24/82/82
f 25/83/83 26/84/84 27/85/85
f 28/86/86 27/87/87 26/88/88
f 28/89/89 29/90/90 27/91/91
f 29/92/92 28/93/93 26/94/94 30/95/95
f 30/96/96 26/97/97 31/98/98 32/99/99
f 33/100/100 34/101/101 25/102/102 27/103/103
f 27/104/104 29/105/105 35/106/106
f 36/107/107 37/108/108 38/109/109 30/110/110
f 39/111/111 36/112/112 30/113/113
f 30/114/114 38/115/115 35/116/116 29/117/117
f 40/118/118 41/119/119 42/120/120 43/121/121
f 44/122/122 40/123/123 43/124/124
f 43/125/125 42/126/126 34/127/127 33/128/128
f 45/129/129 33/130/130 27/131/131
f 46/132/132 45/133/133 27/134/134
f 25/135/135 34/136/136 42/137/137 26/138/138
f 41/139/139 47/140/140 26/141/141 42/142/142
f 26/143/143 47/144/144 31/145/145
f 48/146/146 49/147/147 50/148/148
f 51/149/149 48/150/150 50/151/151 52/152/152
f 52/153/153 50/154/154 45/155/155 46/156/156
f 53/157/157 46/158/158 27/159/159
f 53/160/160 27/161/161 35/162/162
f 30/163/163 32/164/164 39/165/165
f 54/166/166 51/167/167 52/168/168 55/169/169
f 56/170/170 54/171/171 55/172/172
f 55/173/173 52/174/174 46/175/175 53/176/176
f 57/177/177 56/178/178 55/179/179
f 37/180/180 57/181/181 55/182/182 38/183/183
f 38/184/184 55/185/185 53/186/186 35/187/187
f 58/188/188 44/189/189 43/190/190
f 49/191/191 58/192/192 43/193/193 50/194/194
f 50/195/195 43/196/196 33/197/197 45/198/198
