# Blender v2.76 (sub 0) OBJ File: 'farm_barn_01.blend'
# www.blender.org
mtllib farm_barn_01.mtl
o farm_barn_farm_barn_mesh
v -1.181785 -0.000044 1.000000
v -1.181785 0.981275 1.000000
v -1.181785 0.981275 -1.000000
v -1.181785 -0.000044 -1.000000
v -1.181786 1.369474 0.999999
v -1.181784 1.369474 -1.000001
v 1.130080 -0.000044 -1.000000
v 1.130080 0.981275 -1.000000
v 1.130079 0.981275 1.000000
v 1.130079 -0.000044 1.000000
v 1.130080 1.369474 -1.000000
v 1.130079 1.369474 1.000000
v -0.735850 2.074346 -1.000000
v -0.735851 0.981939 -1.000000
v -0.735851 -0.000044 -1.000000
v 0.001234 2.586051 -1.000000
v 0.001233 0.982199 -1.000000
v 0.001233 -0.000044 -1.000000
v -0.735851 -0.000044 1.000000
v -0.735851 0.981939 1.000000
v -0.735851 2.074346 1.000000
v 0.001233 0.982199 1.000000
v 0.001233 2.586051 1.000000
v 0.707359 2.074346 -1.000000
v 0.707358 0.981939 -1.000000
v 0.707358 -0.000044 -1.000000
v 0.707358 0.981939 1.000000
v 0.707358 2.074346 1.000000
v 0.707358 -0.000044 1.000000
v 0.001233 0.982199 1.000000
v 0.707358 0.981939 1.000000
v 0.707358 -0.000044 1.000000
v 0.707358 0.981939 0.841596
v 0.707358 -0.000044 0.841596
v -0.735851 0.981939 0.841596
v 0.001233 0.982199 0.841596
v -0.735851 -0.000044 0.841596
v -0.981665 -0.000044 0.841596
v -0.981665 0.981939 0.841596
v -1.045451 -0.000044 -0.882032
v -0.981665 0.981939 -0.882033
v 0.964791 -0.000044 -0.882032
v 0.902425 0.981939 -0.882033
v 0.902425 -0.000044 0.833055
v 0.902425 0.981939 0.833055
v 1.283133 1.378359 1.125709
v 0.801600 2.113902 1.125709
v 0.757217 2.026692 1.125709
v 1.206601 1.291150 1.125709
v -0.829183 2.113902 1.125708
v -1.338939 1.378359 1.125708
v -1.259122 1.291150 1.125708
v -0.786311 2.026692 1.125708
v 0.389172 2.396730 1.125709
v 0.366856 2.309521 1.125709
v 0.003700 2.653108 1.376701
v 0.002008 2.585597 1.376701
v -0.412742 2.390705 1.125709
v -0.392151 2.303496 1.125709
v -0.829182 2.113902 -1.143408
v -0.412741 2.390705 -1.143408
v -0.392151 2.303496 -1.143408
v -0.786310 2.026692 -1.143408
v 0.003700 2.685074 -1.456620
v 0.002009 2.597865 -1.456620
v 0.389172 2.406845 -1.143407
v 0.366856 2.319635 -1.143407
v 0.801600 2.113902 -1.143407
v 0.757217 2.026692 -1.143407
v -1.338938 1.378359 -1.143408
v -1.259121 1.291150 -1.143408
v 1.283133 1.378359 -1.143407
v 1.206602 1.291150 -1.143407
v 1.273173 1.329361 -0.026813
v 0.795328 2.057524 -0.026813
v -0.822964 2.057524 -0.026814
v -1.328816 1.329361 -0.026814
v 0.386059 2.362708 -0.026813
v 0.003539 2.597017 -0.063533
v -0.409713 2.315577 -0.026814
v -1.249610 1.247997 -0.026814
v 1.197227 1.247997 -0.026813
v 0.773512 0.981939 1.020388
v 0.773512 1.092874 1.020388
v -0.810657 1.101602 1.020387
v -0.810657 0.982199 1.020388
v 0.773512 1.092874 0.972733
v -0.810657 1.101602 0.972733
v -0.810657 0.982199 0.972733
v 0.773512 0.981939 0.972733
v 1.158388 1.326907 1.015451
v -1.201252 1.327176 1.015451
v -1.201252 1.304759 0.980173
v 1.158388 1.304389 0.980173
v -1.201252 1.450845 1.015450
v 1.158388 1.441805 1.015451
v 1.158388 1.462570 0.980173
v -1.201252 1.475015 0.980173
v 1.093886 1.474323 0.005624
v 1.102584 1.434243 -0.849601
v 1.102584 1.434243 0.888367
v -1.086161 1.497242 0.005623
v -1.094987 1.457163 0.888366
v -1.094986 1.457163 -0.849602
v 0.701352 1.992505 -0.849601
v -0.730868 1.992505 -0.849602
v 0.339141 2.275334 -0.849601
v 0.000603 2.526476 -1.089498
v -0.365133 2.269309 -0.849602
v -0.730869 1.992505 0.888366
v -0.365133 2.269309 0.888366
v 0.000603 2.526476 1.080607
v 0.339140 2.275334 0.888367
v 0.701351 1.992505 0.888367
v 0.793166 1.906642 -0.546371
v 0.793166 2.861333 -0.546371
v 0.792067 3.138917 -0.232361
v 0.792067 1.906783 -0.232361
v -0.357587 2.861333 -0.573271
v -0.357587 2.320827 -0.573270
v -0.358685 2.320968 -0.259260
v -0.358685 3.138917 -0.259261
v 0.790920 2.861333 0.095417
v 0.790921 1.906642 0.095417
v -0.359832 2.320827 0.068518
v -0.359832 2.861333 0.068517
v -0.419513 2.764575 -0.606087
v -0.420730 3.092177 -0.257873
v -0.420730 3.157231 -0.261206
v -0.419513 2.820663 -0.649228
v 0.854116 3.092177 -0.233042
v 0.855333 2.749205 -0.584879
v 0.855333 2.802217 -0.623774
v 0.854116 3.157231 -0.231405
v -0.422001 2.753555 0.108195
v -0.422001 2.809312 0.145591
v 0.852845 2.770129 0.128753
v 0.852845 2.829204 0.170264
v 0.215422 2.792209 0.157928
v 0.216693 3.130181 -0.246305
v 0.217910 2.784391 -0.636501
v 0.215422 2.734793 0.118475
v 0.217910 2.729840 -0.595483
v 0.835806 2.784207 -0.065139
v 0.835806 2.797620 -0.387876
v 0.776398 2.797620 -0.387876
v 0.776398 2.784207 -0.065139
v 0.835806 2.449101 -0.077452
v 0.776398 2.449101 -0.077452
v 0.835806 2.449082 -0.384489
v 0.776398 2.449082 -0.384489
v 0.809776 2.512831 -0.324664
v 0.809776 2.741415 -0.316265
v 0.809776 2.732767 -0.115247
v 0.809776 2.505064 -0.123614
v 0.835328 2.505064 -0.123614
v 0.835328 2.512831 -0.324664
v 0.835328 2.741415 -0.316265
v 0.835328 2.732767 -0.115247
v 0.010395 2.805867 0.077172
v 0.010395 2.499252 0.077172
v -0.000583 2.499252 -0.565617
v -0.000583 2.805867 -0.565618
v -0.146753 1.664133 1.040070
v 0.168289 1.666032 1.039439
v 0.111957 1.722211 1.038979
v -0.091164 1.720987 1.039386
v 0.165976 2.019345 1.039330
v 0.110386 1.962237 1.038905
v -0.149057 2.016013 1.039962
v -0.092729 1.960088 1.039312
v -0.092789 1.960079 1.009633
v 0.110326 1.962227 1.009226
v -0.091223 1.720977 1.009706
v 0.111898 1.722201 1.009300
v -0.146891 1.664111 0.971065
v 0.168151 1.666009 0.970434
v 0.165838 2.019323 0.970325
v -0.149195 2.015991 0.970957
v -1.201147 1.326907 -1.022451
v -1.201147 1.441805 -1.022451
v 1.158463 1.450845 -1.010490
v 1.158463 1.327176 -1.010490
v -1.201327 1.462570 -0.987173
v 1.158284 1.475015 -0.975212
v 1.158284 1.304759 -0.975212
v -1.201327 1.304389 -0.987173
v 0.688959 -0.036275 1.011858
v 0.688652 0.980802 1.011858
v 0.688652 0.980802 0.981262
v 0.688959 -0.036275 0.981262
v 0.765313 0.980838 1.011858
v 0.760183 -0.036242 1.011858
v 0.760183 -0.036242 0.981262
v 0.765313 0.980838 0.981262
v -0.801530 -0.036275 1.011858
v -0.730307 -0.036242 1.011858
v -0.725177 0.980838 1.011858
v -0.801837 0.980802 1.011858
v -0.730307 -0.036242 0.981262
v -0.725177 0.980838 0.981262
v -0.801837 0.980802 0.981262
v -0.801530 -0.036275 0.981262
v 1.043876 -0.036275 1.011858
v 1.115100 -0.036242 1.011858
v 1.120230 1.330192 1.011858
v 1.043569 1.330156 1.011858
v 1.115100 -0.036242 0.981262
v 1.120230 1.330192 0.981262
v 1.043569 1.330156 0.981262
v 1.043876 -0.036275 0.981262
v -1.176389 -0.036275 1.011858
v -1.176696 1.330156 1.011858
v -1.176696 1.330156 0.981262
v -1.176389 -0.036275 0.981262
v -1.100036 1.330192 1.011858
v -1.105165 -0.036242 1.011858
v -1.105165 -0.036242 0.981262
v -1.100036 1.330192 0.981262
v 0.773512 0.981939 1.020388
v -0.810657 0.982199 1.020388
v -0.810657 0.982199 0.972733
v 0.773512 0.981939 0.972733
v -0.810657 1.101602 1.020387
v 0.773512 1.092874 1.020388
v 0.773512 1.092874 0.972733
v -0.810657 1.101602 0.972733
v 0.773512 0.981939 1.020388
v 0.773512 1.092874 1.020388
v -0.810657 1.101602 1.020387
v -0.810657 0.982199 1.020388
v 0.773512 1.092874 0.972733
v -0.810657 1.101602 0.972733
v -0.810657 0.982199 0.972733
v 0.773512 0.981939 0.972733
v 0.170905 1.720358 1.065376
v 0.170905 1.720358 1.065376
vt 0.993860 0.011524
vt 0.993810 0.155811
vt 0.698791 0.155337
vt 0.698841 0.011050
vt 0.993791 0.213087
vt 0.698771 0.212614
vt 0.993858 0.010885
vt 0.993715 0.155682
vt 0.698609 0.155390
vt 0.698752 0.010594
vt 0.993659 0.212962
vt 0.698553 0.212671
vt 0.287992 0.317045
vt 0.288047 0.155867
vt 0.350441 0.155337
vt 0.350421 0.212614
vt 0.288097 0.010981
vt 0.350491 0.011050
vt 0.176399 0.392458
vt 0.176480 0.155819
vt 0.176530 0.010895
vt 0.357482 0.155054
vt 0.357624 0.010257
vt 0.423423 0.010321
vt 0.423281 0.155217
vt 0.423123 0.316406
vt 0.357425 0.212335
vt 0.524754 0.155748
vt 0.524522 0.392405
vt 0.074697 0.316562
vt 0.074752 0.155383
vt 0.074802 0.010498
vt 0.008984 0.212245
vt 0.009003 0.154968
vt 0.009053 0.010180
vt 0.636235 0.155426
vt 0.636075 0.316616
vt 0.636378 0.010532
vt 0.524494 0.155795
vt 0.636307 0.010532
vt 0.722451 0.561070
vt 0.722551 0.665886
vt 0.742081 0.665872
vt 0.741981 0.561056
vt 0.722623 0.741257
vt 0.722698 0.819932
vt 0.742228 0.819918
vt 0.742153 0.741243
vt 0.921580 0.929380
vt 0.995790 0.929639
vt 0.995705 0.911353
vt 0.921495 0.911093
vt 0.995942 0.801270
vt 0.922844 0.802181
vt 0.995626 0.669472
vt 0.921904 0.670388
vt 0.993823 0.557756
vt 0.921529 0.558185
vt 0.993853 0.540573
vt 0.921558 0.541002
vt 0.673083 0.481058
vt 0.527904 0.479943
vt 0.533717 0.466940
vt 0.677665 0.462641
vt 0.187396 0.478260
vt 0.038641 0.480292
vt 0.034688 0.461229
vt 0.181580 0.465190
vt 0.443313 0.473541
vt 0.452080 0.455904
vt 0.366400 0.447570
vt 0.372357 0.431588
vt 0.355957 0.447108
vt 0.272510 0.471478
vt 0.263752 0.453963
vt 0.348491 0.428318
vt 0.187055 0.860291
vt 0.271709 0.868395
vt 0.262035 0.887008
vt 0.181205 0.872761
vt 0.357368 0.907979
vt 0.346214 0.918609
vt 0.369781 0.906146
vt 0.446577 0.868322
vt 0.456626 0.887003
vt 0.377397 0.919731
vt 0.530574 0.859507
vt 0.536580 0.871802
vt 0.039689 0.858031
vt 0.036390 0.876373
vt 0.674246 0.856413
vt 0.678335 0.874030
vt 0.667009 0.672475
vt 0.528025 0.673335
vt 0.188501 0.672856
vt 0.045874 0.672834
vt 0.445811 0.674184
vt 0.369732 0.681389
vt 0.271334 0.673194
vt 0.353082 0.679969
vt 0.026925 0.672874
vt 0.018978 0.480721
vt 0.020170 0.857722
vt 0.685465 0.672406
vt 0.693277 0.856012
vt 0.692268 0.481353
vt 0.836815 0.561431
vt 0.807983 0.561589
vt 0.808322 0.918059
vt 0.839356 0.917889
vt 0.795595 0.561597
vt 0.795934 0.918068
vt 0.808400 0.928783
vt 0.839434 0.928612
vt 0.836737 0.550708
vt 0.807904 0.550866
vt 0.851742 0.917823
vt 0.849202 0.561364
vt 0.780035 0.547282
vt 0.780638 0.933279
vt 0.788537 0.933269
vt 0.787944 0.547272
vt 0.757272 0.933309
vt 0.758325 0.547309
vt 0.750593 0.547307
vt 0.749191 0.933308
vt 0.700974 0.667023
vt 0.707064 0.807184
vt 0.706751 0.521137
vt 0.011094 0.667550
vt 0.004456 0.520836
vt 0.005820 0.808650
vt 0.673926 0.923447
vt 0.538410 0.917578
vt 0.179945 0.919049
vt 0.041691 0.926154
vt 0.477289 0.925904
vt 0.421877 0.942009
vt 0.302409 0.944176
vt 0.241908 0.927021
vt 0.181642 0.425938
vt 0.248778 0.418490
vt 0.321904 0.394780
vt 0.406337 0.404718
vt 0.466980 0.420984
vt 0.533664 0.427986
vt 0.039580 0.418940
vt 0.673116 0.420633
vt 0.751675 0.216894
vt 0.751675 0.353994
vt 0.702126 0.395561
vt 0.702126 0.217192
vt 0.928234 0.353994
vt 0.928234 0.279595
vt 0.976399 0.279616
vt 0.976400 0.396571
vt 0.701960 0.216994
vt 0.701969 0.395667
vt 0.751739 0.353515
vt 0.751733 0.216971
vt 0.976300 0.395653
vt 0.976293 0.279872
vt 0.928181 0.279854
vt 0.928185 0.354336
vt 0.933009 0.377990
vt 0.933113 0.442474
vt 0.924860 0.449230
vt 0.923513 0.378951
vt 0.737914 0.444444
vt 0.738482 0.378996
vt 0.747144 0.380291
vt 0.746268 0.452653
vt 0.933314 0.457511
vt 0.932781 0.523892
vt 0.923963 0.522435
vt 0.737914 0.524724
vt 0.737925 0.459426
vt 0.747583 0.523611
vt 0.835902 0.525198
vt 0.835563 0.450905
vt 0.835202 0.377403
vt 0.924042 0.533867
vt 0.836205 0.536750
vt 0.748138 0.535020
vt 0.747053 0.368861
vt 0.834891 0.365853
vt 0.922956 0.367543
vt 0.317609 0.371258
vt 0.385357 0.375058
vt 0.384508 0.391288
vt 0.316485 0.386157
vt 0.318476 0.298207
vt 0.303283 0.371088
vt 0.304151 0.298037
vt 0.386292 0.296169
vt 0.401699 0.296352
vt 0.400764 0.375241
vt 0.317740 0.283286
vt 0.385862 0.279925
vt 0.370845 0.313253
vt 0.370581 0.357419
vt 0.333657 0.356756
vt 0.333910 0.313353
vt 0.330595 0.310139
vt 0.373931 0.309400
vt 0.373306 0.361530
vt 0.330019 0.359650
vt 0.873335 0.353509
vt 0.873333 0.306950
vt 0.873461 0.306963
vt 0.873461 0.353994
vt 0.722798 0.924746
vt 0.742328 0.924733
vt 0.899243 0.569836
vt 0.870411 0.569994
vt 0.870750 0.926465
vt 0.901784 0.926295
vt 0.858023 0.570003
vt 0.858362 0.926474
vt 0.914171 0.926229
vt 0.911630 0.569770
vn -1.000000 0.000000 -0.000000
vn 1.000000 0.000000 0.000000
vn 0.000000 -0.000000 -1.000000
vn 0.000000 0.000000 1.000000
vn 0.000400 -1.000000 0.000000
vn -0.000400 -1.000000 0.000000
vn 0.999300 -0.032500 -0.018500
vn -0.999300 -0.031700 -0.018200
vn -0.043700 -0.000000 -0.999000
vn 0.514500 -0.079800 0.853800
vn -0.495800 -0.060600 0.866300
vn -0.581200 -0.063000 -0.811300
vn 0.601800 -0.082800 -0.794400
vn 0.836000 0.547900 -0.030900
vn 0.835900 0.547900 0.031900
vn -0.821200 0.569800 -0.031900
vn -0.821200 0.569800 0.032900
vn 0.532200 0.846100 -0.030100
vn 0.540300 0.840300 0.045000
vn 0.581600 0.812700 -0.034200
vn 0.588100 0.807900 0.038800
vn -0.541100 0.839400 -0.050100
vn -0.541100 0.839400 0.051700
vn -0.539900 0.840600 -0.043100
vn -0.553600 0.831000 0.054700
vn -0.727200 -0.686000 0.021200
vn -0.727200 -0.686000 -0.021900
vn 0.741500 -0.670700 -0.021300
vn 0.741500 -0.670700 0.020600
vn 0.005500 1.000000 0.000000
vn -0.000200 -1.000000 0.000000
vn -0.000100 -0.843500 0.537200
vn 0.003800 0.843500 0.537200
vn -0.875300 -0.483500 -0.008800
vn -0.874000 -0.485900 0.008500
vn 0.787000 -0.616900 0.008000
vn 0.788200 -0.615300 -0.008300
vn -0.829100 -0.545100 -0.124600
vn 0.820700 -0.540500 -0.185400
vn -0.596700 -0.779900 -0.189000
vn -0.503500 -0.847000 -0.170500
vn 0.503800 -0.849800 -0.155300
vn 0.579900 -0.795900 -0.174000
vn 0.575200 -0.789600 0.213700
vn 0.501200 -0.848000 0.172400
vn -0.517700 -0.837600 0.174800
vn -0.586700 -0.780500 0.215700
vn 0.813300 -0.535600 0.227500
vn -0.825700 -0.542800 0.153600
vn 1.000000 -0.000000 0.003500
vn -1.000000 0.000000 -0.003500
vn -1.000000 -0.000900 -0.002500
vn 1.000000 0.000800 0.002500
vn -1.000000 0.000700 -0.002600
vn 1.000000 -0.000900 0.002600
vn 0.012600 0.763500 0.645700
vn -0.052300 0.769900 0.636100
vn 0.051600 0.751000 -0.658300
vn -0.011800 0.744900 -0.667100
vn -0.030500 -0.561500 0.826900
vn 0.017800 -0.570600 0.821000
vn 0.032100 -0.596100 -0.802300
vn -0.019200 -0.605300 -0.795800
vn -0.000000 0.999100 0.041500
vn -0.000000 -0.036700 0.999300
vn 0.000000 -0.009700 -1.000000
vn 0.000000 -1.000000 0.000100
vn 0.000000 0.999300 0.038600
vn 0.000000 0.036700 -0.999300
vn 0.000000 -0.999100 -0.043000
vn 1.000000 -0.009000 -0.000400
vn 1.000000 0.000400 -0.009900
vn 1.000000 -0.000100 0.007300
vn 1.000000 0.008000 0.000100
vn -0.023400 0.000000 0.999700
vn 0.024200 -0.000000 -0.999700
vn 0.021400 -0.000000 -0.999800
vn 0.001900 0.010100 0.999900
vn -0.007900 0.000300 1.000000
vn 0.011900 0.000400 0.999900
vn 0.002100 -0.009500 1.000000
vn 0.010600 -0.999900 0.000300
vn 1.000000 0.006500 -0.002000
vn -1.000000 -0.006500 0.002000
vn -0.006000 1.000000 -0.000300
vn 0.002000 0.000300 1.000000
vn 0.006000 -1.000000 0.000300
vn -0.010600 0.999900 -0.000300
vn 0.005100 -0.000000 -1.000000
vn -0.001100 0.843500 -0.537200
vn 0.002800 -0.843500 -0.537200
vn -1.000000 -0.000300 -0.000000
vn 1.000000 -0.005000 0.000000
vn 1.000000 -0.003800 0.000000
vn -1.000000 -0.000200 0.000000
usemtl farm_barn
s off
f 1/1/1 2/2/1 3/3/1 4/4/1
f 2/2/1 5/5/1 6/6/1 3/3/1
f 7/7/2 8/8/2 9/9/2 10/10/2
f 8/8/2 11/11/2 12/12/2 9/9/2
f 13/13/3 14/14/3 3/15/3 6/16/3
f 14/14/3 15/17/3 4/18/3 3/15/3
f 16/19/3 17/20/3 14/14/3 13/13/3
f 17/20/3 18/21/3 15/17/3 14/14/3
f 2/22/4 1/23/4 19/24/4 20/25/4
f 20/25/4 21/26/4 5/27/4 2/22/4
f 22/28/4 23/29/4 21/26/4 20/25/4
f 24/30/3 25/31/3 17/20/3 16/19/3
f 25/31/3 26/32/3 18/21/3 17/20/3
f 11/33/3 8/34/3 25/31/3 24/30/3
f 8/34/3 7/35/3 26/32/3 25/31/3
f 27/36/4 28/37/4 23/29/4 22/28/4
f 10/10/4 9/9/4 27/36/4 29/38/4
f 9/9/4 12/12/4 28/37/4 27/36/4
f 27/36/4 22/28/4 30/39/4 31/36/4
f 22/28/4 20/25/4 30/39/4
f 29/38/4 27/36/4 31/36/4 32/40/4
f 32/41/1 31/42/1 33/43/1 34/44/1
f 30/45/5 20/46/5 35/47/5 36/48/5
f 31/42/6 30/45/6 36/48/6 33/43/6
f 35/49/3 37/50/3 38/51/3 39/52/3
f 39/52/7 38/51/7 40/53/7 41/54/7
f 41/54/4 40/53/4 42/55/4 43/56/4
f 43/56/8 42/55/8 44/57/8 45/58/8
f 34/59/9 33/60/9 45/58/9 44/57/9
f 46/61/4 47/62/4 48/63/4 49/64/4
f 50/65/4 51/66/4 52/67/4 53/68/4
f 47/62/4 54/69/4 55/70/4 48/63/4
f 54/69/10 56/71/10 57/72/10 55/70/10
f 56/73/11 58/74/11 59/75/11 57/76/11
f 58/74/4 50/65/4 53/68/4 59/75/4
f 60/77/3 61/78/3 62/79/3 63/80/3
f 61/78/12 64/81/12 65/82/12 62/79/12
f 64/83/13 66/84/13 67/85/13 65/86/13
f 66/84/3 68/87/3 69/88/3 67/85/3
f 70/89/3 60/77/3 63/80/3 71/90/3
f 68/87/3 72/91/3 73/92/3 69/88/3
f 46/61/14 74/93/14 75/94/14 47/62/14
f 74/93/15 72/91/15 68/87/15 75/94/15
f 50/65/16 76/95/16 77/96/16 51/66/16
f 76/95/17 60/77/17 70/89/17 77/96/17
f 54/69/18 78/97/18 79/98/18 56/71/18
f 78/97/19 66/84/19 64/83/19 79/98/19
f 47/62/20 75/94/20 78/97/20 54/69/20
f 75/94/21 68/87/21 66/84/21 78/97/21
f 58/74/22 80/99/22 76/95/22 50/65/22
f 80/99/23 61/78/23 60/77/23 76/95/23
f 56/73/24 79/100/24 80/99/24 58/74/24
f 79/100/25 64/81/25 61/78/25 80/99/25
f 51/66/26 77/96/26 81/101/26 52/102/26
f 77/96/27 70/89/27 71/103/27 81/101/27
f 72/91/28 74/93/28 82/104/28 73/105/28
f 74/93/29 46/61/29 49/106/29 82/104/29
f 83/107/4 84/108/4 85/109/4 86/110/4
f 85/109/30 84/108/30 87/111/30 88/112/30
f 86/110/1 85/109/1 88/113/1 89/114/1
f 84/108/2 83/107/2 90/115/2 87/116/2
f 83/107/31 86/110/31 89/117/31 90/118/31
f 91/119/32 92/120/32 93/121/32 94/122/32
f 95/123/33 96/124/33 97/125/33 98/126/33
f 91/119/4 96/124/4 95/123/4 92/120/4
f 73/105/34 82/104/34 99/127/34 100/128/34
f 82/104/35 49/106/35 101/129/35 99/127/35
f 52/102/36 81/101/36 102/130/36 103/131/36
f 81/101/37 71/103/37 104/132/37 102/130/37
f 69/88/38 73/92/38 100/133/38 105/134/38
f 71/90/39 63/80/39 106/135/39 104/136/39
f 67/85/40 69/88/40 105/134/40 107/137/40
f 65/86/41 67/85/41 107/137/41 108/138/41
f 62/79/42 65/82/42 108/139/42 109/140/42
f 63/80/43 62/79/43 109/140/43 106/135/43
f 59/75/44 53/68/44 110/141/44 111/142/44
f 57/76/45 59/75/45 111/142/45 112/143/45
f 55/70/46 57/72/46 112/144/46 113/145/46
f 48/63/47 55/70/47 113/145/47 114/146/47
f 53/68/48 52/67/48 103/147/48 110/141/48
f 49/64/49 48/63/49 114/146/49 101/148/49
f 115/149/50 116/150/50 117/151/50 118/152/50
f 119/153/51 120/154/51 121/155/51 122/156/51
f 118/157/50 117/158/50 123/159/50 124/160/50
f 122/161/51 121/162/51 125/163/51 126/164/51
f 127/165/52 128/166/52 129/167/52 130/168/52
f 131/169/53 132/170/53 133/171/53 134/172/53
f 128/173/54 135/174/54 136/175/54 129/167/54
f 137/176/55 131/177/55 134/172/55 138/178/55
f 136/175/56 139/179/56 140/180/56 129/167/56
f 139/179/57 138/178/57 134/172/57 140/180/57
f 129/167/58 140/180/58 141/181/58 130/168/58
f 140/180/59 134/172/59 133/171/59 141/181/59
f 135/182/60 142/183/60 139/179/60 136/175/60
f 142/183/61 137/184/61 138/178/61 139/179/61
f 132/185/62 143/186/62 141/181/62 133/171/62
f 143/186/63 127/187/63 130/168/63 141/181/63
f 144/188/64 145/189/64 146/190/64 147/191/64
f 148/192/65 144/188/65 147/193/65 149/194/65
f 145/189/66 150/195/66 151/196/66 146/197/66
f 150/195/67 148/192/67 149/198/67 151/199/67
f 152/200/2 153/201/2 154/202/2 155/203/2
f 156/204/68 157/205/68 152/200/68 155/203/68
f 157/205/65 158/206/65 153/201/65 152/200/65
f 159/207/69 156/204/69 155/203/69 154/202/69
f 158/206/70 159/207/70 154/202/70 153/201/70
f 145/189/71 144/188/71 159/207/71 158/206/71
f 144/188/72 148/192/72 156/204/72 159/207/72
f 150/195/73 145/189/73 158/206/73 157/205/73
f 148/192/74 150/195/74 157/205/74 156/204/74
f 123/159/75 160/208/75 161/209/75 124/160/75
f 160/208/75 126/164/75 125/163/75 161/209/75
f 115/149/76 162/210/76 163/211/76 116/150/76
f 162/210/77 120/154/77 119/153/77 163/211/77
f 19/212/2 37/213/2 35/47/2 20/46/2
f 164/192/78 165/195/78 166/205/78 167/204/78
f 165/195/79 168/189/79 169/206/79 166/205/79
f 170/188/80 164/192/80 167/204/80 171/207/80
f 168/189/81 170/188/81 171/207/81 169/206/81
f 169/206/82 171/207/82 172/202/82 173/201/82
f 171/207/83 167/204/83 174/203/83 172/202/83
f 166/205/84 169/206/84 173/201/84 175/200/84
f 167/204/85 166/205/85 175/200/85 174/203/85
f 175/200/86 173/201/86 172/202/86 174/203/86
f 165/195/87 164/192/87 176/198/87 177/199/87
f 168/189/83 165/195/83 177/196/83 178/197/83
f 164/192/84 170/188/84 179/193/84 176/194/84
f 170/188/88 168/189/88 178/190/88 179/191/88
f 180/119/89 181/124/89 182/123/89 183/120/89
f 182/123/90 181/124/90 184/125/90 185/126/90
f 180/119/91 183/120/91 186/121/91 187/122/91
f 188/107/92 189/110/92 190/117/92 191/118/92
f 192/109/93 193/108/93 194/111/93 195/112/93
f 188/214/4 193/215/4 192/216/4 189/217/4
f 196/214/4 197/215/4 198/216/4 199/217/4
f 198/216/93 197/215/93 200/218/93 201/219/93
f 196/214/92 199/217/92 202/220/92 203/221/92
f 204/214/4 205/215/4 206/216/4 207/217/4
f 206/216/94 205/215/94 208/218/94 209/219/94
f 204/214/95 207/217/95 210/220/95 211/221/95
f 212/214/95 213/217/95 214/220/95 215/221/95
f 216/216/94 217/215/94 218/218/94 219/219/94
f 212/214/4 217/215/4 216/216/4 213/217/4
f 220/107/31 221/110/31 222/117/31 223/118/31
f 224/109/30 225/108/30 226/111/30 227/112/30
f 220/107/4 225/108/4 224/109/4 221/110/4
f 228/107/4 229/108/4 230/109/4 231/110/4
f 230/109/30 229/108/30 232/111/30 233/112/30
f 228/107/31 231/110/31 234/117/31 235/118/31
l 236 237
