# Blender v2.76 (sub 0) OBJ File: 'farm_tree_01.blend'
# www.blender.org
mtllib farm_tree_01.mtl
o farm_tree_farm_tree_mesh
v -0.071436 3.367910 0.045401
v -0.102316 3.101491 0.183671
v -0.013871 3.109439 0.192761
v 0.063007 3.116514 0.148016
v 0.098952 3.120014 0.066526
v 0.080235 3.118602 -0.020581
v 0.014004 3.112818 -0.080035
v -0.074442 3.104871 -0.089126
v -0.151320 3.097796 -0.044380
v -0.187265 3.094296 0.037110
v -0.168547 3.095707 0.124217
v -0.262947 2.950603 0.175281
v -0.145992 2.960817 0.280269
v -0.263336 2.849412 0.173627
v -0.145950 2.859664 0.279000
v -0.296000 2.948110 0.021461
v -0.296510 2.846910 0.019240
v -0.232525 2.954291 -0.122439
v -0.232802 2.853114 -0.125190
v -0.096770 2.966784 -0.201453
v -0.096546 2.865654 -0.204496
v 0.059414 2.980818 -0.185401
v 0.060213 2.879739 -0.188384
v 0.176369 2.991032 -0.080414
v 0.177598 2.889990 -0.083010
v 0.209422 2.993525 0.073407
v 0.210773 2.892492 0.071377
v 0.145947 2.987344 0.217306
v 0.147065 2.886289 0.215806
v 0.010191 2.974850 0.296321
v 0.010809 2.873749 0.295112
v -0.256435 -0.004486 0.133242
v -0.149749 0.569875 0.065579
v -0.129128 0.569875 -0.121540
v -0.220508 -0.004486 -0.207805
v 0.042520 -0.004486 0.291702
v 0.021840 0.569875 0.172746
v -0.134232 1.751990 0.055436
v -0.115757 1.751990 -0.112213
v 0.019502 1.751990 0.124813
v 0.055204 0.569875 -0.159751
v 0.100651 -0.004486 -0.274380
v 0.148508 0.569875 0.013889
v 0.263212 -0.004486 0.022326
v 0.049396 1.751990 -0.146449
v 0.132991 1.789335 0.000041
v 0.132991 1.751990 0.000041
v 0.326822 2.077073 -0.376624
v 0.164827 2.423085 0.022700
v 0.475000 2.210883 -0.016093
v 0.601643 1.884402 -0.381098
v 0.800970 1.949071 -0.029041
v 0.380375 2.089221 0.305763
v 0.655421 1.910058 0.333660
v 0.656062 2.067057 0.638956
v 0.371850 2.233458 0.381072
v 0.104975 2.109613 0.583029
v 0.311903 2.011606 0.819891
v 0.089295 2.357760 0.163236
v 0.761597 1.931949 0.266846
v 0.530768 2.044862 0.050888
v -0.207996 2.051086 -0.501236
v 0.042831 2.387885 -0.141961
v 0.173788 2.192708 -0.437761
v -0.066147 1.873509 -0.748246
v 0.336391 1.948845 -0.736192
v 0.405375 2.066139 -0.197564
v 0.574782 1.902062 -0.427583
v -0.629499 1.948845 0.713018
v -0.421577 2.192708 0.444189
v -0.612091 2.066139 0.170270
v -0.815868 1.902062 0.370474
v -0.245318 2.387885 0.172932
v -0.233981 1.873509 0.788829
v -0.054713 2.051086 0.567474
v -0.566905 2.051086 0.310537
v -0.258341 2.387885 -0.000560
v -0.572808 2.192708 -0.076443
v -0.835320 1.873509 0.215203
v -0.895528 1.948845 -0.182989
v -0.377954 2.066139 -0.347290
v -0.634585 1.902062 -0.472780
v -0.341026 2.283376 -0.505775
v -0.204329 2.484263 -0.261455
v 0.064753 2.379999 -0.317500
v -0.021263 2.244838 -0.536542
v -0.055579 2.645044 -0.040351
v -0.526076 2.221316 -0.230435
v -0.416121 2.367600 -0.023148
v -0.097186 2.367600 0.409078
v -0.075432 2.645044 0.048782
v -0.311280 2.484263 0.172837
v -0.315115 2.221316 0.496053
v -0.568909 2.283376 0.282406
v -0.337999 2.379999 -0.100718
v -0.565036 2.244838 -0.038809
v 0.399172 2.283376 -0.457247
v 0.202813 2.484263 -0.257693
v 0.331855 2.379999 -0.015011
v 0.518113 2.244838 -0.158839
v 0.032115 2.645044 -0.053057
v 0.083073 2.221316 -0.557936
v -0.085205 2.367600 -0.394410
v 0.262664 2.414636 0.278121
v -0.120567 2.647582 0.199810
v -0.025392 2.481194 0.445006
v 0.323468 2.259822 0.499011
v 0.056873 2.271363 0.705655
v -0.281809 2.342752 0.406258
v -0.248671 2.195052 0.631500
v 0.531882 2.283562 0.277026
v 0.292363 2.499236 0.155166
v 0.094834 2.399014 0.348440
v 0.281313 2.251424 0.479169
v 0.053799 2.674041 0.058239
v 0.530270 2.230290 -0.056241
v 0.330927 2.389006 -0.163612
v -0.243937 2.701033 -0.151698
v -0.046939 3.042424 0.002138
v -0.019275 2.833056 -0.177046
v -0.202750 2.510936 -0.305708
v 0.025316 2.574741 -0.360934
v 0.145218 2.713019 -0.073103
v 0.204499 2.536249 -0.222093
v 0.396117 2.560130 -0.105106
v 0.230901 2.811447 -0.006417
v 0.245996 2.645634 0.175551
v 0.394931 2.468730 0.116269
v 0.078370 3.010734 0.098609
v 0.211247 2.546307 -0.254196
v 0.069786 2.731730 -0.176666
v -0.334482 2.675394 0.170882
v -0.119668 3.007694 0.035069
v -0.287589 2.815124 -0.048647
v -0.473844 2.500188 0.082148
v -0.456195 2.574518 -0.150768
v -0.142280 2.690245 -0.176466
v -0.271067 2.528360 -0.280717
v 0.207768 2.574518 0.392361
v 0.090862 2.815124 0.233649
v -0.092216 2.690245 0.296379
v -0.012931 2.528360 0.441872
v -0.032432 3.007694 0.092213
v 0.312925 2.500188 0.183787
v 0.217946 2.675394 0.048605
v -0.026384 2.675394 0.337305
v -0.096721 3.007694 0.093086
v -0.224047 2.815124 0.230904
v -0.150543 2.500188 0.446300
v -0.369235 2.574518 0.364234
v -0.306142 2.690245 0.055653
v -0.442243 2.528360 0.150156
v 0.399968 2.119586 0.492666
v -0.035559 2.348925 0.241376
v 0.017749 2.233024 0.596998
v 0.418276 2.008070 0.808732
v 0.051655 2.070115 0.980769
v -0.279223 2.045046 0.535205
v -0.294826 1.941728 0.847631
v -0.365880 1.923143 -0.786574
v -0.247828 2.138707 -0.448099
v 0.083454 2.008057 -0.471100
v 0.022243 1.867855 -0.762861
v -0.111447 2.307459 -0.138802
v -0.644436 1.829284 -0.501172
v -0.551969 1.983167 -0.217555
v -0.722515 1.704754 -0.281486
v -0.133131 2.017790 -0.186732
v -0.315599 1.854895 -0.558873
v -0.846229 1.556212 -0.622729
v -0.473543 1.646814 -0.966119
v 0.127633 1.728781 -0.586546
v 0.045736 1.593445 -0.937588
v 0.085087 1.788684 1.160314
v 0.039724 1.945939 0.698568
v -0.357602 1.764486 0.624220
v -0.378479 1.664754 1.000125
v -0.031598 2.057817 0.270691
v 0.575598 1.728792 0.953322
v 0.551104 1.836439 0.573038
v -1.182172 1.671623 -0.239897
v -0.750397 1.907022 -0.111703
v -0.489697 1.784846 -0.437581
v -0.833050 1.626465 -0.588568
v -0.329664 2.095425 -0.020402
v -1.101617 1.598902 0.239200
v -0.742500 1.770316 0.353904
v -0.057226 1.770316 0.663045
v -0.312240 2.095425 0.188340
v -0.548061 1.907022 0.514711
v -0.297072 1.598902 0.929375
v -0.826244 1.671623 0.838161
v -0.802954 1.784846 0.185137
v -1.075593 1.626465 0.426019
v 0.466042 1.671623 -0.905500
v 0.248492 1.907022 -0.546434
v 0.558337 1.784846 -0.257434
v 0.784991 1.626465 -0.534187
v 0.073282 2.095425 -0.190533
v -0.072522 1.598902 -0.920003
v -0.262306 1.770316 -0.622806
v 0.726105 1.764308 0.041499
v 0.135446 2.066346 0.176674
v 0.513484 1.946358 0.438770
v 1.034936 1.655314 0.301336
v 0.893738 1.785733 0.749051
v 0.156425 1.826811 0.681761
v 0.433279 1.732206 0.966749
v 1.087613 1.671842 -0.054670
v 0.651491 1.924567 -0.039091
v 0.524889 1.807127 0.348159
v 0.892880 1.634183 0.381724
v 0.236503 2.129403 0.007584
v 0.820930 1.609417 -0.478258
v 0.453239 1.795400 -0.472875
vt 0.983126 0.936612
vt 0.953952 0.875078
vt 0.972547 0.870432
vt 0.954065 0.875612
vt 0.982803 0.937606
vt 0.971552 0.871036
vt 0.936213 0.886097
vt 0.921967 0.902636
vt 0.911879 0.919249
vt 0.913925 0.936965
vt 0.912533 0.919721
vt 0.913920 0.936478
vt 0.922469 0.902211
vt 0.936556 0.885993
vt 0.895915 0.846646
vt 0.927319 0.827198
vt 0.863616 0.816721
vt 0.904399 0.791534
vt 0.871180 0.875080
vt 0.831681 0.853420
vt 0.860704 0.910679
vt 0.820081 0.900724
vt 0.873402 0.945961
vt 0.830848 0.962098
vt 0.860283 0.909808
vt 0.873902 0.945772
vt 0.819737 0.899587
vt 0.831897 0.961212
vt 0.871984 0.874661
vt 0.833184 0.852557
vt 0.896376 0.846569
vt 0.864505 0.816550
vt 0.927349 0.827014
vt 0.904391 0.790986
vt 0.968364 0.822866
vt 0.960133 0.784948
vt 0.968705 0.822371
vt 0.959858 0.784508
vt 0.701788 0.079253
vt 0.674942 0.181057
vt 0.626283 0.176760
vt 0.634822 0.073713
vt 0.670981 0.358952
vt 0.625976 0.357907
vt 0.560708 0.178516
vt 0.549439 0.071606
vt 0.563387 0.357480
vt 0.509832 0.187055
vt 0.480092 0.076648
vt 0.518741 0.357523
vt 0.998343 0.654440
vt 0.927488 0.750547
vt 0.905724 0.668780
vt 0.975076 0.588182
vt 0.876680 0.587191
vt 0.803267 0.691307
vt 0.773385 0.623645
vn -0.100900 0.994700 -0.018400
vn -0.372900 0.540400 0.754200
vn 0.129400 0.573200 0.809100
vn 0.570400 0.603400 0.557100
vn 0.779800 0.619400 0.090600
vn 0.673200 0.614300 -0.411500
vn 0.291000 0.589900 -0.753200
vn -0.217000 0.555900 -0.802400
vn -0.654400 0.525900 -0.543300
vn -0.855900 0.511300 -0.077900
vn -0.748000 0.516900 0.416200
vn -0.832500 0.289600 0.472200
vn -0.404500 0.292100 0.866600
vn -0.870700 -0.004700 0.491700
vn -0.419600 -0.011500 0.907600
vn -0.950000 0.298000 -0.093200
vn -0.994600 0.007300 -0.103200
vn -0.718700 0.313900 -0.620400
vn -0.752000 0.020000 -0.658900
vn -0.222400 0.331900 -0.916700
vn -0.228500 0.028700 -0.973100
vn 0.359100 0.345400 -0.867000
vn 0.387300 0.030200 -0.921400
vn 0.804700 0.349100 -0.480200
vn 0.858500 0.023600 -0.512100
vn 0.934800 0.340800 0.099500
vn 0.994900 0.011300 0.099900
vn 0.693900 0.323700 0.643200
vn 0.739900 -0.001800 0.672700
vn 0.178900 0.305000 0.935400
vn 0.196200 -0.010500 0.980500
vn -0.867500 0.205800 0.452700
vn -0.883300 0.118400 0.453600
vn -0.735900 0.118400 -0.666600
vn -0.722800 0.213100 -0.657300
vn 0.180900 0.217000 0.959200
vn 0.183100 0.128500 0.974600
vn -0.886100 0.021900 0.463000
vn -0.739200 0.013700 -0.673300
vn 0.236300 0.029800 0.971200
vn 0.418700 0.115700 -0.900700
vn 0.407600 0.210600 -0.888500
vn 0.989100 0.110200 0.097400
vn 0.977100 0.193600 0.088600
vn 0.417600 0.011000 -0.908500
vn 0.761500 0.022300 0.647700
vn 0.875200 0.007800 -0.483600
vn 0.504900 0.729600 -0.461200
vn 0.561900 0.826700 -0.029300
vn 0.575500 0.816500 -0.045200
vn 0.528200 0.715700 -0.456900
vn 0.588600 0.806900 -0.049100
vn 0.544900 0.741900 0.390700
vn 0.544100 0.754100 0.367900
vn 0.329000 0.929800 0.164700
vn 0.315400 0.935900 0.157100
vn 0.009800 0.880800 0.473400
vn 0.022800 0.890900 0.453500
vn 0.293200 0.942900 0.157700
vn 0.576200 0.802800 -0.153100
vn 0.560200 0.809800 -0.174300
vn -0.158600 0.755800 -0.635300
vn 0.239000 0.855700 -0.458800
vn 0.232600 0.846300 -0.479200
vn -0.142600 0.743100 -0.653800
vn 0.236200 0.837400 -0.492900
vn 0.593500 0.770200 -0.233300
vn 0.573200 0.782300 -0.243800
vn -0.311400 0.837400 0.449100
vn -0.305700 0.846300 0.436200
vn -0.623100 0.770200 0.136100
vn -0.604600 0.782300 0.149700
vn -0.308800 0.855700 0.415100
vn 0.037000 0.743100 0.668100
vn 0.055700 0.755800 0.652500
vn -0.596700 0.755800 0.269800
vn -0.494200 0.855700 -0.153000
vn -0.513100 0.846300 -0.143000
vn -0.617700 0.743100 0.257300
vn -0.527200 0.837400 -0.144100
vn -0.335800 0.770200 -0.542200
vn -0.342400 0.782300 -0.520300
vn -0.291300 0.837400 -0.462400
vn -0.281600 0.846300 -0.452100
vn 0.118700 0.770200 -0.626600
vn 0.099000 0.782300 -0.614900
vn -0.261000 0.855700 -0.446700
vn -0.629200 0.743100 -0.227600
vn -0.622200 0.755800 -0.204200
vn -0.270100 0.755800 0.596500
vn -0.472200 0.855700 0.211300
vn -0.479800 0.846300 0.231300
vn -0.294100 0.743100 0.601100
vn -0.491100 0.837400 0.239800
vn -0.610200 0.770200 -0.185500
vn -0.600700 0.782300 -0.164700
vn 0.362500 0.837400 -0.409000
vn 0.355300 0.846300 -0.396800
vn 0.634800 0.770200 -0.061200
vn 0.618100 0.782300 -0.076800
vn 0.355900 0.855700 -0.375500
vn 0.042600 0.743100 -0.667800
vn 0.022200 0.755800 -0.654400
vn 0.420900 0.792800 0.440700
vn -0.007000 0.826200 0.563300
vn 0.012100 0.818500 0.574300
vn 0.422200 0.778600 0.464200
vn 0.019300 0.809700 0.586500
vn -0.407800 0.680800 0.608300
vn -0.387400 0.696200 0.604300
vn 0.537600 0.806800 0.244700
vn 0.524300 0.816500 0.241700
vn 0.284600 0.741900 0.607100
vn 0.295100 0.754100 0.586800
vn 0.504600 0.826700 0.248900
vn 0.684000 0.715700 -0.140700
vn 0.665800 0.729600 -0.155800
vn -0.375600 0.529100 -0.760900
vn 0.156600 0.654000 -0.740000
vn 0.156700 0.642000 -0.750500
vn -0.361400 0.516000 -0.776600
vn 0.148700 0.626000 -0.765500
vn 0.652600 0.547800 -0.523400
vn 0.634700 0.559400 -0.533100
vn 0.755200 0.628000 -0.187800
vn 0.731700 0.647000 -0.214500
vn 0.821400 0.483600 0.302300
vn 0.819700 0.495300 0.287600
vn 0.716600 0.662900 -0.217100
vn 0.456100 0.589300 -0.666800
vn 0.433500 0.606600 -0.666300
vn -0.813500 0.559100 0.159900
vn -0.625300 0.697400 -0.350100
vn -0.637100 0.685300 -0.352600
vn -0.825400 0.546600 0.140900
vn -0.655500 0.669200 -0.350000
vn -0.266600 0.581700 -0.768500
vn -0.280700 0.594000 -0.753900
vn 0.472400 0.669200 0.573500
vn 0.454500 0.685300 0.569000
vn -0.046700 0.581700 0.812000
vn -0.028100 0.594000 0.804000
vn 0.444500 0.697400 0.562100
vn 0.816700 0.546600 0.184600
vn 0.813000 0.559100 0.162500
vn -0.073900 0.559100 0.825800
vn -0.510900 0.697400 0.502500
vn -0.516700 0.685300 0.513100
vn -0.095500 0.546600 0.831900
vn -0.519300 0.669200 0.531500
vn -0.812300 0.581700 0.041100
vn -0.802300 0.594000 0.058700
vn 0.330900 0.895500 0.297500
vn -0.112500 0.939600 0.323100
vn -0.096000 0.935800 0.339100
vn 0.327500 0.887700 0.323600
vn -0.091400 0.930600 0.354300
vn -0.515400 0.792700 0.325500
vn -0.494500 0.807400 0.321800
vn -0.196000 0.878400 -0.435700
vn -0.188100 0.886200 -0.423300
vn 0.234500 0.811800 -0.534700
vn 0.213400 0.823500 -0.525600
vn -0.168500 0.894600 -0.413800
vn -0.570000 0.776600 -0.268300
vn -0.566700 0.787200 -0.243200
vn -0.450300 0.866500 -0.215500
vn -0.110100 0.929200 -0.352700
vn -0.147900 0.924400 -0.351500
vn -0.454500 0.858400 -0.237900
vn -0.163900 0.918300 -0.360200
vn 0.182100 0.869000 -0.460000
vn 0.164100 0.878000 -0.449500
vn -0.065800 0.954300 0.291400
vn -0.078200 0.957100 0.279000
vn -0.407800 0.867100 0.286100
vn -0.387900 0.877900 0.280700
vn -0.099300 0.958500 0.267200
vn 0.247500 0.929900 0.272000
vn 0.249300 0.935500 0.250400
vn -0.415600 0.903000 -0.108900
vn -0.399700 0.909000 -0.118000
vn -0.263600 0.838200 -0.477300
vn -0.268400 0.849900 -0.453500
vn -0.378100 0.914400 -0.144300
vn -0.500300 0.834200 0.231800
vn -0.478900 0.843800 0.242100
vn 0.044900 0.822200 0.567400
vn -0.222400 0.905300 0.361900
vn -0.239000 0.897700 0.370000
vn 0.029100 0.810700 0.584700
vn -0.258900 0.893700 0.366300
vn -0.500200 0.857300 0.121600
vn -0.482700 0.865600 0.132800
vn 0.199700 0.890800 -0.408100
vn 0.181500 0.895300 -0.406800
vn 0.475000 0.855000 -0.207900
vn 0.456300 0.863200 -0.215800
vn 0.170800 0.903100 -0.394000
vn -0.112400 0.811800 -0.573000
vn -0.125200 0.823200 -0.553700
vn 0.441100 0.884300 -0.152900
vn 0.205800 0.967600 0.146100
vn 0.240300 0.963100 0.121300
vn 0.455600 0.879900 -0.134600
vn 0.262800 0.957900 0.115700
vn 0.006100 0.917200 0.398300
vn 0.017100 0.925600 0.378000
vn 0.465300 0.884200 -0.040000
vn 0.454300 0.890000 -0.040000
vn 0.438900 0.826500 0.352300
vn 0.436200 0.837900 0.328000
vn 0.440000 0.897600 -0.027100
vn 0.428200 0.804300 -0.411900
vn 0.404200 0.815900 -0.413300
usemtl farm_tree
s 1
f 1/1/1 2/2/2 3/3/3
f 4/4/4 1/5/1 3/6/3
f 5/7/5 1/5/1 4/4/4
f 6/8/6 1/5/1 5/7/5
f 7/9/7 1/5/1 6/8/6
f 8/10/8 1/5/1 7/9/7
f 9/11/9 1/1/1 8/12/8
f 10/13/10 1/1/1 9/11/9
f 11/14/11 1/1/1 10/13/10
f 2/2/2 1/1/1 11/14/11
f 11/14/11 12/15/12 13/16/13 2/2/2
f 12/15/12 14/17/14 15/18/15 13/16/13
f 10/13/10 16/19/16 12/15/12 11/14/11
f 16/19/16 17/20/17 14/17/14 12/15/12
f 9/11/9 18/21/18 16/19/16 10/13/10
f 18/21/18 19/22/19 17/20/17 16/19/16
f 8/12/8 20/23/20 18/21/18 9/11/9
f 20/23/20 21/24/21 19/22/19 18/21/18
f 7/9/7 22/25/22 20/26/20 8/10/8
f 22/25/22 23/27/23 21/28/21 20/26/20
f 6/8/6 24/29/24 22/25/22 7/9/7
f 24/29/24 25/30/25 23/27/23 22/25/22
f 5/7/5 26/31/26 24/29/24 6/8/6
f 26/31/26 27/32/27 25/30/25 24/29/24
f 4/4/4 28/33/28 26/31/26 5/7/5
f 28/33/28 29/34/29 27/32/27 26/31/26
f 3/6/3 30/35/30 28/33/28 4/4/4
f 30/35/30 31/36/31 29/34/29 28/33/28
f 2/2/2 13/16/13 30/37/30 3/3/3
f 13/16/13 15/18/15 31/38/31 30/37/30
f 32/39/32 33/40/33 34/41/34 35/42/35
f 32/39/32 36/42/36 37/41/37 33/40/33
f 33/40/33 38/43/38 39/44/39 34/41/34
f 40/44/40 38/43/38 33/40/33 37/41/37
f 35/42/35 34/41/34 41/45/41 42/46/42
f 43/45/43 37/41/37 36/42/36 44/46/44
f 34/41/34 39/44/39 45/47/45 41/45/41
f 46/47/46 40/44/40 37/41/37 43/45/43
f 42/46/42 41/45/41 43/48/43 44/49/44
f 41/45/41 45/47/45 47/50/47 43/48/43
f 48/51/48 49/52/49 50/53/50
f 51/54/51 48/51/48 50/53/50 52/55/52
f 50/53/50 49/52/49 53/56/53
f 52/55/52 50/53/50 53/56/53 54/57/54
f 55/55/55 56/53/56 57/56/57 58/57/58
f 56/53/56 59/52/59 57/56/57
f 60/54/60 61/51/61 56/53/56 55/55/55
f 61/51/61 59/52/59 56/53/56
f 62/51/62 63/52/63 64/53/64
f 65/54/65 62/51/62 64/53/64 66/55/66
f 64/53/64 63/52/63 67/56/67
f 66/55/66 64/53/64 67/56/67 68/57/68
f 69/55/69 70/53/70 71/56/71 72/57/72
f 70/53/70 73/52/73 71/56/71
f 74/54/74 75/51/75 70/53/70 69/55/69
f 75/51/75 73/52/73 70/53/70
f 76/51/76 77/52/77 78/53/78
f 79/54/79 76/51/76 78/53/78 80/55/80
f 78/53/78 77/52/77 81/56/81
f 80/55/80 78/53/78 81/56/81 82/57/82
f 83/55/83 84/53/84 85/56/85 86/57/86
f 84/53/84 87/52/87 85/56/85
f 88/54/88 89/51/89 84/53/84 83/55/83
f 89/51/89 87/52/87 84/53/84
f 90/51/90 91/52/91 92/53/92
f 93/54/93 90/51/90 92/53/92 94/55/94
f 92/53/92 91/52/91 95/56/95
f 94/55/94 92/53/92 95/56/95 96/57/96
f 97/55/97 98/53/98 99/56/99 100/57/100
f 98/53/98 101/52/101 99/56/99
f 102/54/102 103/51/103 98/53/98 97/55/97
f 103/51/103 101/52/101 98/53/98
f 104/51/104 105/52/105 106/53/106
f 107/54/107 104/51/104 106/53/106 108/55/108
f 106/53/106 105/52/105 109/56/109
f 108/55/108 106/53/106 109/56/109 110/57/110
f 111/55/111 112/53/112 113/56/113 114/57/114
f 112/53/112 115/52/115 113/56/113
f 116/54/116 117/51/117 112/53/112 111/55/111
f 117/51/117 115/52/115 112/53/112
f 118/51/118 119/52/119 120/53/120
f 121/54/121 118/51/118 120/53/120 122/55/122
f 120/53/120 119/52/119 123/56/123
f 122/55/122 120/53/120 123/56/123 124/57/124
f 125/55/125 126/53/126 127/56/127 128/57/128
f 126/53/126 129/52/129 127/56/127
f 130/54/130 131/51/131 126/53/126 125/55/125
f 131/51/131 129/52/129 126/53/126
f 132/51/132 133/52/133 134/53/134
f 135/54/135 132/51/132 134/53/134 136/55/136
f 134/53/134 133/52/133 137/56/137
f 136/55/136 134/53/134 137/56/137 138/57/138
f 139/55/139 140/53/140 141/56/141 142/57/142
f 140/53/140 143/52/143 141/56/141
f 144/54/144 145/51/145 140/53/140 139/55/139
f 145/51/145 143/52/143 140/53/140
f 146/51/146 147/52/147 148/53/148
f 149/54/149 146/51/146 148/53/148 150/55/150
f 148/53/148 147/52/147 151/56/151
f 150/55/150 148/53/148 151/56/151 152/57/152
f 153/51/153 154/52/154 155/53/155
f 156/54/156 153/51/153 155/53/155 157/55/157
f 155/53/155 154/52/154 158/56/158
f 157/55/157 155/53/155 158/56/158 159/57/159
f 160/55/160 161/53/161 162/56/162 163/57/163
f 161/53/161 164/52/164 162/56/162
f 165/54/165 166/51/166 161/53/161 160/55/160
f 166/51/166 164/52/164 161/53/161
f 167/51/167 168/52/168 169/53/169
f 170/54/170 167/51/167 169/53/169 171/55/171
f 169/53/169 168/52/168 172/56/172
f 171/55/171 169/53/169 172/56/172 173/57/173
f 174/55/174 175/53/175 176/56/176 177/57/177
f 175/53/175 178/52/178 176/56/176
f 179/54/179 180/51/180 175/53/175 174/55/174
f 180/51/180 178/52/178 175/53/175
f 181/55/181 182/53/182 183/56/183 184/57/184
f 182/53/182 185/52/185 183/56/183
f 186/54/186 187/51/187 182/53/182 181/55/181
f 187/51/187 185/52/185 182/53/182
f 188/51/188 189/52/189 190/53/190
f 191/54/191 188/51/188 190/53/190 192/55/192
f 190/53/190 189/52/189 193/56/193
f 192/55/192 190/53/190 193/56/193 194/57/194
f 195/55/195 196/53/196 197/56/197 198/57/198
f 196/53/196 199/52/199 197/56/197
f 200/54/200 201/51/201 196/53/196 195/55/195
f 201/51/201 199/52/199 196/53/196
f 202/51/202 203/52/203 204/53/204
f 205/54/205 202/51/202 204/53/204 206/55/206
f 204/53/204 203/52/203 207/56/207
f 206/55/206 204/53/204 207/56/207 208/57/208
f 209/55/209 210/53/210 211/56/211 212/57/212
f 210/53/210 213/52/213 211/56/211
f 214/54/214 215/51/215 210/53/210 209/55/209
f 215/51/215 213/52/213 210/53/210
