# Blender v2.76 (sub 0) OBJ File: 'farm_stump_01.blend'
# www.blender.org
mtllib farm_stump_01.mtl
o farm_stump_farm_stump_mesh
v 0.016651 0.499953 0.033116
v -0.017412 0.389009 0.040520
v 0.085776 0.379917 -0.012806
v 0.160920 0.436116 -0.051639
v 0.008331 0.499953 0.017018
v 0.105358 0.566297 -0.012727
v 0.057864 0.641322 0.011817
v -0.026390 0.578309 0.055359
v 0.198330 0.550361 -0.070972
v -0.034709 0.578309 0.039260
v 0.049545 0.641322 -0.004281
v 0.097039 0.566297 -0.028825
v 0.024398 0.675577 0.003917
v 0.318665 0.933982 -0.169559
v 0.363579 0.857890 -0.192769
v 0.048637 0.634512 -0.008609
v -0.112041 0.593539 0.060634
v -0.081244 0.541364 0.044719
v 0.036690 0.675577 0.027703
v -0.089319 0.593539 0.104601
v -0.058522 0.541364 0.088685
v 0.060929 0.634512 0.015177
v 0.347595 0.933982 -0.113578
v 0.392509 0.857890 -0.136789
v -0.018907 0.412680 -0.266905
v -0.029925 0.177831 -0.248371
v -0.029925 0.412680 0.007308
v -0.049679 0.412680 -0.265818
v -0.207328 0.412680 -0.200528
v -0.195112 0.177831 -0.186480
v -0.029925 -0.004910 -0.357140
v -0.143279 -0.004910 -0.294792
v 0.247618 0.412680 0.007308
v 0.154138 0.412680 -0.200528
v -0.300809 0.412680 0.007308
v -0.292550 -0.004910 -0.086795
v -0.366790 -0.004910 0.007308
v -0.282274 0.177831 0.007308
v -0.297054 -0.004910 -0.300081
v 0.317475 -0.004910 -0.107021
v 0.259214 -0.004910 -0.251875
v 0.141922 0.177831 -0.186480
v 0.229084 0.177831 0.007308
v 0.387849 -0.004910 0.007308
v 0.156473 0.412680 0.215144
v -0.030167 0.412680 0.281521
v 0.095106 -0.004910 -0.289245
v 0.122669 -0.004910 0.298104
v 0.275263 -0.004910 0.268725
v 0.144099 0.177831 0.201096
v -0.029925 -0.004910 0.378404
v -0.029925 0.177831 0.262987
v -0.209664 0.412680 0.215144
v -0.149841 -0.004910 0.293201
v -0.197289 0.177831 0.201096
v -0.307599 -0.004910 0.298692
v -0.302722 -0.004910 0.128430
v 0.301709 -0.004910 0.156120
vt 0.790040 0.465284
vt 0.824135 0.491739
vt 0.790932 0.519430
vt 0.753266 0.520639
vt 0.745526 0.466839
vt 0.791324 0.519625
vt 0.753550 0.520465
vt 0.715904 0.495231
vt 0.745576 0.466712
vt 0.745596 0.432525
vt 0.787828 0.431170
vt 0.745348 0.432460
vt 0.787696 0.431674
vt 0.824018 0.491654
vt 0.795681 0.430524
vt 0.797023 0.461367
vt 0.738317 0.465457
vt 0.735884 0.431477
vt 0.757641 0.638529
vt 0.754771 0.769208
vt 0.728279 0.767918
vt 0.738034 0.640197
vt 0.749272 0.560467
vt 0.723042 0.566184
vt 0.771981 0.638080
vt 0.771083 0.558696
vt 0.798198 0.560187
vt 0.791796 0.639081
vt 0.772983 0.768486
vt 0.799078 0.766921
vt 0.805820 0.639726
vt 0.817737 0.765994
vt 0.821001 0.562995
vt 0.772261 0.537273
vt 0.799376 0.538764
vt 0.800158 0.784920
vt 0.774063 0.786485
vt 0.711075 0.780902
vt 0.721984 0.780056
vt 0.722810 0.884789
vt 0.735108 0.781172
vt 0.803417 0.815611
vt 0.993342 0.472941
vt 0.992380 0.523524
vt 0.911721 0.534501
vt 0.906936 0.469540
vt 0.839640 0.529769
vt 0.839750 0.502887
vt 0.624028 0.888489
vt 0.643918 0.816991
vt 0.827379 0.881711
vt 0.850622 0.420591
vt 0.854171 0.385152
vt 0.910102 0.406384
vt 0.823944 0.462597
vt 0.991914 0.407303
vt 0.835762 0.640465
vt 0.833517 0.595235
vt 0.907596 0.593972
vt 0.907993 0.671722
vt 0.826743 0.677305
vt 0.986150 0.597153
vt 0.986109 0.665490
vt 0.645661 0.960267
vt 0.723527 0.993728
vt 0.989655 0.542434
vt 0.848038 0.552529
vt 0.843048 0.798107
vt 0.829451 0.756424
vt 0.905315 0.768959
vt 0.838375 0.840165
vt 0.911976 0.843432
vt 0.987765 0.767949
vt 0.990178 0.847054
vt 0.803677 0.954505
vt 0.847646 0.882111
vt 0.911393 0.909476
vt 0.835904 0.926272
vt 0.991319 0.904163
vt 0.847079 0.967275
vt 0.849241 1.002290
vt 0.913853 0.996445
vt 0.993805 0.995117
vt 0.842639 0.722594
vn 0.452100 -0.079500 0.888400
vn 0.488700 -0.051700 0.870900
vn -0.427700 -0.051700 -0.902400
vn -0.463200 -0.079500 -0.882700
vn 0.459100 0.000000 0.888400
vn 0.505400 -0.041900 0.861900
vn -0.459100 -0.000000 -0.888400
vn -0.410700 -0.041900 -0.910800
vn 0.723500 0.580300 -0.373900
vn 0.128100 0.989500 -0.066200
vn -0.755600 -0.525900 0.390500
vn -0.850100 0.290300 0.439400
vn -0.660000 0.595700 -0.457800
vn -0.155300 0.798700 -0.581300
vn 0.429200 -0.180500 -0.884900
vn 0.029500 -0.598300 -0.800700
vn -0.964700 0.199700 -0.171400
vn -0.405700 -0.786600 -0.465500
vn -0.008400 0.592900 0.805200
vn -0.422000 0.198700 0.884500
vn 0.141700 -0.788600 0.598300
vn 0.668500 -0.598100 0.441900
vn 0.384400 0.799500 0.461400
vn 0.970500 -0.180100 0.160200
vn -0.434600 0.547300 -0.715200
vn -0.017200 0.229500 -0.973100
vn -0.000200 0.999900 -0.013300
vn 0.403200 0.554800 -0.727800
vn -0.551100 0.601100 -0.578800
vn -0.686800 0.224500 -0.691300
vn 0.031000 0.489800 -0.871300
vn -0.212800 0.477400 -0.852500
vn 0.802700 0.596300 -0.003700
vn 0.546400 0.599400 -0.584900
vn -0.802700 0.596300 -0.003700
vn -0.877100 0.363700 -0.313500
vn -0.932400 0.360300 -0.026600
vn -0.988200 0.151500 -0.022900
vn -0.533800 0.640800 -0.551700
vn 0.723300 0.586900 -0.363800
vn 0.580400 0.552400 -0.598300
vn 0.626900 0.256200 -0.735800
vn 0.945200 0.326300 -0.011200
vn 0.754800 0.655800 -0.008500
vn 0.545900 0.597700 0.587100
vn -0.005000 0.608000 0.793900
vn 0.317200 0.439200 -0.840500
vn 0.278100 0.453000 0.847000
vn 0.560900 0.582200 0.588600
vn 0.639300 0.272600 0.719000
vn -0.022600 0.467600 0.883600
vn -0.021200 0.212700 0.976900
vn -0.549000 0.598700 0.583200
vn -0.242700 0.438200 0.865500
vn -0.679400 0.226400 0.697900
vn -0.556300 0.627000 0.545200
vn -0.871200 0.424400 0.246900
vn 0.737400 0.593900 0.321800
usemtl farm_stump
s off
f 1/1/1 2/2/1 3/3/1
f 1/1/2 3/3/2 4/4/2
f 5/5/3 4/6/3 3/7/3
f 5/5/4 3/7/4 2/8/4
f 1/1/5 6/9/5 7/10/5 8/11/5
f 6/9/6 1/1/6 4/4/6 9/8/6
f 10/12/7 11/13/7 12/1/7 5/5/7
f 5/5/8 12/1/8 9/14/8 4/6/8
f 12/1/9 11/13/9 7/15/9 6/16/9
f 9/14/10 12/1/10 6/16/10
f 1/17/11 8/18/11 10/12/11 5/5/11
f 2/8/12 1/17/12 5/5/12
s 1
f 13/19/13 14/20/14 15/21/15 16/22/16
f 17/23/17 13/19/13 16/22/16 18/24/18
f 19/25/19 20/26/20 21/27/21 22/28/22
f 23/29/23 19/25/19 22/28/22 24/30/24
f 13/19/13 17/23/17 20/26/20 19/25/19
f 14/20/14 13/19/13 19/25/19 23/29/23
f 16/31/16 15/32/15 24/30/24 22/28/22
f 18/33/18 16/31/16 22/28/22 21/27/21
f 21/27/21 20/26/20 17/34/17 18/35/18
f 15/36/15 14/37/14 23/29/23 24/30/24
f 25/38/25 26/39/26 27/40/27
f 28/41/28 27/40/27 26/39/26
f 28/41/28 29/42/29 27/40/27
f 29/43/29 28/44/28 26/45/26 30/46/30
f 30/46/30 26/45/26 31/47/31 32/48/32
f 33/49/33 34/50/34 25/38/25 27/40/27
f 27/40/27 29/42/29 35/51/35
f 36/52/36 37/53/37 38/54/38 30/46/30
f 39/55/39 36/52/36 30/46/30
f 30/46/30 38/54/38 35/56/35 29/43/29
f 40/57/40 41/58/41 42/59/42 43/60/43
f 44/61/44 40/57/40 43/60/43
f 43/60/43 42/59/42 34/62/34 33/63/33
f 45/64/45 33/49/33 27/40/27
f 46/65/46 45/64/45 27/40/27
f 25/66/25 34/62/34 42/59/42 26/45/26
f 41/58/41 47/67/47 26/45/26 42/59/42
f 26/45/26 47/67/47 31/47/31
f 48/68/48 49/69/49 50/70/50
f 51/71/51 48/68/48 50/70/50 52/72/52
f 52/72/52 50/70/50 45/73/45 46/74/46
f 53/75/53 46/65/46 27/40/27
f 53/75/53 27/40/27 35/51/35
f 30/46/30 32/48/32 39/55/39
f 54/76/54 51/71/51 52/72/52 55/77/55
f 56/78/56 54/76/54 55/77/55
f 55/77/55 52/72/52 46/74/46 53/79/53
f 57/80/57 56/78/56 55/77/55
f 37/81/37 57/80/57 55/77/55 38/82/38
f 38/82/38 55/77/55 53/79/53 35/83/35
f 58/84/58 44/61/44 43/60/43
f 49/69/49 58/84/58 43/60/43 50/70/50
f 50/70/50 43/60/43 33/63/33 45/73/45
