# Blender v2.76 (sub 0) OBJ File: 'Plane04.blend'
# www.blender.org
mtllib Fence.mtl
o Fence.010_Cylinder.000
v -1.469637 -4.240992 -0.712877
v -1.469637 -4.240992 0.620527
v -1.469637 -5.921325 0.620524
v -1.469637 -5.921319 -0.712880
v -34.717533 -4.240981 -0.712871
v -34.717533 -4.240993 0.620534
v -34.717533 -6.940485 0.620523
v -34.717533 -6.940479 -0.712877
v 34.499191 9.391033 -0.712877
v 34.499191 9.391033 0.620527
v 34.499191 7.710701 0.620524
v 34.499191 7.710707 -0.712880
v 1.251296 9.391045 -0.712871
v 1.251296 9.391033 0.620534
v 1.251296 6.691541 0.620523
v 1.251296 6.691546 -0.712877
v 1.434797 -6.652153 -0.712877
v 1.434797 -6.652153 0.620527
v 1.434797 -4.971821 0.620524
v 1.434797 -4.971826 -0.712880
v 34.682690 -6.652162 -0.712871
v 34.682690 -6.652149 0.620534
v 34.682690 -3.952658 0.620523
v 34.682690 -3.952662 -0.712877
v -34.698296 7.472599 -0.712877
v -34.698296 7.472599 0.620527
v -34.698296 9.152930 0.620524
v -34.698296 9.152925 -0.712880
v -1.450405 7.472590 -0.712871
v -1.450405 7.472602 0.620534
v -1.450405 10.172094 0.620523
v -1.450405 10.172089 -0.712877
v -35.271332 -11.985377 -0.975891
v -35.098385 -11.985377 -0.765153
v -34.969872 -11.985377 -0.524725
v -34.890732 -11.985377 -0.263845
v -34.864014 -11.985377 0.007461
v -34.890732 -11.985377 0.278767
v -34.969872 -11.985377 0.539648
v -35.098385 -11.985377 0.780076
v -35.271332 -11.985377 0.990813
v -35.482063 -11.985377 1.163761
v -35.722492 -11.985377 1.292273
v -35.983376 -11.985377 1.371410
v -36.254681 -11.985377 1.398131
v -36.525990 -11.985377 1.371410
v -36.786869 -11.985377 1.292273
v -37.027298 -11.985377 1.163761
v -37.238033 -11.985377 0.990813
v -37.410980 -11.985377 0.780075
v -37.539494 -11.985377 0.539647
v -37.618629 -11.985377 0.278766
v -37.645348 -11.985377 0.007460
v -37.618629 -11.985377 -0.263846
v -37.539494 -11.985377 -0.524726
v -37.410980 -11.985377 -0.765155
v -37.238033 -11.985377 -0.975892
v -37.027294 -11.985377 -1.148839
v -36.786861 -11.985377 -1.277351
v -36.525990 -11.985377 -1.356488
v -36.254681 -11.985377 -1.383209
v -35.983376 -11.985377 -1.356487
v -35.722492 -11.985377 -1.277349
v -35.482063 -11.985377 -1.148837
v -34.973949 11.502904 -1.273268
v -34.748699 11.502904 -0.998800
v -34.581322 11.502904 -0.685662
v -34.478256 11.502904 -0.345888
v -34.443455 11.502904 0.007466
v -34.478256 11.502904 0.360818
v -34.581329 11.502904 0.700591
v -34.748699 11.502904 1.013728
v -34.973949 11.502904 1.288194
v -35.248421 11.502904 1.513443
v -35.561558 11.502904 1.680818
v -35.901329 11.502904 1.783887
v -36.254681 11.502904 1.818690
v -36.608028 11.502904 1.783888
v -36.947807 11.502904 1.680820
v -37.260944 11.502904 1.513445
v -37.535408 11.502904 1.288196
v -37.760658 11.502904 1.013730
v -37.928036 11.502904 0.700594
v -38.031109 11.502904 0.360821
v -38.065910 11.502904 0.007469
v -38.031109 11.502904 -0.345884
v -37.928043 11.502904 -0.685657
v -37.760674 11.502904 -0.998795
v -37.535423 11.502904 -1.273263
v -37.260956 11.502904 -1.498514
v -36.947823 11.502904 -1.665891
v -36.608051 11.502904 -1.768962
v -36.254696 11.502904 -1.803767
v -35.901340 11.502904 -1.768967
v -35.561569 11.502904 -1.665901
v -35.248428 11.502904 -1.498528
v -36.254681 -11.985377 0.007461
v -36.254681 11.502904 0.007462
v 37.273514 -11.985384 -0.975891
v 37.446461 -11.985384 -0.765153
v 37.574974 -11.985384 -0.524725
v 37.654110 -11.985384 -0.263845
v 37.680832 -11.985384 0.007461
v 37.654110 -11.985384 0.278767
v 37.574974 -11.985384 0.539648
v 37.446461 -11.985384 0.780076
v 37.273514 -11.985384 0.990814
v 37.062775 -11.985384 1.163761
v 36.822350 -11.985384 1.292273
v 36.561470 -11.985384 1.371410
v 36.290161 -11.985384 1.398131
v 36.018856 -11.985384 1.371410
v 35.757973 -11.985384 1.292273
v 35.517548 -11.985384 1.163761
v 35.306808 -11.985384 0.990813
v 35.133862 -11.985384 0.780075
v 35.005348 -11.985384 0.539647
v 34.926212 -11.985384 0.278766
v 34.899490 -11.985384 0.007460
v 34.926212 -11.985384 -0.263846
v 35.005352 -11.985384 -0.524726
v 35.133862 -11.985384 -0.765155
v 35.306812 -11.985384 -0.975892
v 35.517548 -11.985384 -1.148840
v 35.757977 -11.985384 -1.277351
v 36.018856 -11.985384 -1.356488
v 36.290165 -11.985384 -1.383209
v 36.561470 -11.985384 -1.356487
v 36.822350 -11.985384 -1.277349
v 37.062778 -11.985384 -1.148837
v 37.570896 11.502899 -1.273268
v 37.796143 11.502899 -0.998800
v 37.963520 11.502899 -0.685662
v 38.066589 11.502899 -0.345888
v 38.101391 11.502899 0.007466
v 38.066589 11.502899 0.360818
v 37.963520 11.502899 0.700591
v 37.796143 11.502899 1.013728
v 37.570892 11.502899 1.288194
v 37.296425 11.502899 1.513443
v 36.983288 11.502899 1.680818
v 36.643517 11.502899 1.783888
v 36.290161 11.502899 1.818690
v 35.936810 11.502899 1.783888
v 35.597038 11.502899 1.680820
v 35.283901 11.502899 1.513445
v 35.009430 11.502899 1.288197
v 34.784184 11.502899 1.013730
v 34.616806 11.502899 0.700594
v 34.513737 11.502899 0.360821
v 34.478931 11.502899 0.007469
v 34.513737 11.502899 -0.345884
v 34.616802 11.502899 -0.685657
v 34.784176 11.502899 -0.998795
v 35.009422 11.502899 -1.273263
v 35.283890 11.502899 -1.498514
v 35.597023 11.502899 -1.665891
v 35.936794 11.502899 -1.768962
v 36.290146 11.502899 -1.803767
v 36.643501 11.502899 -1.768967
v 36.983273 11.502899 -1.665901
v 37.296413 11.502899 -1.498528
v 36.290161 -11.985384 0.007461
v 36.290161 11.502899 0.007462
v 0.976196 -11.985380 -0.975891
v 1.149146 -11.985380 -0.765153
v 1.277659 -11.985380 -0.524725
v 1.356794 -11.985380 -0.263845
v 1.383516 -11.985380 0.007461
v 1.356794 -11.985380 0.278767
v 1.277659 -11.985380 0.539648
v 1.149146 -11.985380 0.780076
v 0.976196 -11.985380 0.990813
v 0.765459 -11.985380 1.163761
v 0.525033 -11.985380 1.292273
v 0.264152 -11.985380 1.371410
v -0.007155 -11.985380 1.398131
v -0.278462 -11.985380 1.371410
v -0.539342 -11.985380 1.292273
v -0.779768 -11.985380 1.163761
v -0.990509 -11.985380 0.990813
v -1.163455 -11.985380 0.780075
v -1.291968 -11.985380 0.539647
v -1.371103 -11.985380 0.278766
v -1.397825 -11.985380 0.007460
v -1.371103 -11.985380 -0.263846
v -1.291964 -11.985380 -0.524726
v -1.163455 -11.985380 -0.765155
v -0.990505 -11.985380 -0.975892
v -0.779768 -11.985380 -1.148839
v -0.539339 -11.985380 -1.277351
v -0.278458 -11.985380 -1.356488
v -0.007151 -11.985380 -1.383209
v 0.264152 -11.985380 -1.356487
v 0.525033 -11.985380 -1.277349
v 0.765463 -11.985380 -1.148837
v 1.273579 11.502901 -1.273268
v 1.498828 11.502901 -0.998800
v 1.666202 11.502901 -0.685662
v 1.769272 11.502901 -0.345888
v 1.804074 11.502901 0.007466
v 1.769272 11.502901 0.360818
v 1.666202 11.502901 0.700591
v 1.498825 11.502901 1.013728
v 1.273575 11.502901 1.288194
v 0.999111 11.502901 1.513443
v 0.685971 11.502902 1.680818
v 0.346200 11.502902 1.783887
v -0.007155 11.502902 1.818690
v -0.360506 11.502902 1.783888
v -0.700281 11.502902 1.680820
v -1.013416 11.502902 1.513445
v -1.287884 11.502902 1.288196
v -1.513134 11.502902 1.013730
v -1.680508 11.502902 0.700594
v -1.783581 11.502902 0.360821
v -1.818383 11.502902 0.007469
v -1.783581 11.502902 -0.345884
v -1.680515 11.502902 -0.685657
v -1.513141 11.502902 -0.998795
v -1.287895 11.502902 -1.273263
v -1.013427 11.502902 -1.498514
v -0.700291 11.502902 -1.665891
v -0.360520 11.502902 -1.768962
v -0.007168 11.502902 -1.803767
v 0.346186 11.502902 -1.768967
v 0.685958 11.502902 -1.665901
v 0.999097 11.502901 -1.498528
v -0.007155 -11.985380 0.007461
v -0.007155 11.502902 0.007462
vt 0.860352 0.081391
vt 0.999139 0.081268
vt 0.999675 0.131778
vt 0.860888 0.131901
vt 0.860352 0.081145
vt 0.861213 0.000000
vt 1.000000 0.000123
vt 0.700741 0.000000
vt 0.711357 0.999412
vt 0.572570 0.999535
vt 0.561954 0.000123
vt 0.291594 0.999661
vt 0.280977 0.000249
vt 0.561954 0.000000
vt 0.466491 0.999506
vt 0.850145 0.000000
vt 0.860352 0.999882
vt 0.721565 1.000000
vt 0.711357 0.000118
vt 0.000000 0.999412
vt 0.010618 0.000000
vt 0.185515 0.000155
vt 0.280977 0.999661
vt 0.839073 0.212252
vt 0.809823 0.268869
vt 0.791574 0.264431
vt 0.869398 0.076686
vt 0.994981 0.054317
vt 1.000000 0.069133
vt 0.775150 0.257987
vt 0.985136 0.040361
vt 0.761183 0.249786
vt 0.970843 0.027801
vt 0.750208 0.240142
vt 0.952652 0.017120
vt 0.742649 0.229427
vt 0.931261 0.008728
vt 0.738796 0.218051
vt 0.907493 0.002947
vt 0.738796 0.206453
vt 0.882261 0.000000
vt 0.742649 0.195077
vt 0.856535 0.000000
vt 0.750208 0.184362
vt 0.831303 0.002947
vt 0.761183 0.174718
vt 0.807535 0.008728
vt 0.775150 0.166517
vt 0.786144 0.017120
vt 0.791574 0.160073
vt 0.767953 0.027801
vt 0.809823 0.155635
vt 0.753660 0.040361
vt 0.829196 0.153372
vt 0.743815 0.054317
vt 0.848949 0.153372
vt 0.738796 0.069133
vt 0.868322 0.155635
vt 0.738796 0.084239
vt 0.886572 0.160073
vt 0.743815 0.099054
vt 0.902996 0.166517
vt 0.753660 0.113010
vt 0.916963 0.174718
vt 0.767952 0.125570
vt 0.927937 0.184362
vt 0.786144 0.136252
vt 0.935496 0.195077
vt 0.807534 0.144644
vt 0.939350 0.206453
vt 0.831302 0.150425
vt 0.939350 0.218051
vt 0.856534 0.153372
vt 0.935496 0.229427
vt 0.882260 0.153372
vt 0.927937 0.240142
vt 0.907492 0.150425
vt 0.916963 0.249786
vt 0.931260 0.144644
vt 0.902995 0.257987
vt 0.952651 0.136252
vt 0.886572 0.264431
vt 0.970843 0.125571
vt 0.868322 0.268869
vt 0.985136 0.113011
vt 0.848949 0.271132
vt 0.994981 0.099055
vt 0.829196 0.271132
vt 1.000000 0.084240
vt 0.660198 0.999482
vt 0.668407 0.000046
vt 0.693639 0.000146
vt 0.679571 0.999559
vt 0.717406 0.000296
vt 0.697820 0.999674
vt 0.738796 0.000490
vt 0.714243 0.999823
vt 0.405922 0.999719
vt 0.387589 0.000355
vt 0.405781 0.000190
vt 0.419890 0.999593
vt 0.427172 0.000073
vt 0.436314 0.999503
vt 0.450941 0.000009
vt 0.454564 0.999453
vt 0.476173 0.000000
vt 0.473937 0.999446
vt 0.501899 0.000046
vt 0.493690 0.999482
vt 0.527131 0.000146
vt 0.513063 0.999559
vt 0.550898 0.000296
vt 0.531312 0.999674
vt 0.572288 0.000490
vt 0.547735 0.999823
vt 0.018334 0.999719
vt 0.000000 0.000355
vt 0.018192 0.000190
vt 0.032302 0.999593
vt 0.039584 0.000073
vt 0.048726 0.999503
vt 0.063352 0.000009
vt 0.066976 0.999454
vt 0.088584 0.000000
vt 0.086349 0.999447
vt 0.114310 0.000046
vt 0.106102 0.999482
vt 0.139542 0.000146
vt 0.125475 0.999559
vt 0.163309 0.000296
vt 0.143724 0.999674
vt 0.184699 0.000490
vt 0.160147 0.999823
vt 0.202889 0.000721
vt 0.174113 1.000000
vt 0.363036 0.000000
vt 0.387588 0.999333
vt 0.366199 0.999527
vt 0.346612 0.000149
vt 0.342431 0.999676
vt 0.328363 0.000264
vt 0.317200 0.999776
vt 0.308990 0.000341
vt 0.291474 0.999823
vt 0.289238 0.000376
vt 0.266242 0.999814
vt 0.269864 0.000369
vt 0.242473 0.999749
vt 0.251615 0.000320
vt 0.221082 0.999633
vt 0.235190 0.000230
vt 0.202889 0.999467
vt 0.221222 0.000104
vt 0.586398 0.999593
vt 0.572288 0.000190
vt 0.593679 0.000073
vt 0.602822 0.999503
vt 0.617447 0.000009
vt 0.621072 0.999454
vt 0.642679 0.000000
vt 0.640445 0.999446
vn 1.000000 -0.000000 0.000000
vn -1.000000 0.000000 0.000000
vn 0.000000 1.000000 0.000000
vn 0.000000 -0.000000 1.000000
vn 0.030600 -0.999500 -0.000000
vn -0.000000 0.000000 -1.000000
vn -0.000000 -1.000000 0.000000
vn -0.030600 0.999500 -0.000000
vn 0.772900 -0.017800 -0.634300
vn 0.881800 -0.017800 -0.471300
vn 0.956800 -0.017800 -0.290200
vn 0.995000 -0.017800 -0.098000
vn 0.995000 -0.017800 0.098000
vn 0.956800 -0.017800 0.290200
vn 0.881800 -0.017800 0.471300
vn 0.772900 -0.017800 0.634300
vn 0.634300 -0.017800 0.772900
vn 0.471300 -0.017800 0.881800
vn 0.290200 -0.017800 0.956800
vn 0.098000 -0.017800 0.995000
vn -0.098000 -0.017800 0.995000
vn -0.290200 -0.017800 0.956800
vn -0.471300 -0.017800 0.881800
vn -0.634300 -0.017800 0.772900
vn -0.772900 -0.017800 0.634300
vn -0.881800 -0.017800 0.471300
vn -0.956800 -0.017800 0.290200
vn -0.995000 -0.017800 0.098000
vn -0.995000 -0.017800 -0.098000
vn -0.956800 -0.017800 -0.290200
vn -0.881800 -0.017800 -0.471300
vn -0.772900 -0.017800 -0.634300
vn -0.634300 -0.017800 -0.772900
vn -0.471300 -0.017800 -0.881800
vn -0.290200 -0.017800 -0.956800
vn -0.098000 -0.017800 -0.995000
vn 0.098000 -0.017800 -0.995000
vn 0.290200 -0.017800 -0.956800
vn 0.471300 -0.017800 -0.881800
vn 0.634300 -0.017800 -0.772900
usemtl RockMtl
s off
f 1/1/1 2/2/1 3/3/1 4/4/1
f 5/5/2 8/6/2 7/7/2 6/2/2
f 1/8/3 5/9/3 6/10/3 2/11/3
f 2/12/4 6/13/4 7/14/4 3/15/4
f 3/16/5 7/17/5 8/18/5 4/19/5
f 5/20/6 1/21/6 4/22/6 8/23/6
f 9/1/1 10/2/1 11/3/1 12/4/1
f 13/5/2 16/6/2 15/7/2 14/2/2
f 9/8/3 13/9/3 14/10/3 10/11/3
f 10/12/4 14/13/4 15/14/4 11/15/4
f 11/16/5 15/17/5 16/18/5 12/19/5
f 13/20/6 9/21/6 12/22/6 16/23/6
f 17/1/2 18/2/2 19/3/2 20/4/2
f 21/5/1 24/6/1 23/7/1 22/2/1
f 17/8/7 21/9/7 22/10/7 18/11/7
f 18/12/4 22/13/4 23/14/4 19/15/4
f 19/16/8 23/17/8 24/18/8 20/19/8
f 21/20/6 17/21/6 20/22/6 24/23/6
f 25/1/2 26/2/2 27/3/2 28/4/2
f 29/5/1 32/6/1 31/7/1 30/2/1
f 25/8/7 29/9/7 30/10/7 26/11/7
f 26/12/4 30/13/4 31/14/4 27/15/4
f 27/16/8 31/17/8 32/18/8 28/19/8
f 29/20/6 25/21/6 28/22/6 32/23/6
f 97/24/7 33/25/7 34/26/7
f 98/27/3 66/28/3 65/29/3
f 97/24/7 34/26/7 35/30/7
f 98/27/3 67/31/3 66/28/3
f 97/24/7 35/30/7 36/32/7
f 98/27/3 68/33/3 67/31/3
f 97/24/7 36/32/7 37/34/7
f 98/27/3 69/35/3 68/33/3
f 97/24/7 37/34/7 38/36/7
f 98/27/3 70/37/3 69/35/3
f 97/24/7 38/36/7 39/38/7
f 98/27/3 71/39/3 70/37/3
f 97/24/7 39/38/7 40/40/7
f 98/27/3 72/41/3 71/39/3
f 97/24/7 40/40/7 41/42/7
f 98/27/3 73/43/3 72/41/3
f 97/24/7 41/42/7 42/44/7
f 98/27/3 74/45/3 73/43/3
f 97/24/7 42/44/7 43/46/7
f 98/27/3 75/47/3 74/45/3
f 97/24/7 43/46/7 44/48/7
f 98/27/3 76/49/3 75/47/3
f 97/24/7 44/48/7 45/50/7
f 98/27/3 77/51/3 76/49/3
f 97/24/7 45/50/7 46/52/7
f 98/27/3 78/53/3 77/51/3
f 97/24/7 46/52/7 47/54/7
f 98/27/3 79/55/3 78/53/3
f 97/24/7 47/54/7 48/56/7
f 98/27/3 80/57/3 79/55/3
f 97/24/7 48/56/7 49/58/7
f 98/27/3 81/59/3 80/57/3
f 97/24/7 49/58/7 50/60/7
f 98/27/3 82/61/3 81/59/3
f 97/24/7 50/60/7 51/62/7
f 98/27/3 83/63/3 82/61/3
f 97/24/7 51/62/7 52/64/7
f 98/27/3 84/65/3 83/63/3
f 97/24/7 52/64/7 53/66/7
f 98/27/3 85/67/3 84/65/3
f 97/24/7 53/66/7 54/68/7
f 98/27/3 86/69/3 85/67/3
f 97/24/7 54/68/7 55/70/7
f 98/27/3 87/71/3 86/69/3
f 97/24/7 55/70/7 56/72/7
f 98/27/3 88/73/3 87/71/3
f 97/24/7 56/72/7 57/74/7
f 98/27/3 89/75/3 88/73/3
f 97/24/7 57/74/7 58/76/7
f 98/27/3 90/77/3 89/75/3
f 97/24/7 58/76/7 59/78/7
f 98/27/3 91/79/3 90/77/3
f 97/24/7 59/78/7 60/80/7
f 98/27/3 92/81/3 91/79/3
f 97/24/7 60/80/7 61/82/7
f 98/27/3 93/83/3 92/81/3
f 97/24/7 61/82/7 62/84/7
f 98/27/3 94/85/3 93/83/3
f 97/24/7 62/84/7 63/86/7
f 98/27/3 95/87/3 94/85/3
f 97/24/7 63/86/7 64/88/7
f 98/27/3 96/89/3 95/87/3
f 64/88/7 33/25/7 97/24/7
f 98/27/3 65/29/3 96/89/3
f 33/90/9 65/91/9 66/92/9 34/93/9
f 34/93/10 66/92/10 67/94/10 35/95/10
f 35/95/11 67/94/11 68/96/11 36/97/11
f 36/98/12 68/99/12 69/100/12 37/101/12
f 37/101/13 69/100/13 70/102/13 38/103/13
f 38/103/14 70/102/14 71/104/14 39/105/14
f 39/105/15 71/104/15 72/106/15 40/107/15
f 40/107/16 72/106/16 73/108/16 41/109/16
f 41/109/17 73/108/17 74/110/17 42/111/17
f 42/111/18 74/110/18 75/112/18 43/113/18
f 43/113/19 75/112/19 76/114/19 44/115/19
f 44/116/20 76/117/20 77/118/20 45/119/20
f 45/119/21 77/118/21 78/120/21 46/121/21
f 46/121/22 78/120/22 79/122/22 47/123/22
f 47/123/23 79/122/23 80/124/23 48/125/23
f 48/125/24 80/124/24 81/126/24 49/127/24
f 49/127/25 81/126/25 82/128/25 50/129/25
f 50/129/26 82/128/26 83/130/26 51/131/26
f 51/131/27 83/130/27 84/132/27 52/133/27
f 52/133/28 84/132/28 85/134/28 53/135/28
f 53/136/29 85/137/29 86/138/29 54/139/29
f 54/139/30 86/138/30 87/140/30 55/141/30
f 55/141/31 87/140/31 88/142/31 56/143/31
f 56/143/32 88/142/32 89/144/32 57/145/32
f 57/145/33 89/144/33 90/146/33 58/147/33
f 58/147/34 90/146/34 91/148/34 59/149/34
f 59/149/35 91/148/35 92/150/35 60/151/35
f 60/151/36 92/150/36 93/152/36 61/153/36
f 61/154/37 93/155/37 94/156/37 62/157/37
f 62/157/38 94/156/38 95/158/38 63/159/38
f 63/159/39 95/158/39 96/160/39 64/161/39
f 65/91/40 33/90/40 64/161/40 96/160/40
f 163/24/7 99/25/7 100/26/7
f 164/27/3 132/28/3 131/29/3
f 163/24/7 100/26/7 101/30/7
f 164/27/3 133/31/3 132/28/3
f 163/24/7 101/30/7 102/32/7
f 164/27/3 134/33/3 133/31/3
f 163/24/7 102/32/7 103/34/7
f 164/27/3 135/35/3 134/33/3
f 163/24/7 103/34/7 104/36/7
f 164/27/3 136/37/3 135/35/3
f 163/24/7 104/36/7 105/38/7
f 164/27/3 137/39/3 136/37/3
f 163/24/7 105/38/7 106/40/7
f 164/27/3 138/41/3 137/39/3
f 163/24/7 106/40/7 107/42/7
f 164/27/3 139/43/3 138/41/3
f 163/24/7 107/42/7 108/44/7
f 164/27/3 140/45/3 139/43/3
f 163/24/7 108/44/7 109/46/7
f 164/27/3 141/47/3 140/45/3
f 163/24/7 109/46/7 110/48/7
f 164/27/3 142/49/3 141/47/3
f 163/24/7 110/48/7 111/50/7
f 164/27/3 143/51/3 142/49/3
f 163/24/7 111/50/7 112/52/7
f 164/27/3 144/53/3 143/51/3
f 163/24/7 112/52/7 113/54/7
f 164/27/3 145/55/3 144/53/3
f 163/24/7 113/54/7 114/56/7
f 164/27/3 146/57/3 145/55/3
f 163/24/7 114/56/7 115/58/7
f 164/27/3 147/59/3 146/57/3
f 163/24/7 115/58/7 116/60/7
f 164/27/3 148/61/3 147/59/3
f 163/24/7 116/60/7 117/62/7
f 164/27/3 149/63/3 148/61/3
f 163/24/7 117/62/7 118/64/7
f 164/27/3 150/65/3 149/63/3
f 163/24/7 118/64/7 119/66/7
f 164/27/3 151/67/3 150/65/3
f 163/24/7 119/66/7 120/68/7
f 164/27/3 152/69/3 151/67/3
f 163/24/7 120/68/7 121/70/7
f 164/27/3 153/71/3 152/69/3
f 163/24/7 121/70/7 122/72/7
f 164/27/3 154/73/3 153/71/3
f 163/24/7 122/72/7 123/74/7
f 164/27/3 155/75/3 154/73/3
f 163/24/7 123/74/7 124/76/7
f 164/27/3 156/77/3 155/75/3
f 163/24/7 124/76/7 125/78/7
f 164/27/3 157/79/3 156/77/3
f 163/24/7 125/78/7 126/80/7
f 164/27/3 158/81/3 157/79/3
f 163/24/7 126/80/7 127/82/7
f 164/27/3 159/83/3 158/81/3
f 163/24/7 127/82/7 128/84/7
f 164/27/3 160/85/3 159/83/3
f 163/24/7 128/84/7 129/86/7
f 164/27/3 161/87/3 160/85/3
f 163/24/7 129/86/7 130/88/7
f 164/27/3 162/89/3 161/87/3
f 130/88/7 99/25/7 163/24/7
f 164/27/3 131/29/3 162/89/3
f 99/90/9 131/91/9 132/92/9 100/93/9
f 100/93/10 132/92/10 133/94/10 101/95/10
f 101/95/11 133/94/11 134/96/11 102/97/11
f 102/98/12 134/99/12 135/100/12 103/101/12
f 103/101/13 135/100/13 136/102/13 104/103/13
f 104/103/14 136/102/14 137/104/14 105/105/14
f 105/105/15 137/104/15 138/106/15 106/107/15
f 106/107/16 138/106/16 139/108/16 107/109/16
f 107/109/17 139/108/17 140/110/17 108/111/17
f 108/111/18 140/110/18 141/112/18 109/113/18
f 109/113/19 141/112/19 142/114/19 110/115/19
f 110/116/20 142/117/20 143/118/20 111/119/20
f 111/119/21 143/118/21 144/120/21 112/121/21
f 112/121/22 144/120/22 145/122/22 113/123/22
f 113/123/23 145/122/23 146/124/23 114/125/23
f 114/125/24 146/124/24 147/126/24 115/127/24
f 115/127/25 147/126/25 148/128/25 116/129/25
f 116/129/26 148/128/26 149/130/26 117/131/26
f 117/131/27 149/130/27 150/132/27 118/133/27
f 118/133/28 150/132/28 151/134/28 119/135/28
f 119/136/29 151/137/29 152/138/29 120/139/29
f 120/139/30 152/138/30 153/140/30 121/141/30
f 121/141/31 153/140/31 154/142/31 122/143/31
f 122/143/32 154/142/32 155/144/32 123/145/32
f 123/145/33 155/144/33 156/146/33 124/147/33
f 124/147/34 156/146/34 157/148/34 125/149/34
f 125/149/35 157/148/35 158/150/35 126/151/35
f 126/151/36 158/150/36 159/152/36 127/153/36
f 127/154/37 159/155/37 160/156/37 128/157/37
f 128/157/38 160/156/38 161/158/38 129/159/38
f 129/159/39 161/158/39 162/160/39 130/161/39
f 131/91/40 99/90/40 130/161/40 162/160/40
f 229/24/7 165/25/7 166/26/7
f 230/27/3 198/28/3 197/29/3
f 229/24/7 166/26/7 167/30/7
f 230/27/3 199/31/3 198/28/3
f 229/24/7 167/30/7 168/32/7
f 230/27/3 200/33/3 199/31/3
f 229/24/7 168/32/7 169/34/7
f 230/27/3 201/35/3 200/33/3
f 229/24/7 169/34/7 170/36/7
f 230/27/3 202/37/3 201/35/3
f 229/24/7 170/36/7 171/38/7
f 230/27/3 203/39/3 202/37/3
f 229/24/7 171/38/7 172/40/7
f 230/27/3 204/41/3 203/39/3
f 229/24/7 172/40/7 173/42/7
f 230/27/3 205/43/3 204/41/3
f 229/24/7 173/42/7 174/44/7
f 230/27/3 206/45/3 205/43/3
f 229/24/7 174/44/7 175/46/7
f 230/27/3 207/47/3 206/45/3
f 229/24/7 175/46/7 176/48/7
f 230/27/3 208/49/3 207/47/3
f 229/24/7 176/48/7 177/50/7
f 230/27/3 209/51/3 208/49/3
f 229/24/7 177/50/7 178/52/7
f 230/27/3 210/53/3 209/51/3
f 229/24/7 178/52/7 179/54/7
f 230/27/3 211/55/3 210/53/3
f 229/24/7 179/54/7 180/56/7
f 230/27/3 212/57/3 211/55/3
f 229/24/7 180/56/7 181/58/7
f 230/27/3 213/59/3 212/57/3
f 229/24/7 181/58/7 182/60/7
f 230/27/3 214/61/3 213/59/3
f 229/24/7 182/60/7 183/62/7
f 230/27/3 215/63/3 214/61/3
f 229/24/7 183/62/7 184/64/7
f 230/27/3 216/65/3 215/63/3
f 229/24/7 184/64/7 185/66/7
f 230/27/3 217/67/3 216/65/3
f 229/24/7 185/66/7 186/68/7
f 230/27/3 218/69/3 217/67/3
f 229/24/7 186/68/7 187/70/7
f 230/27/3 219/71/3 218/69/3
f 229/24/7 187/70/7 188/72/7
f 230/27/3 220/73/3 219/71/3
f 229/24/7 188/72/7 189/74/7
f 230/27/3 221/75/3 220/73/3
f 229/24/7 189/74/7 190/76/7
f 230/27/3 222/77/3 221/75/3
f 229/24/7 190/76/7 191/78/7
f 230/27/3 223/79/3 222/77/3
f 229/24/7 191/78/7 192/80/7
f 230/27/3 224/81/3 223/79/3
f 229/24/7 192/80/7 193/82/7
f 230/27/3 225/83/3 224/81/3
f 229/24/7 193/82/7 194/84/7
f 230/27/3 226/85/3 225/83/3
f 229/24/7 194/84/7 195/86/7
f 230/27/3 227/87/3 226/85/3
f 229/24/7 195/86/7 196/88/7
f 230/27/3 228/89/3 227/87/3
f 196/88/7 165/25/7 229/24/7
f 230/27/3 197/29/3 228/89/3
f 165/90/9 197/91/9 198/92/9 166/93/9
f 166/93/10 198/92/10 199/94/10 167/95/10
f 167/95/11 199/94/11 200/96/11 168/97/11
f 168/98/12 200/99/12 201/100/12 169/101/12
f 169/101/13 201/100/13 202/102/13 170/103/13
f 170/103/14 202/102/14 203/104/14 171/105/14
f 171/105/15 203/104/15 204/106/15 172/107/15
f 172/107/16 204/106/16 205/108/16 173/109/16
f 173/109/17 205/108/17 206/110/17 174/111/17
f 174/111/18 206/110/18 207/112/18 175/113/18
f 175/113/19 207/112/19 208/114/19 176/115/19
f 176/116/20 208/117/20 209/118/20 177/119/20
f 177/119/21 209/118/21 210/120/21 178/121/21
f 178/121/22 210/120/22 211/122/22 179/123/22
f 179/123/23 211/122/23 212/124/23 180/125/23
f 180/125/24 212/124/24 213/126/24 181/127/24
f 181/127/25 213/126/25 214/128/25 182/129/25
f 182/129/26 214/128/26 215/130/26 183/131/26
f 183/131/27 215/130/27 216/132/27 184/133/27
f 184/133/28 216/132/28 217/134/28 185/135/28
f 185/136/29 217/137/29 218/138/29 186/139/29
f 186/139/30 218/138/30 219/140/30 187/141/30
f 187/141/31 219/140/31 220/142/31 188/143/31
f 188/143/32 220/142/32 221/144/32 189/145/32
f 189/145/33 221/144/33 222/146/33 190/147/33
f 190/147/34 222/146/34 223/148/34 191/149/34
f 191/149/35 223/148/35 224/150/35 192/151/35
f 192/151/36 224/150/36 225/152/36 193/153/36
f 193/154/37 225/155/37 226/156/37 194/157/37
f 194/157/38 226/156/38 227/158/38 195/159/38
f 195/159/39 227/158/39 228/160/39 196/161/39
f 197/91/40 165/90/40 196/161/40 228/160/40
