# Blender v2.76 (sub 0) OBJ File: 'BSwap_Rocks_02.blend'
# www.blender.org
mtllib Rocks_04.mtl
o Rock04_LP.001
v 1.305522 7.338097 15.947037
v 9.666897 1.348136 -11.488789
v 11.362310 1.211657 8.603586
v 5.197769 -2.592806 6.483210
v 8.436254 -2.245216 2.093924
v 9.819557 -2.044809 -1.646485
v 12.230998 -0.547504 -2.581742
v 8.402174 -2.220141 -5.580345
v 5.611582 -1.966014 -9.233047
v 1.736249 -1.865315 -11.544992
v -2.109648 -2.334320 -10.696426
v -7.590712 -1.825174 -10.724993
v -11.561780 -1.886921 -8.538635
v -13.741373 -2.214095 -6.096730
v 14.147108 13.724710 -0.253388
v 16.321783 14.234846 7.795852
v 17.587040 13.700824 4.488332
v 15.996076 14.263390 4.866651
v 18.775284 11.870350 1.830049
v 10.726909 6.894256 -12.588937
v 16.033468 13.844637 1.882406
v 13.069438 13.052027 -3.732884
v 9.428675 12.666676 -7.450898
v -15.823341 10.658342 10.632749
v -16.395254 10.777824 5.156147
v -15.208900 11.027739 -0.953505
v 14.898849 2.138961 0.782872
v -3.237031 -2.455733 8.448737
v -9.817986 -2.579099 6.020870
v -17.585072 -1.432289 4.294179
v 2.663626 -2.378127 9.667377
v 3.557581 1.798705 13.811282
v 4.691186 -1.705148 10.633362
v 8.770978 1.741219 11.973528
v 16.115807 10.232280 10.501797
v 14.549862 4.058885 8.742138
v 14.133307 7.177880 -9.903986
v -12.399108 10.527514 -5.706292
v -7.228315 11.860685 -6.608947
v -1.641670 11.991615 -8.170119
v 4.136754 12.256644 -8.651405
v 18.176556 12.671333 0.860215
v 14.016056 12.211546 -4.609643
v 9.704613 12.043154 -8.446901
v 9.662720 9.414272 -11.222425
v -8.378627 4.699404 -11.907492
v -2.820236 3.278095 -14.359624
v 2.421548 2.653951 -15.296450
v 8.241338 5.734756 -13.504783
v 1.793963 0.906363 -15.399078
v -3.499412 1.643131 -14.688296
v -16.290543 10.071667 -2.478639
v -17.467339 9.848339 4.678930
v -17.737799 9.436871 9.026693
v -8.462033 2.319044 -13.218838
v -16.179678 8.021334 -5.479605
v -14.894575 4.124696 -8.682813
v -13.789499 1.020034 -10.638907
v -15.828914 -0.680267 -6.515652
v -17.627583 -1.511480 -0.488406
v -18.292629 -1.199274 3.743147
v 14.380898 14.659397 9.275299
v 7.648244 15.015163 11.777731
v 0.831995 14.197579 13.092559
v -6.263407 12.882545 13.436523
v -12.230068 11.743832 12.308764
v -1.910612 12.574003 -6.970590
v -11.138849 9.923293 13.730612
v -14.818763 8.525487 12.580846
v -17.970877 8.130174 10.861029
v -19.098938 4.314496 8.305065
v -18.493877 -0.193174 5.559374
v -13.184435 2.375198 11.160870
v -7.319634 5.441218 14.359392
v -0.574844 6.092454 15.950220
v 4.218625 5.096852 15.874879
v 7.066012 7.225703 15.325431
v 12.181311 10.399076 12.925406
v 16.202995 11.431873 10.466452
v 16.853994 13.157237 8.847864
v 18.155247 13.164794 5.084836
v 15.559285 2.961552 -4.881478
v 14.037954 2.154373 -7.706007
v 5.066806 1.414047 -14.683028
v 7.818099 3.416556 -13.740468
v 18.298111 8.900061 -2.431728
v 17.292622 6.860768 -5.332656
v -5.486990 10.518320 14.574214
v 3.019948 10.895670 14.922377
v -11.797274 12.409774 2.347745
v -5.225448 13.992414 4.565989
v 0.627236 14.873829 7.574691
v 9.204720 15.304575 9.593160
v -10.135232 8.032484 -8.915777
v -3.181549 8.036944 -11.188675
v 3.325234 8.749025 -11.517141
v 14.627569 10.096668 -6.365383
v 18.235788 11.247917 -0.769032
v -2.701677 -3.175196 -2.022887
v -14.211174 5.108135 12.040701
v -11.603361 -0.041531 9.356429
v 0.337963 0.970366 12.694554
v -5.453169 0.245303 11.248003
v 7.371417 10.489405 14.339141
v 0.843131 14.689081 12.016705
v -5.961244 13.494668 11.799080
v -12.342908 11.938168 10.813086
v 3.946418 12.790667 -7.312618
v -9.586861 12.589664 -2.000926
v -3.332800 13.783682 -0.950312
v 2.935754 14.240396 0.706863
v 11.981789 14.550621 4.389698
v -8.094685 -0.468610 -12.041206
v -2.819994 -0.600729 -13.476233
v -0.881113 -2.900256 -7.680203
v -11.225819 -2.691523 1.336167
v -2.760057 -3.130991 3.837467
v -16.713017 2.801435 -4.954482
v -16.994759 7.746222 -3.221128
v -18.490601 1.173299 1.196778
v -18.626595 5.275759 3.343007
v 11.412848 6.137042 12.308489
v 16.726639 5.034085 -0.555785
v 17.857218 10.223706 4.957962
v 16.534683 6.863270 5.893228
vt 0.064351 0.019465
vt 0.023044 0.052914
vt 0.022570 0.034118
vt 0.004732 0.066796
vt 0.105922 0.020596
vt 0.067249 0.005251
vt 0.041955 0.013836
vt 0.151127 0.011411
vt 0.153375 0.032833
vt 0.199271 0.006584
vt 0.064820 0.112501
vt 0.020406 0.119130
vt 0.016203 0.088627
vt 0.209864 0.034479
vt 0.225531 0.069576
vt 0.173384 0.064972
vt 0.199032 0.091229
vt 0.157522 0.104046
vt 0.115978 0.064473
vt 0.110932 0.105596
vt 0.065584 0.075817
vt 0.239029 0.093643
vt 0.040746 0.147999
vt 0.075609 0.118558
vt 0.078154 0.127762
vt 0.007474 0.191347
vt 0.040762 0.184331
vt 0.026082 0.200963
vt 0.049407 0.156655
vt 0.006962 0.224881
vt 0.013454 0.220612
vt 0.022694 0.246355
vt 0.037392 0.259070
vt 0.014117 0.255527
vt 0.026357 0.224132
vt 0.480761 0.219368
vt 0.473961 0.192058
vt 0.482501 0.184972
vt 0.469867 0.121264
vt 0.467789 0.065810
vt 0.494170 0.083702
vt 0.444165 0.098493
vt 0.441454 0.065135
vt 0.455193 0.158443
vt 0.471566 0.171552
vt 0.442550 0.136887
vt 0.489605 0.130844
vt 0.424663 0.167274
vt 0.413581 0.134967
vt 0.407387 0.044672
vt 0.394874 0.070890
vt 0.383514 0.026056
vt 0.367187 0.229255
vt 0.375250 0.142490
vt 0.399012 0.172576
vt 0.353189 0.259940
vt 0.308912 0.248362
vt 0.340634 0.316357
vt 0.318174 0.289959
vt 0.358947 0.330523
vt 0.385702 0.319422
vt 0.363032 0.358814
vt 0.392997 0.271936
vt 0.399604 0.232509
vt 0.443065 0.257838
vt 0.358176 0.417670
vt 0.331298 0.452665
vt 0.317316 0.409960
vt 0.252393 0.419856
vt 0.202160 0.457164
vt 0.224789 0.396875
vt 0.286295 0.455448
vt 0.269993 0.439034
vt 0.238545 0.004147
vt 0.089993 0.279893
vt 0.078307 0.262239
vt 0.272749 0.181056
vt 0.283574 0.168538
vt 0.293632 0.224751
vt 0.253115 0.141890
vt 0.029686 0.317386
vt 0.027938 0.283379
vt 0.045705 0.289146
vt 0.095295 0.328519
vt 0.093618 0.291542
vt 0.148141 0.303320
vt 0.216736 0.346833
vt 0.210038 0.396483
vt 0.189972 0.392851
vt 0.176851 0.414123
vt 0.407996 0.112660
vt 0.167512 0.132511
vt 0.165878 0.121816
vt 0.210175 0.135034
vt 0.251223 0.488798
vt 0.213668 0.468078
vt 0.410512 0.331485
vt 0.394299 0.362223
vt 0.288972 0.494005
vt 0.279948 0.378278
vt 0.197802 0.463124
vt 0.347796 0.366788
vt 0.308319 0.340618
vt 0.328651 0.321406
vt 0.282375 0.309544
vt 0.297280 0.298077
vt 0.257399 0.351030
vt 0.227212 0.172837
vt 0.282482 0.228646
vt 0.297207 0.259257
vt 0.279025 0.271994
vt 0.249161 0.285392
vt 0.249583 0.273389
vt 0.411145 0.392291
vt 0.371870 0.434375
vt 0.465620 0.276048
vt 0.485207 0.279269
vt 0.482315 0.302755
vt 0.433742 0.298587
vt 0.448059 0.349782
vt 0.143568 0.281985
vt 0.197703 0.280944
vt 0.145400 0.247425
vt 0.119821 0.117778
vt 0.191584 0.224206
vt 0.244257 0.206961
vt 0.144002 0.291306
vt 0.307042 0.472201
vt 0.315896 0.494401
vt 0.305345 0.275392
vt 0.339320 0.471075
vt 0.121171 0.129280
vt 0.128200 0.193335
vt 0.177462 0.180929
vt 0.057399 0.221194
vt 0.350002 0.108920
vt 0.347527 0.068628
vt 0.163931 0.338556
vt 0.211849 0.308982
vt 0.080172 0.454547
vt 0.108499 0.441552
vt 0.118960 0.465238
vt 0.149706 0.435154
vt 0.157325 0.448001
vt 0.129796 0.482979
vt 0.168764 0.468763
vt 0.202428 0.434619
vt 0.087731 0.491973
vt 0.364949 0.003326
vt 0.335068 0.031573
vt 0.351868 0.145145
vt 0.336524 0.173853
vt 0.308978 0.211678
vt 0.095010 0.419861
vt 0.101748 0.374002
vt 0.019620 0.416449
vt 0.003262 0.387268
vt 0.009444 0.355955
vt 0.046429 0.441587
vt 0.242740 0.074119
vt 0.243139 0.034586
vt 0.293791 0.039973
vt 0.287984 0.014862
vt 0.297884 0.075735
vt 0.329641 0.041867
vt 0.318892 0.029232
vt 0.325414 0.124089
vt 0.292441 0.113626
vt 0.336947 0.083400
vt 0.372083 0.312628
vt 0.424620 0.291051
vt 0.428561 0.215972
vt 0.457413 0.213908
vt 0.470863 0.251984
vt 0.452386 0.261470
vt 0.218295 0.312601
vt 0.109862 0.006982
vt 0.200952 0.294559
vt 0.342913 0.120312
vn 0.033500 0.250600 -0.967500
vn 0.164900 0.297400 -0.940400
vn 0.448500 -0.151100 -0.880900
vn 0.453300 0.210400 -0.866100
vn -0.159600 0.400600 -0.902200
vn 0.052200 -0.407200 -0.911800
vn 0.341000 -0.411500 -0.845200
vn -0.372900 0.066700 -0.925400
vn -0.335800 0.490200 -0.804300
vn -0.611000 -0.212800 -0.762500
vn -0.034300 0.809400 -0.586300
vn 0.268600 0.762800 -0.588100
vn 0.231400 0.625800 -0.744900
vn -0.710200 0.239100 -0.662100
vn -0.740900 0.402500 -0.537600
vn -0.340600 0.562200 -0.753500
vn -0.368600 0.765700 -0.527000
vn -0.226800 0.835200 -0.501000
vn -0.177000 0.588300 -0.789000
vn -0.128200 0.774400 -0.619600
vn -0.060900 0.586400 -0.807700
vn -0.705900 0.655800 -0.267500
vn 0.482000 0.739400 -0.470000
vn 0.146100 0.922500 -0.357100
vn 0.672600 0.681900 -0.287200
vn 0.175800 0.955500 -0.236900
vn 0.252800 0.944900 -0.208000
vn 0.259100 0.922000 -0.287500
vn 0.908100 0.378400 0.179200
vn 0.529700 0.846300 -0.055800
vn 0.489200 0.848700 0.200800
vn 0.308300 0.850600 0.425900
vn 0.787400 0.371000 0.492200
vn 0.209500 0.974200 -0.083800
vn 0.991200 0.132300 -0.006600
vn 0.617300 0.557500 -0.555100
vn 0.702100 0.176000 -0.690000
vn 0.963700 0.018400 -0.266400
vn 0.811900 0.415300 -0.410300
vn 0.919600 -0.048000 -0.389900
vn 0.901000 -0.429200 0.062500
vn 0.815500 -0.558200 -0.152300
vn 0.536600 -0.579400 -0.613500
vn 0.551600 -0.757400 0.349300
vn 0.598800 -0.800000 -0.036900
vn 0.750800 -0.650100 0.116700
vn 0.450400 -0.570500 0.686800
vn 0.215400 -0.818600 0.532400
vn 0.150000 -0.280200 0.948100
vn 0.058200 -0.595700 0.801000
vn 0.329700 -0.041200 0.943200
vn 0.002700 0.151900 0.988400
vn 0.534500 -0.313900 0.784700
vn 0.735000 -0.517900 0.437500
vn 0.775100 -0.171500 0.608100
vn -0.132400 0.254200 0.958000
vn -0.284600 0.198500 0.937800
vn -0.205200 -0.285000 0.936300
vn -0.225700 -0.753200 0.617800
vn -0.327600 -0.900900 0.284600
vn -0.142900 -0.941700 0.304500
vn -0.394700 -0.316600 0.862500
vn -0.334500 -0.543600 0.769800
vn -0.770100 -0.471800 -0.429300
vn 0.121900 0.825300 0.551300
vn 0.056100 0.997300 0.048300
vn -0.431700 0.890000 -0.146500
vn -0.838600 0.540900 -0.063700
vn 0.237600 -0.961500 0.137900
vn 0.000600 -0.906300 0.422600
vn 0.000900 -0.998300 0.058900
vn -0.088900 -0.903400 0.419500
vn -0.713000 -0.681400 -0.165200
vn -0.308400 -0.916600 -0.254400
vn -0.260900 -0.870300 -0.417600
vn 0.691600 -0.570000 -0.443600
vn -0.096100 0.938300 -0.332300
vn -0.908800 -0.166300 0.382600
vn -0.786700 -0.498000 0.364700
vn 0.214100 0.366100 0.905600
vn 0.062300 0.384300 0.921100
vn -0.784800 0.160400 0.598600
vn -0.145600 -0.678400 0.720100
vn -0.770600 -0.634700 0.057600
vn -0.128200 -0.197200 0.971900
vn -0.118300 -0.636900 0.761800
vn -0.233800 0.954400 -0.185300
vn -0.505800 0.862600 0.001300
vn -0.823100 0.556500 0.112800
vn -0.516500 0.753400 0.406900
vn -0.363800 0.753900 0.547000
vn -0.297500 0.950200 0.092500
vn -0.051800 0.730700 0.680700
vn -0.173100 0.718200 0.674000
vn 0.716600 0.187400 0.671800
vn 0.427300 0.167600 0.888400
vn -0.107900 0.965200 0.238100
vn -0.203400 0.962000 0.181800
vn -0.096500 0.995000 -0.025300
vn -0.170600 0.985000 -0.025200
vn -0.278800 0.959800 -0.029900
vn -0.416200 0.102100 0.903500
vn -0.023100 0.959300 -0.281500
vn -0.017800 0.989600 -0.142600
vn -0.095900 0.984500 -0.147000
vn 0.056000 0.989900 -0.130300
vn 0.316300 -0.930000 -0.187000
vn 0.259100 -0.903500 -0.341300
vn -0.119000 -0.992700 0.016100
vn 0.128100 -0.895300 -0.426700
vn -0.032000 -0.940200 -0.338900
vn -0.123100 -0.705800 -0.697600
vn -0.179000 -0.877700 -0.444500
vn -0.291300 -0.589300 -0.753500
vn -0.219300 -0.121600 -0.968000
vn 0.387400 -0.921600 0.023900
vn 0.336900 -0.935200 0.108800
vn 0.021600 -0.992600 -0.119800
vn 0.002900 -0.999700 -0.022200
vn -0.947400 0.211200 -0.240600
vn -0.936100 -0.014400 -0.351500
vn -0.984000 -0.069900 -0.163600
vn -0.984700 0.134800 -0.110500
vn 0.907200 -0.364800 0.209400
vn 0.949500 -0.222100 0.221600
usemtl Rock02
s 1
f 48/1/1 49/2/2 85/3/3
f 85/3/3 49/2/2 20/4/4
f 47/5/5 48/1/1 50/6/6
f 50/6/6 48/1/1 84/7/7
f 55/8/8 46/9/9 47/5/5
f 46/9/9 55/8/8 58/10/10
f 41/11/11 44/12/12 45/13/13
f 45/13/13 20/4/4 49/2/2
f 57/14/14 56/15/15 94/16/16
f 94/16/16 38/17/17 39/18/18
f 46/9/9 94/16/16 95/19/19
f 39/18/18 40/20/20 95/19/19
f 47/5/5 95/19/19 96/21/21
f 40/20/20 41/11/11 96/21/21
f 48/1/1 96/21/21 49/2/2
f 56/15/15 52/22/22 38/17/17
f 43/23/23 44/24/12 23/25/24
f 42/26/25 15/27/26 21/28/27
f 43/23/23 15/27/26 42/26/25
f 22/29/28 15/27/26 43/23/23
f 81/30/29 17/31/30 16/32/31
f 62/33/32 80/34/33 16/32/31
f 62/33/32 16/32/31 18/35/34
f 18/35/34 16/32/31 17/31/30
f 17/31/30 42/26/25 21/28/27
f 81/36/29 19/37/35 42/38/25
f 97/39/36 45/40/13 44/41/12
f 37/42/37 20/43/4 45/40/13
f 86/44/38 98/45/39 19/37/35
f 87/46/40 37/42/37 97/39/36
f 98/45/39 97/39/36 43/47/23
f 98/45/39 42/38/25 19/37/35
f 123/48/41 82/49/42 87/46/40
f 85/50/3 2/51/43 84/52/7
f 3/53/44 7/54/45 27/55/46
f 34/56/47 33/57/48 3/53/44
f 34/56/47 76/58/49 32/59/50
f 76/60/49 77/61/51 1/62/52
f 122/63/53 36/64/54 35/65/55
f 88/66/56 68/67/57 74/68/58
f 101/69/59 30/70/60 29/71/61
f 100/72/62 73/73/63 74/68/58
f 57/14/14 58/10/10 59/74/64
f 63/75/65 62/33/32 93/76/66
f 26/77/67 52/78/22 53/79/68
f 26/77/67 38/80/17 52/78/22
f 4/81/69 33/82/48 31/83/70
f 117/84/71 28/85/72 29/86/61
f 60/87/73 59/88/64 14/89/74
f 13/90/75 14/89/74 59/88/64
f 83/91/76 82/49/42 7/54/45
f 67/92/77 40/93/20 39/94/18
f 71/95/78 72/96/79 73/73/63
f 77/61/51 104/97/80 89/98/81
f 100/72/62 74/68/58 68/67/57
f 70/99/82 71/95/78 100/72/62
f 103/100/83 101/69/59 29/71/61
f 73/73/63 101/69/59 103/100/83
f 72/96/79 61/101/84 30/70/60
f 75/102/85 102/103/86 32/104/50
f 102/103/86 31/105/70 33/106/48
f 75/102/85 74/68/58 103/100/83
f 102/103/86 103/100/83 28/107/72
f 109/108/87 39/94/18 38/80/17
f 25/109/88 53/79/68 54/110/89
f 24/111/90 66/112/91 107/113/92
f 88/66/56 89/98/81 64/114/93
f 68/67/57 88/66/56 65/115/94
f 79/116/95 80/117/33 62/118/32
f 78/119/96 104/97/80 77/61/51
f 89/98/81 104/97/80 63/120/65
f 63/120/65 104/97/80 78/119/96
f 105/121/97 63/75/65 93/76/66
f 106/122/98 105/121/97 92/123/99
f 23/25/24 44/24/12 41/124/11
f 91/125/100 90/126/101 107/113/92
f 64/127/93 105/121/97 106/122/98
f 106/122/98 107/113/92 66/112/91
f 64/127/93 63/75/65 105/121/97
f 90/126/101 26/77/67 25/109/88
f 69/128/102 24/129/90 70/99/82
f 24/111/90 54/110/89 70/130/82
f 66/131/91 24/129/90 69/128/102
f 108/132/103 41/124/11 40/93/20
f 111/133/104 108/132/103 67/92/77
f 110/134/105 67/92/77 39/94/18
f 112/135/106 18/35/34 21/28/27
f 111/133/104 22/29/28 23/25/24
f 93/76/66 112/135/106 111/133/104
f 91/125/100 92/123/99 111/133/104
f 91/125/100 110/134/105 109/108/87
f 90/126/101 109/108/87 26/77/67
f 93/76/66 62/33/32 18/35/34
f 15/27/26 22/29/28 111/133/104
f 87/46/40 82/49/42 83/91/76
f 83/91/76 7/54/45 8/136/107
f 84/7/7 48/1/1 85/3/3
f 84/52/7 2/51/43 9/137/108
f 116/138/109 29/86/61 30/139/60
f 10/140/110 11/141/111 114/142/112
f 114/142/112 11/141/111 12/143/113
f 113/144/114 12/143/113 13/90/75
f 51/145/115 114/142/112 113/144/114
f 55/146/8 113/144/114 58/147/10
f 51/145/115 50/148/6 114/142/112
f 50/149/6 84/52/7 10/150/110
f 84/52/7 9/137/108 10/150/110
f 6/151/116 8/136/107 7/54/45
f 5/152/117 6/151/116 7/54/45
f 117/84/71 4/81/69 31/83/70
f 4/153/69 5/152/117 3/53/44
f 13/90/75 115/154/118 14/89/74
f 14/89/74 115/154/118 99/155/119
f 115/154/118 11/141/111 10/140/110
f 12/143/113 11/141/111 115/154/118
f 8/156/107 6/157/116 5/158/117
f 12/143/113 115/154/118 13/90/75
f 99/155/119 117/84/71 116/138/109
f 5/158/117 4/81/69 117/84/71
f 115/154/118 9/159/108 8/156/107
f 52/22/22 56/15/15 119/160/120
f 56/15/15 57/14/14 118/161/121
f 119/160/120 118/161/121 120/162/122
f 118/161/121 59/74/64 60/163/73
f 52/22/22 119/160/120 121/164/123
f 121/164/123 120/162/122 72/165/79
f 120/162/122 60/163/73 61/166/84
f 54/167/89 53/168/68 121/164/123
f 54/167/89 121/164/123 71/169/78
f 77/170/51 76/58/49 34/56/47
f 78/171/96 77/170/51 122/63/53
f 34/56/47 36/64/54 122/63/53
f 125/172/124 36/64/54 27/55/46
f 124/173/125 86/44/38 19/37/35
f 27/55/46 82/49/42 123/48/41
f 124/173/125 125/172/124 123/48/41
f 35/65/55 125/172/124 124/173/125
f 80/174/33 79/175/95 124/173/125
f 35/65/55 36/64/54 125/172/124
f 1/62/52 89/98/81 88/66/56
f 72/96/79 30/70/60 101/69/59
f 79/175/95 78/171/96 35/65/55
f 37/42/37 83/91/76 2/51/43
f 85/50/3 20/43/4 2/51/43
f 9/137/108 2/51/43 8/136/107
f 61/176/84 60/87/73 30/139/60
f 86/44/38 87/46/40 97/39/36
f 82/49/42 27/55/46 7/54/45
f 17/31/30 81/30/29 42/26/25
f 92/123/99 105/121/97 93/76/66
f 112/135/106 93/76/66 18/35/34
f 51/177/115 47/5/5 50/6/6
f 51/177/115 55/8/8 47/5/5
f 57/14/14 46/9/9 58/10/10
f 96/21/21 41/11/11 45/13/13
f 96/21/21 45/13/13 49/2/2
f 46/9/9 57/14/14 94/16/16
f 47/5/5 46/9/9 95/19/19
f 94/16/16 39/18/18 95/19/19
f 48/1/1 47/5/5 96/21/21
f 95/19/19 40/20/20 96/21/21
f 94/16/16 56/15/15 38/17/17
f 22/29/28 43/23/23 23/25/24
f 80/34/33 81/30/29 16/32/31
f 18/35/34 17/31/30 21/28/27
f 43/47/23 97/39/36 44/41/12
f 97/39/36 37/42/37 45/40/13
f 42/38/25 98/45/39 43/47/23
f 86/44/38 123/48/41 87/46/40
f 36/64/54 3/53/44 27/55/46
f 36/64/54 34/56/47 3/53/44
f 33/57/48 34/56/47 32/59/50
f 75/102/85 76/60/49 1/62/52
f 75/102/85 88/66/56 74/68/58
f 118/161/121 57/14/14 59/74/64
f 25/109/88 26/77/67 53/79/68
f 116/138/109 117/84/71 29/86/61
f 116/138/109 60/87/73 14/89/74
f 58/147/10 13/90/75 59/88/64
f 100/72/62 71/95/78 73/73/63
f 1/62/52 77/61/51 89/98/81
f 69/128/102 100/72/62 68/67/57
f 69/128/102 70/99/82 100/72/62
f 28/107/72 103/100/83 29/71/61
f 74/68/58 73/73/63 103/100/83
f 76/60/49 75/102/85 32/104/50
f 32/104/50 102/103/86 33/106/48
f 102/103/86 75/102/85 103/100/83
f 31/105/70 102/103/86 28/107/72
f 26/77/67 109/108/87 38/80/17
f 24/111/90 25/109/88 54/110/89
f 25/109/88 24/111/90 107/113/92
f 65/115/94 88/66/56 64/114/93
f 66/131/91 68/67/57 65/115/94
f 78/119/96 79/116/95 62/118/32
f 64/114/93 89/98/81 63/120/65
f 62/118/32 63/120/65 78/119/96
f 91/125/100 106/122/98 92/123/99
f 108/132/103 23/25/24 41/124/11
f 106/122/98 91/125/100 107/113/92
f 65/178/94 64/127/93 106/122/98
f 65/178/94 106/122/98 66/112/91
f 107/113/92 90/126/101 25/109/88
f 68/67/57 66/131/91 69/128/102
f 67/92/77 108/132/103 40/93/20
f 110/134/105 111/133/104 67/92/77
f 109/108/87 110/134/105 39/94/18
f 15/27/26 112/135/106 21/28/27
f 108/132/103 111/133/104 23/25/24
f 92/123/99 93/76/66 111/133/104
f 110/134/105 91/125/100 111/133/104
f 90/126/101 91/125/100 109/108/87
f 112/135/106 15/27/26 111/133/104
f 37/42/37 87/46/40 83/91/76
f 2/51/43 83/91/76 8/136/107
f 60/87/73 116/138/109 30/139/60
f 50/148/6 10/140/110 114/142/112
f 113/144/114 114/142/112 12/143/113
f 58/147/10 113/144/114 13/90/75
f 55/146/8 51/145/115 113/144/114
f 3/53/44 5/152/117 7/54/45
f 28/85/72 117/84/71 31/83/70
f 33/57/48 4/153/69 3/53/44
f 9/159/108 115/154/118 10/140/110
f 99/155/119 8/156/107 5/158/117
f 14/89/74 99/155/119 116/138/109
f 99/155/119 5/158/117 117/84/71
f 99/155/119 115/154/118 8/156/107
f 119/160/120 56/15/15 118/161/121
f 121/164/123 119/160/120 120/162/122
f 120/162/122 118/161/121 60/163/73
f 53/168/68 52/22/22 121/164/123
f 71/169/78 121/164/123 72/165/79
f 72/165/79 120/162/122 61/166/84
f 70/179/82 54/167/89 71/169/78
f 122/63/53 77/170/51 34/56/47
f 35/65/55 78/171/96 122/63/53
f 123/48/41 125/172/124 27/55/46
f 81/36/29 124/173/125 19/37/35
f 86/44/38 124/173/125 123/48/41
f 79/175/95 35/65/55 124/173/125
f 81/36/29 80/174/33 124/173/125
f 75/102/85 1/62/52 88/66/56
f 73/73/63 72/96/79 101/69/59
f 20/43/4 37/42/37 2/51/43
f 98/45/39 86/44/38 97/39/36
