# Blender v2.76 (sub 0) OBJ File: 'rts_props_0.blend'
# www.blender.org
mtllib well.mtl
o CoveredWell_Cube.008
v -1.176897 3.112325 -1.059641
v 1.176897 3.112325 -1.059641
v -1.176897 3.404501 -0.750385
v 1.176897 3.404501 -0.750385
v -1.176897 3.404501 0.750385
v 1.176897 3.404501 0.750385
v -1.176897 3.112325 1.059641
v 1.176897 3.112325 1.059641
v -1.588555 3.112326 -1.059642
v 1.588556 3.112326 -1.059642
v -1.588556 3.404501 -0.750385
v 1.588556 3.404501 -0.750385
v -1.588556 3.404501 0.750385
v 1.588556 3.404501 0.750385
v -1.588555 3.112326 1.059641
v 1.588556 3.112326 1.059641
v 1.690325 2.870239 1.328426
v -1.690325 2.870239 1.328426
v -1.690325 4.094353 -0.003220
v 1.690325 4.094354 -0.003220
v 1.690325 2.870239 -1.334867
v -1.690325 2.870239 -1.334867
v -1.690325 2.940420 -1.429472
v 1.690325 2.940420 -1.429472
v 1.690325 4.255009 -0.003220
v -1.690325 4.255009 -0.003220
v -1.690325 2.940420 1.423031
v 1.690325 2.940420 1.423031
v 1.254198 2.544207 0.232626
v 1.254198 2.713225 0.000007
v 1.254198 2.544220 -0.232622
v 1.254198 2.270751 -0.143775
v 1.254198 2.270743 0.143764
v -1.254199 2.544207 0.232626
v -1.254199 2.713224 0.000007
v -1.254199 2.544220 -0.232622
v -1.254199 2.270751 -0.143775
v -1.254199 2.270743 0.143764
v 1.183260 0.001145 0.000000
v 0.957277 0.001145 0.695503
v 0.365647 0.001145 1.125347
v -0.365648 0.001145 1.125347
v -0.957278 0.001145 0.695503
v -1.183261 0.001145 -0.000000
v -0.957278 0.001145 -0.695503
v -0.365648 0.001145 -1.125348
v 0.365648 0.001145 -1.125347
v 0.957278 0.001145 -0.695502
v 1.844527 0.001145 0.000000
v 1.492253 0.001145 1.084186
v 0.569990 0.001145 1.754250
v -0.569991 0.001145 1.754249
v -1.492254 0.001145 1.084185
v -1.844527 0.001145 -0.000000
v -1.492254 0.001145 -1.084186
v -0.569990 0.001145 -1.754250
v 0.569991 0.001145 -1.754249
v 1.492254 0.001145 -1.084185
v 1.356640 1.412626 -0.985655
v 0.518190 1.412626 -1.594825
v -0.518190 1.412626 -1.594826
v -1.356640 1.412626 -0.985656
v -1.676899 1.412626 -0.000000
v -1.356640 1.412626 0.985656
v -0.518191 1.412626 1.594825
v 0.518190 1.412626 1.594825
v 1.356639 1.412626 0.985656
v 1.676898 1.412626 0.000000
v 0.957278 1.412626 -0.695502
v 0.365648 1.412626 -1.125347
v -0.365648 1.412626 -1.125348
v -0.957278 1.412626 -0.695503
v -1.183261 1.412626 -0.000000
v -0.957278 1.412626 0.695503
v -0.365648 1.412626 1.125347
v 0.365647 1.412626 1.125347
v 0.957277 1.412626 0.695503
v 1.183260 1.412626 0.000000
v 1.156958 1.517438 0.840580
v 1.430079 1.517438 0.000000
v 0.441918 1.517438 1.360086
v -0.441919 1.517438 1.360086
v -1.156959 1.517438 0.840579
v -1.430080 1.517438 -0.000000
v -1.156959 1.517438 -0.840580
v -0.441919 1.517438 -1.360087
v 0.441919 1.517438 -1.360086
v 1.156959 1.517438 -0.840579
v -1.183468 1.428658 -0.196702
v 1.183468 1.428658 -0.196702
v -1.183468 1.428658 0.196703
v 1.183468 1.428658 0.196703
v -1.576873 1.428658 0.196703
v 1.576873 1.428658 0.196703
v -1.576873 1.428658 -0.196702
v 1.576873 1.428658 -0.196702
v -1.183468 3.123134 -0.196702
v 1.183468 3.123135 -0.196702
v -1.183468 3.123134 0.196703
v 1.183468 3.123135 0.196703
v -1.576873 3.123134 0.196703
v 1.576873 3.123135 0.196703
v -1.576873 3.123134 -0.196702
v 1.576873 3.123135 -0.196702
v -1.505519 3.108263 -0.762824
v 1.505519 3.108263 -0.762824
v -1.505519 3.108263 -0.449386
v 1.505519 3.108263 -0.449386
v -1.254822 3.108263 -0.762824
v 1.254822 3.108263 -0.762824
v -1.254822 3.108263 -0.449386
v 1.254822 3.108263 -0.449386
v -1.505519 2.354803 -0.197394
v 1.505518 2.354803 -0.197394
v -1.505519 2.772474 -0.197395
v 1.505519 2.772474 -0.197395
v -1.254822 2.354803 -0.197394
v 1.254822 2.354803 -0.197394
v -1.254822 2.772474 -0.197395
v 1.254822 2.772474 -0.197395
v -1.254822 2.772474 0.198240
v 1.254822 2.772474 0.198240
v -1.254822 2.354803 0.198239
v 1.254822 2.354803 0.198239
v -1.505519 2.772474 0.198240
v 1.505519 2.772474 0.198240
v -1.505519 2.354803 0.198239
v 1.505518 2.354803 0.198239
v -1.254822 3.108263 0.450231
v 1.254822 3.108263 0.450231
v -1.254822 3.108263 0.763669
v 1.254822 3.108263 0.763669
v -1.505519 3.108263 0.450231
v 1.505519 3.108263 0.450231
v -1.505519 3.108263 0.763669
v 1.505518 3.108263 0.763669
v 1.356640 1.412626 -0.985655
v 1.676898 1.412626 0.000000
v 0.518190 1.412626 -1.594825
v -0.518190 1.412626 -1.594826
v -1.356640 1.412626 -0.985656
v -1.676899 1.412626 -0.000000
v -1.356640 1.412626 0.985656
v -0.518191 1.412626 1.594825
v 0.518190 1.412626 1.594825
v 1.356639 1.412626 0.985656
v 0.957278 1.412626 -0.695502
v 1.183260 1.412626 0.000000
v 0.365648 1.412626 -1.125347
v -0.365648 1.412626 -1.125348
v -0.957278 1.412626 -0.695503
v -1.183261 1.412626 -0.000000
v -0.957278 1.412626 0.695503
v -0.365648 1.412626 1.125347
v 0.365647 1.412626 1.125347
v 0.957277 1.412626 0.695503
vt 0.725980 0.543755
vt 0.760251 0.511377
vt 0.926563 0.511377
vt 0.960834 0.543755
vt 0.925975 0.466126
vt 0.759663 0.466126
vt 0.725392 0.433748
vt 0.960246 0.433748
vt 0.725980 0.433379
vt 0.960834 0.433379
vt 0.926563 0.465758
vt 0.760251 0.465758
vt 0.925975 0.511745
vt 0.960246 0.544123
vt 0.725392 0.544123
vt 0.759663 0.511745
vt 0.720770 0.889720
vt 0.720770 0.746694
vt 0.988086 0.746694
vt 0.988086 0.889719
vt 0.720770 0.889516
vt 0.720770 0.746490
vt 0.988086 0.746490
vt 0.988086 0.889516
vt 0.700712 0.935510
vt 0.658917 0.983059
vt 0.658917 0.565196
vt 0.698467 0.566889
vt 0.657767 0.470941
vt 0.068861 0.565196
vt 0.067711 0.470941
vt 0.026619 0.571556
vt 0.068861 0.983059
vt 0.027065 0.957042
vt 0.026173 0.573826
vt 0.068415 0.567465
vt 0.068415 0.985328
vt 0.026619 0.959311
vt 0.658471 0.567465
vt 0.698022 0.569159
vt 0.700266 0.937780
vt 0.658471 0.985328
vt 0.658447 0.472346
vt 0.068391 0.472346
vt 0.719901 0.309854
vt 0.532122 0.309854
vt 0.532122 0.266258
vt 0.719901 0.266257
vt 0.532455 0.440610
vt 0.532455 0.397014
vt 0.720234 0.397014
vt 0.720234 0.440610
vt 0.719901 0.440643
vt 0.532122 0.440643
vt 0.532122 0.397047
vt 0.719901 0.397046
vt 0.532455 0.309821
vt 0.532455 0.266225
vt 0.720234 0.266225
vt 0.720234 0.309821
vt 0.532122 0.353450
vt 0.719901 0.353450
vt 0.532455 0.353417
vt 0.720234 0.353417
vt 0.753737 0.605312
vt 0.903224 0.605312
vt 0.903224 0.645094
vt 0.753737 0.645094
vt 0.902718 0.645128
vt 0.902718 0.605244
vt 0.752849 0.605244
vt 0.752849 0.645129
vt 0.850212 0.684876
vt 0.783592 0.684876
vt 0.782780 0.685012
vt 0.849571 0.685012
vt 0.850212 0.724658
vt 0.783592 0.724658
vt 0.782780 0.724896
vt 0.849571 0.724896
vt 0.783592 0.565530
vt 0.850213 0.565530
vt 0.782780 0.565360
vt 0.849571 0.565360
vt 0.903112 0.604592
vt 0.849966 0.564707
vt 0.783175 0.564705
vt 0.753243 0.604588
vt 0.783957 0.564712
vt 0.850748 0.564712
vt 0.903895 0.604596
vt 0.754026 0.604596
vt 0.849962 0.724242
vt 0.849963 0.684358
vt 0.783172 0.684357
vt 0.783171 0.724241
vt 0.783957 0.684364
vt 0.850748 0.684364
vt 0.850748 0.724248
vt 0.783957 0.724248
vt 0.903111 0.644476
vt 0.753242 0.644472
vt 0.754026 0.644480
vt 0.903895 0.644480
vt 0.980508 0.377149
vt 0.733641 0.377155
vt 0.734123 0.344716
vt 0.981051 0.344716
vt 0.734666 0.312283
vt 0.981594 0.312283
vt 0.735209 0.279851
vt 0.982137 0.279851
vt 0.981017 0.409590
vt 0.734089 0.409590
vt 0.799729 0.005678
vt 0.799729 0.185129
vt 0.700295 0.185129
vt 0.700295 0.005678
vt 0.899163 0.005678
vt 0.899163 0.185129
vt 0.998597 0.005678
vt 0.998597 0.185129
vt 0.103691 0.005678
vt 0.103691 0.185129
vt 0.004257 0.185129
vt 0.004257 0.005678
vt 0.203125 0.005678
vt 0.203125 0.185129
vt 0.302559 0.005678
vt 0.302559 0.185129
vt 0.401993 0.005678
vt 0.401993 0.185129
vt 0.501427 0.005678
vt 0.501427 0.185129
vt 0.600861 0.005678
vt 0.600861 0.185129
vt 0.365313 0.238168
vt 0.365313 0.338199
vt 0.416413 0.338199
vt 0.416413 0.238168
vt 0.467512 0.338199
vt 0.467512 0.238168
vt 0.518612 0.338199
vt 0.518612 0.238168
vt 0.007616 0.238168
vt 0.007616 0.338199
vt 0.058716 0.338199
vt 0.058716 0.238168
vt 0.109815 0.338199
vt 0.109815 0.238168
vt 0.160915 0.338199
vt 0.160915 0.238168
vt 0.212015 0.338199
vt 0.212015 0.238168
vt 0.263114 0.338199
vt 0.263114 0.238168
vt 0.314214 0.338199
vt 0.314214 0.238168
vt 0.314214 0.367884
vt 0.365313 0.367884
vt 0.263114 0.367884
vt 0.212015 0.367884
vt 0.160915 0.367884
vt 0.109815 0.367884
vt 0.058716 0.367884
vt 0.007616 0.367884
vt 0.467512 0.367884
vt 0.518612 0.367884
vt 0.416413 0.367884
vt 0.700295 0.231834
vt 0.600861 0.231834
vt 0.501427 0.231834
vt 0.401993 0.231834
vt 0.302559 0.231834
vt 0.203125 0.231834
vt 0.103691 0.231834
vt 0.004257 0.231834
vt 0.998597 0.231834
vt 0.899163 0.231834
vt 0.799729 0.231834
vn 1.000000 0.000000 -0.000000
vn -1.000000 0.000000 0.000000
vn 0.000000 1.000000 0.000000
vn 0.000000 -0.736200 -0.676800
vn 0.000000 -0.736200 0.676800
vn 0.000000 -0.803100 -0.595800
vn 0.000000 -0.803100 0.595800
vn -0.000000 0.735300 0.677700
vn -0.000000 0.735300 -0.677700
vn -0.000000 -0.000000 1.000000
vn 0.000000 0.000000 -1.000000
vn 0.000000 -0.600200 -0.799800
vn -0.000000 0.600200 0.799800
vn -0.000000 0.600200 -0.799800
vn 0.000000 -0.600200 0.799800
vn 0.000000 0.309000 0.951000
vn 0.000000 0.309000 -0.951000
vn 0.000000 -0.309000 -0.951000
vn 0.000000 -0.309000 0.951000
vn 0.803400 0.117900 -0.583700
vn 0.993000 0.117900 0.000000
vn 0.306800 0.117900 -0.944400
vn -0.306800 0.117900 -0.944400
vn -0.803400 0.117900 -0.583700
vn -0.993000 0.117900 0.000000
vn -0.803400 0.117900 0.583700
vn -0.306800 0.117900 0.944400
vn 0.306800 0.117900 0.944400
vn 0.803400 0.117900 0.583700
vn -0.809000 0.000000 0.587800
vn -0.309000 0.000000 0.951000
vn 0.309000 0.000000 0.951000
vn 0.809000 0.000000 0.587800
vn 0.809000 0.000000 -0.587800
vn 0.309000 0.000000 -0.951000
vn -0.309000 0.000000 -0.951000
vn -0.809000 0.000000 -0.587800
vn -0.390900 0.920400 0.000000
vn -0.316200 0.920400 -0.229700
vn 0.062900 0.996900 0.045700
vn 0.077700 0.996900 0.000000
vn -0.120800 0.920400 -0.371700
vn 0.024000 0.996900 0.073900
vn 0.120800 0.920400 -0.371700
vn -0.024000 0.996900 0.073900
vn 0.316200 0.920400 -0.229700
vn -0.062900 0.996900 0.045700
vn 0.390900 0.920400 0.000000
vn -0.077700 0.996900 0.000000
vn 0.316200 0.920400 0.229700
vn -0.062900 0.996900 -0.045700
vn 0.120800 0.920400 0.371700
vn -0.024000 0.996900 -0.073900
vn -0.120800 0.920400 0.371700
vn 0.024000 0.996900 -0.073900
vn -0.316200 0.920400 0.229700
vn 0.062900 0.996900 -0.045700
usemtl maWell
s off
f 1/1/1 3/2/1 5/3/1 7/4/1
f 6/5/2 4/6/2 2/7/2 8/8/2
f 9/9/2 15/10/2 13/11/2 11/12/2
f 14/13/1 16/14/1 10/15/1 12/16/1
f 3/2/3 11/12/3 13/11/3 5/3/3
f 14/13/3 12/16/3 4/6/3 6/5/3
f 20/17/4 17/18/4 18/19/4 19/20/4
f 19/21/5 22/22/5 21/23/5 20/24/5
f 19/25/2 26/26/2 23/27/2 22/28/2
f 22/29/6 23/27/6 24/30/6 21/31/6
f 21/32/1 24/30/1 25/33/1 20/34/1
f 18/35/2 27/36/2 26/37/2 19/38/2
f 28/39/1 17/40/1 20/41/1 25/42/1
f 17/43/7 28/39/7 27/36/7 18/44/7
f 25/42/8 26/37/8 27/36/8 28/39/8
f 24/30/9 23/27/9 26/26/9 25/33/9
f 89/45/1 97/46/1 99/47/1 91/48/1
f 100/49/2 98/50/2 90/51/2 92/52/2
f 91/53/10 99/54/10 101/55/10 93/56/10
f 102/57/10 100/58/10 92/59/10 94/60/10
f 93/56/2 101/55/2 103/61/2 95/62/2
f 104/63/1 102/57/1 94/60/1 96/64/1
f 97/46/11 89/45/11 95/62/11 103/61/11
f 96/64/11 90/51/11 98/50/11 104/63/11
f 109/65/12 117/66/12 113/67/12 105/68/12
f 114/69/12 118/70/12 110/71/12 106/72/12
f 115/73/2 107/74/2 105/68/2 113/67/2
f 106/72/1 108/75/1 116/76/1 114/69/1
f 119/77/13 111/78/13 107/74/13 115/73/13
f 108/75/13 112/79/13 120/80/13 116/76/13
f 117/66/1 109/65/1 111/81/1 119/82/1
f 112/83/2 110/71/2 118/70/2 120/84/2
f 123/85/1 121/86/1 129/87/1 131/88/1
f 130/89/2 122/90/2 124/91/2 132/92/2
f 121/93/14 125/94/14 133/95/14 129/96/14
f 134/97/14 126/98/14 122/99/14 130/100/14
f 125/94/2 127/101/2 135/102/2 133/95/2
f 136/103/1 128/104/1 126/98/1 134/97/1
f 131/88/15 135/102/15 127/101/15 123/85/15
f 128/104/15 136/103/15 132/92/15 124/91/15
s 1
f 34/105/16 29/106/16 30/107/3 35/108/3
f 31/109/17 36/110/17 35/108/3 30/107/3
f 32/111/18 37/112/18 36/110/17 31/109/17
f 34/106/16 38/105/19 33/113/19 29/114/16
f 58/115/20 137/116/20 138/117/21 49/118/21
f 57/119/22 139/120/22 137/116/20 58/115/20
f 56/121/23 140/122/23 139/120/22 57/119/22
f 55/123/24 141/124/24 140/125/23 56/126/23
f 54/127/25 142/128/25 141/124/24 55/123/24
f 53/129/26 143/130/26 142/128/25 54/127/25
f 52/131/27 144/132/27 143/130/26 53/129/26
f 51/133/28 145/134/28 144/132/27 52/131/27
f 50/135/29 146/136/29 145/134/28 51/133/28
f 49/118/21 138/117/21 146/136/29 50/135/29
f 39/137/2 148/138/2 147/139/30 48/140/30
f 48/140/30 147/139/30 149/141/31 47/142/31
f 47/142/31 149/141/31 150/143/32 46/144/32
f 46/145/32 150/146/32 151/147/33 45/148/33
f 45/148/33 151/147/33 152/149/1 44/150/1
f 44/150/1 152/149/1 153/151/34 43/152/34
f 43/152/34 153/151/34 154/153/35 42/154/35
f 42/154/35 154/153/35 155/155/36 41/156/36
f 41/156/36 155/155/36 156/157/37 40/158/37
f 148/138/2 39/137/2 40/158/37 156/157/37
f 78/138/38 77/157/39 79/159/40 80/160/41
f 77/157/39 76/155/42 81/161/43 79/159/40
f 76/155/42 75/153/44 82/162/45 81/161/43
f 75/153/44 74/151/46 83/163/47 82/162/45
f 74/151/46 73/149/48 84/164/49 83/163/47
f 73/149/48 72/147/50 85/165/51 84/164/49
f 72/147/50 71/146/52 86/166/53 85/165/51
f 71/143/52 70/141/54 87/167/55 86/168/53
f 70/141/54 69/139/56 88/169/57 87/167/55
f 69/139/56 78/138/38 80/160/41 88/169/57
f 67/136/50 68/117/48 80/170/41 79/171/40
f 66/134/52 67/136/50 79/171/40 81/172/43
f 65/132/54 66/134/52 81/172/43 82/173/45
f 64/130/56 65/132/54 82/173/45 83/174/47
f 63/128/38 64/130/56 83/174/47 84/175/49
f 62/124/39 63/128/38 84/175/49 85/176/51
f 61/125/42 62/124/39 85/176/51 86/177/53
f 60/120/44 61/122/42 86/178/53 87/179/55
f 59/116/46 60/120/44 87/179/55 88/180/57
f 68/117/48 59/116/46 88/180/57 80/170/41
