# File exported by Houdini 15.0.393 (www.sidefx.com)
# 58 points
# 198 vertices
# 55 primitives
# Bounds: [440.413696, -0.315236509, 221.309311] to [478.107941, 46.629364, 258.049744]
g 
v 459.624268 24.9279137 240.698517
v 457.939362 19.3807144 241.14447
v 462.974426 18.9261131 238.250229
v 466.641083 21.7360649 236.142578
v 459.172699 24.9279137 239.913025
v 463.952728 28.2451134 238.210403
v 461.635254 31.9963646 239.542526
v 457.524078 28.8457127 241.905746
v 468.466522 27.4483128 235.093292
v 457.072571 28.8457127 241.120193
v 461.183746 31.9963646 238.757019
v 463.501221 28.2451134 237.424911
v 459.945984 33.7091141 239.222717
v 474.256927 46.629364 229.899933
v 476.448486 42.8247643 228.640213
v 461.128723 31.6558647 238.542877
v 453.257599 29.607214 242.360657
v 454.760345 26.9984646 241.496872
v 460.613129 33.7091141 240.383362
v 454.490814 29.607214 244.506027
v 455.993561 26.9984646 243.642197
v 461.795868 31.6558647 239.703506
v 475.827087 46.629364 232.631531
v 478.018677 42.8247643 231.37175
v 457.177612 20.5642643 225.791931
v 456.668701 8.82181358 226.742325
v 457.240112 20.5642643 239.513504
v 455.643005 20.5642643 225.914993
v 447.914337 20.5642643 229.528564
v 448.555908 8.82181358 230.202957
v 456.425598 -0.315236509 221.309311
v 450.902924 -0.315236509 224.676941
v 471.103394 20.5642643 238.893219
v 465.969574 20.5642643 228.720734
v 443.709442 20.5642643 240.118896
v 443.911682 -0.315236509 235.399994
v 440.413696 -0.315236509 240.266357
v 444.635284 8.82181358 240.077484
v 443.210022 -0.315236509 224.756424
v 474.33725 -0.315236509 233.026367
v 471.103363 -0.315236509 225.921112
v 465.390778 8.82181358 229.449722
v 470.177612 8.82181358 238.934647
v 478.107941 -0.315236509 238.579819
v 467.015198 20.5642643 249.478333
v 457.840851 20.5642643 253.210983
v 462.822662 -0.315236509 224.421234
v 465.512085 -0.315236509 253.697739
v 473.068512 -0.315236509 251.889221
v 466.365723 8.82181358 248.804291
v 458.069489 -0.315236509 258.049744
v 457.811523 8.82181358 252.284668
v 448.726624 20.5642643 250.296616
v 451.889252 -0.315236509 254.061859
v 449.313385 8.82181358 249.567261
v 444.021515 -0.315236509 254.688721
v 443.884583 -0.315236509 246.173218
v 474.137817 -0.315236509 246.205505
vt 0.790040016 0.46528399 0
vt 0.824135005 0.491739005 0
vt 0.790932 0.519429982 0
vt 0.790040016 0.46528399 0
vt 0.790932 0.519429982 0
vt 0.753265977 0.520639002 0
vt 0.745526016 0.466838986 0
vt 0.791324019 0.519625008 0
vt 0.753549993 0.520465016 0
vt 0.745526016 0.466838986 0
vt 0.753549993 0.520465016 0
vt 0.715903997 0.495231003 0
vt 0.790040016 0.46528399 0
vt 0.745576024 0.466711998 0
vt 0.745595992 0.432525009 0
vt 0.787828028 0.431169987 0
vt 0.745576024 0.466711998 0
vt 0.790040016 0.46528399 0
vt 0.753265977 0.520639002 0
vt 0.715903997 0.495231003 0
vt 0.745347977 0.43246001 0
vt 0.787696004 0.431674004 0
vt 0.790040016 0.46528399 0
vt 0.745526016 0.466838986 0
vt 0.745526016 0.466838986 0
vt 0.790040016 0.46528399 0
vt 0.824018002 0.491654009 0
vt 0.791324019 0.519625008 0
vt 0.790040016 0.46528399 0
vt 0.787696004 0.431674004 0
vt 0.795681 0.430523992 0
vt 0.797022998 0.461367011 0
vt 0.824018002 0.491654009 0
vt 0.790040016 0.46528399 0
vt 0.797022998 0.461367011 0
vt 0.738317013 0.465456992 0
vt 0.735884011 0.43147701 0
vt 0.745347977 0.43246001 0
vt 0.745526016 0.466838986 0
vt 0.715903997 0.495231003 0
vt 0.738317013 0.465456992 0
vt 0.745526016 0.466838986 0
vt 0.757641017 0.638529003 0
vt 0.754770994 0.769208014 0
vt 0.728278995 0.767917991 0
vt 0.73803401 0.640196979 0
vt 0.749271989 0.560467005 0
vt 0.757641017 0.638529003 0
vt 0.73803401 0.640196979 0
vt 0.723042011 0.566183984 0
vt 0.771981001 0.638080001 0
vt 0.771082997 0.558695972 0
vt 0.798197985 0.560186982 0
vt 0.791796029 0.639081001 0
vt 0.772983015 0.768486023 0
vt 0.771981001 0.638080001 0
vt 0.791796029 0.639081001 0
vt 0.799077988 0.766920984 0
vt 0.757641017 0.638529003 0
vt 0.749271989 0.560467005 0
vt 0.771082997 0.558695972 0
vt 0.771981001 0.638080001 0
vt 0.754770994 0.769208014 0
vt 0.757641017 0.638529003 0
vt 0.771981001 0.638080001 0
vt 0.772983015 0.768486023 0
vt 0.805819988 0.639725983 0
vt 0.817736983 0.765994012 0
vt 0.799077988 0.766920984 0
vt 0.791796029 0.639081001 0
vt 0.821000993 0.562995017 0
vt 0.805819988 0.639725983 0
vt 0.791796029 0.639081001 0
vt 0.798197985 0.560186982 0
vt 0.798197985 0.560186982 0
vt 0.771082997 0.558695972 0
vt 0.772261024 0.53727299 0
vt 0.799376011 0.538764 0
vt 0.800158024 0.784919977 0
vt 0.774062991 0.786485016 0
vt 0.772983015 0.768486023 0
vt 0.799077988 0.766920984 0
vt 0.711075008 0.780902028 0
vt 0.721984029 0.780056 0
vt 0.72280997 0.88478899 0
vt 0.735108018 0.781171978 0
vt 0.72280997 0.88478899 0
vt 0.721984029 0.780056 0
vt 0.735108018 0.781171978 0
vt 0.803417027 0.815611005 0
vt 0.72280997 0.88478899 0
vt 0.993341982 0.472941011 0
vt 0.992380023 0.523523986 0
vt 0.911720991 0.534501016 0
vt 0.90693599 0.46954 0
vt 0.90693599 0.46954 0
vt 0.911720991 0.534501016 0
vt 0.839640021 0.529769003 0
vt 0.839749992 0.502887011 0
vt 0.624028027 0.888489008 0
vt 0.643917978 0.816990972 0
vt 0.711075008 0.780902028 0
vt 0.72280997 0.88478899 0
vt 0.72280997 0.88478899 0
vt 0.803417027 0.815611005 0
vt 0.827378988 0.881711006 0
vt 0.850621998 0.420590997 0
vt 0.854170978 0.385152012 0
vt 0.91010201 0.406383991 0
vt 0.90693599 0.46954 0
vt 0.823943973 0.462597013 0
vt 0.850621998 0.420590997 0
vt 0.90693599 0.46954 0
vt 0.90693599 0.46954 0
vt 0.91010201 0.406383991 0
vt 0.991913974 0.407303005 0
vt 0.993341982 0.472941011 0
vt 0.835762024 0.640465021 0
vt 0.833517015 0.59523499 0
vt 0.907595992 0.593972027 0
vt 0.907993019 0.671721995 0
vt 0.826743007 0.677304983 0
vt 0.835762024 0.640465021 0
vt 0.907993019 0.671721995 0
vt 0.907993019 0.671721995 0
vt 0.907595992 0.593972027 0
vt 0.986150026 0.597153008 0
vt 0.986109018 0.665489972 0
vt 0.645660996 0.960267007 0
vt 0.624028027 0.888489008 0
vt 0.72280997 0.88478899 0
vt 0.723527014 0.993727982 0
vt 0.645660996 0.960267007 0
vt 0.72280997 0.88478899 0
vt 0.989655018 0.542433977 0
vt 0.986150026 0.597153008 0
vt 0.907595992 0.593972027 0
vt 0.911720991 0.534501016 0
vt 0.833517015 0.59523499 0
vt 0.848038018 0.552528977 0
vt 0.911720991 0.534501016 0
vt 0.907595992 0.593972027 0
vt 0.911720991 0.534501016 0
vt 0.848038018 0.552528977 0
vt 0.839640021 0.529769003 0
vt 0.843047976 0.798107028 0
vt 0.829451025 0.75642401 0
vt 0.905314982 0.768958986 0
vt 0.838374972 0.840165019 0
vt 0.843047976 0.798107028 0
vt 0.905314982 0.768958986 0
vt 0.91197598 0.843432009 0
vt 0.91197598 0.843432009 0
vt 0.905314982 0.768958986 0
vt 0.987765014 0.767948985 0
vt 0.990177989 0.847054005 0
vt 0.803677022 0.954505026 0
vt 0.723527014 0.993727982 0
vt 0.72280997 0.88478899 0
vt 0.803677022 0.954505026 0
vt 0.72280997 0.88478899 0
vt 0.827378988 0.881711006 0
vt 0.90693599 0.46954 0
vt 0.839749992 0.502887011 0
vt 0.823943973 0.462597013 0
vt 0.847645998 0.882111013 0
vt 0.838374972 0.840165019 0
vt 0.91197598 0.843432009 0
vt 0.911392987 0.909475982 0
vt 0.835904002 0.926271975 0
vt 0.847645998 0.882111013 0
vt 0.911392987 0.909475982 0
vt 0.911392987 0.909475982 0
vt 0.91197598 0.843432009 0
vt 0.990177989 0.847054005 0
vt 0.991319001 0.904163003 0
vt 0.847078979 0.967275023 0
vt 0.835904002 0.926271975 0
vt 0.911392987 0.909475982 0
vt 0.849241018 1.00229001 0
vt 0.847078979 0.967275023 0
vt 0.911392987 0.909475982 0
vt 0.91385299 0.996445 0
vt 0.91385299 0.996445 0
vt 0.911392987 0.909475982 0
vt 0.991319001 0.904163003 0
vt 0.993804991 0.995117009 0
vt 0.842639029 0.722594023 0
vt 0.826743007 0.677304983 0
vt 0.907993019 0.671721995 0
vt 0.829451025 0.75642401 0
vt 0.842639029 0.722594023 0
vt 0.907993019 0.671721995 0
vt 0.905314982 0.768958986 0
vt 0.905314982 0.768958986 0
vt 0.907993019 0.671721995 0
vt 0.986109018 0.665489972 0
vt 0.987765014 0.767948985 0
vn 0.491357863 -0.0794999897 0.867304027
vn 0.491357863 -0.0794999897 0.867304027
vn 0.491357863 -0.0794999897 0.867304027
vn 0.527139068 -0.051699996 0.848185658
vn 0.527139068 -0.051699996 0.848185658
vn 0.527139068 -0.051699996 0.848185658
vn -0.467608064 -0.0516999923 -0.882380664
vn -0.467608064 -0.0516999923 -0.882380664
vn -0.467608064 -0.0516999923 -0.882380664
vn -0.502191961 -0.0794999897 -0.861113548
vn -0.502191961 -0.0794999897 -0.861113548
vn -0.502191961 -0.0794999897 -0.861113548
vn 0.498350918 0 0.866991222
vn 0.498350918 0 0.866991222
vn 0.498350918 0 0.866991222
vn 0.498350918 0 0.866991222
vn 0.543420076 -0.0419000015 0.838448167
vn 0.543420076 -0.0419000015 0.838448167
vn 0.543420076 -0.0419000015 0.838448167
vn 0.543420076 -0.0419000015 0.838448167
vn -0.498350918 0 -0.866991222
vn -0.498350918 0 -0.866991222
vn -0.498350918 0 -0.866991222
vn -0.498350918 0 -0.866991222
vn -0.451000512 -0.0419000015 -0.891532242
vn -0.451000512 -0.0419000015 -0.891532242
vn -0.451000512 -0.0419000015 -0.891532242
vn -0.451000512 -0.0419000015 -0.891532242
vn 0.706064284 0.580299973 -0.405865312
vn 0.706064284 0.580299973 -0.405865312
vn 0.706064284 0.580299973 -0.405865312
vn 0.706064284 0.580299973 -0.405865312
vn 0.125012949 0.989500046 -0.0718596578
vn 0.125012949 0.989500046 -0.0718596578
vn 0.125012949 0.989500046 -0.0718596578
vn -0.73739022 -0.525900006 0.423883498
vn -0.73739022 -0.525900006 0.423883498
vn -0.73739022 -0.525900006 0.423883498
vn -0.73739022 -0.525900006 0.423883498
vn -0.829610109 0.290300012 0.476958603
vn -0.829610109 0.290300012 0.476958603
vn -0.829610109 0.290300012 0.476958603
vn -0.679803133 0.595700026 -0.427841812
vn -0.181127787 0.798699915 -0.573777437
vn 0.389217764 -0.180500031 -0.90320009
vn -0.00631921925 -0.59829998 -0.801218331
vn -0.971396923 0.199699968 -0.128108531
vn -0.679803133 0.595700026 -0.427841812
vn -0.00631921925 -0.59829998 -0.801218331
vn -0.426101416 -0.786599934 -0.446900725
vn 0.0275992714 0.592899919 0.804770589
vn -0.382042766 0.198699981 0.902478516
vn 0.16830124 -0.788600087 0.591368377
vn 0.687583923 -0.598099947 0.411577672
vn 0.404639482 0.799499989 0.443756908
vn 0.0275992714 0.592899919 0.804770589
vn 0.687583923 -0.598099947 0.411577672
vn 0.97669065 -0.180099979 0.116660491
vn -0.679803133 0.595700026 -0.427841812
vn -0.971396923 0.199699968 -0.128108531
vn -0.382042766 0.198699981 0.902478516
vn 0.0275992714 0.592899919 0.804770589
vn -0.181127787 0.798699915 -0.573777437
vn -0.679803133 0.595700026 -0.427841812
vn 0.0275992714 0.592899919 0.804770589
vn 0.404639482 0.799499989 0.443756908
vn -0.00631921925 -0.59829998 -0.801218331
vn 0.389217764 -0.180500031 -0.90320009
vn 0.97669065 -0.180099979 0.116660491
vn 0.687583923 -0.598099947 0.411577672
vn -0.426101416 -0.786599934 -0.446900725
vn -0.00631921925 -0.59829998 -0.801218331
vn 0.687583923 -0.598099947 0.411577672
vn 0.16830124 -0.788600087 0.591368377
vn 0.16830124 -0.788600087 0.591368377
vn -0.382042766 0.198699981 0.902478516
vn -0.971396923 0.199699968 -0.128108531
vn -0.426101416 -0.786599934 -0.446900725
vn 0.389217764 -0.180500031 -0.90320009
vn -0.181127787 0.798699915 -0.573777437
vn 0.404639482 0.799499989 0.443756908
vn 0.97669065 -0.180099979 0.116660491
vn -0.466133654 0.547299922 -0.695059419
vn -0.0606784895 0.229499996 -0.971358657
vn -0.000794284279 0.999899983 -0.0132777672
vn 0.370265782 0.554799914 -0.745094836
vn -0.000794284279 0.999899983 -0.0132777672
vn -0.0606784895 0.229499996 -0.971358657
vn 0.370265782 0.554799914 -0.745094836
vn -0.576420426 0.601100087 -0.553588569
vn -0.000794284279 0.999899983 -0.0132777672
vn -0.576420426 0.601100087 -0.553588569
vn 0.370265782 0.554799914 -0.745094836
vn -0.0606784895 0.229499996 -0.971358657
vn -0.717013299 0.224499986 -0.65991044
vn -0.717013299 0.224499986 -0.65991044
vn -0.0606784895 0.229499996 -0.971358657
vn -0.00797640346 0.489800006 -0.871814787
vn -0.250692427 0.477400035 -0.842136323
vn 0.801732361 0.596300066 -0.0395753756
vn 0.519710004 0.599399924 -0.608738422
vn -0.466133654 0.547299922 -0.695059419
vn -0.000794284279 0.999899983 -0.0132777672
vn -0.000794284279 0.999899983 -0.0132777672
vn -0.576420426 0.601100087 -0.553588569
vn -0.802063048 0.596300006 0.0321827717
vn -0.890236139 0.363700002 -0.273982048
vn -0.932657063 0.360300004 0.015102989
vn -0.98823595 0.151500002 0.0212934427
vn -0.717013299 0.224499986 -0.65991044
vn -0.557926416 0.640799999 -0.527288795
vn -0.890236139 0.363700002 -0.273982048
vn -0.717013299 0.224499986 -0.65991044
vn -0.717013299 0.224499986 -0.65991044
vn -0.98823595 0.151500002 0.0212934427
vn -0.802063048 0.596300006 0.0321827717
vn -0.576420426 0.601100087 -0.553588569
vn 0.706315875 0.586899936 -0.395766437
vn 0.553077042 0.552399993 -0.62364471
vn 0.593384564 0.256199956 -0.763085723
vn 0.943754673 0.326299965 -0.053437341
vn 0.753665686 0.655799925 -0.0422295444
vn 0.706315875 0.586899936 -0.395766437
vn 0.943754673 0.326299965 -0.053437341
vn 0.943754673 0.326299965 -0.053437341
vn 0.593384564 0.256199956 -0.763085723
vn 0.519710004 0.599399924 -0.608738422
vn 0.801732361 0.596300066 -0.0395753756
vn 0.571596563 0.597699881 0.56211257
vn 0.801732361 0.596300066 -0.0395753756
vn -0.000794284279 0.999899983 -0.0132777672
vn 0.0304907858 0.60800004 0.793330073
vn 0.571596563 0.597699881 0.56211257
vn -0.000794284279 0.999899983 -0.0132777672
vn -0.466133654 0.547299922 -0.695059419
vn 0.519710004 0.599399924 -0.608738422
vn 0.593384564 0.256199956 -0.763085723
vn -0.0606784895 0.229499996 -0.971358657
vn 0.553077042 0.552399993 -0.62364471
vn 0.27931428 0.439200044 -0.853838265
vn -0.0606784895 0.229499996 -0.971358657
vn 0.593384564 0.256199956 -0.763085723
vn -0.0606784895 0.229499996 -0.971358657
vn 0.27931428 0.439200044 -0.853838265
vn -0.00797640346 0.489800006 -0.871814787
vn 0.315681309 0.452999979 0.833722949
vn 0.586648643 0.582199931 0.562940598
vn 0.670798838 0.272599965 0.689705908
vn 0.0169177931 0.467599928 0.883727014
vn 0.315681309 0.452999979 0.833722949
vn 0.670798838 0.272599965 0.689705908
vn 0.0224867202 0.212700009 0.976871192
vn 0.0224867202 0.212700009 0.976871192
vn 0.670798838 0.272599965 0.689705908
vn 0.571596563 0.597699881 0.56211257
vn 0.0304907858 0.60800004 0.793330073
vn -0.522383392 0.598700047 0.607156336
vn 0.0304907858 0.60800004 0.793330073
vn -0.000794284279 0.999899983 -0.0132777672
vn -0.522383392 0.598700047 0.607156336
vn -0.000794284279 0.999899983 -0.0132777672
vn -0.802063048 0.596300006 0.0321827717
vn -0.717013299 0.224499986 -0.65991044
vn -0.250692427 0.477400035 -0.842136323
vn -0.557926416 0.640799999 -0.527288795
vn -0.203771248 0.438199997 0.875483155
vn 0.0169177931 0.467599928 0.883727014
vn 0.0224867202 0.212700009 0.976871192
vn -0.647526264 0.226400003 0.727570295
vn -0.531374633 0.626999974 0.569520593
vn -0.203771248 0.438199997 0.875483155
vn -0.647526264 0.226400003 0.727570295
vn -0.647526264 0.226400003 0.727570295
vn 0.0224867202 0.212700009 0.976871192
vn 0.0304907858 0.60800004 0.793330073
vn -0.522383392 0.598700047 0.607156336
vn -0.859293342 0.424399972 0.285594106
vn -0.531374633 0.626999974 0.569520593
vn -0.647526264 0.226400003 0.727570295
vn -0.932657063 0.360300004 0.015102989
vn -0.859293342 0.424399972 0.285594106
vn -0.647526264 0.226400003 0.727570295
vn -0.98823595 0.151500002 0.0212934427
vn -0.98823595 0.151500002 0.0212934427
vn -0.647526264 0.226400003 0.727570295
vn -0.522383392 0.598700047 0.607156336
vn -0.802063048 0.596300006 0.0321827717
vn 0.751046836 0.593900025 0.288518071
vn 0.753665686 0.655799925 -0.0422295444
vn 0.943754673 0.326299965 -0.053437341
vn 0.586648643 0.582199931 0.562940598
vn 0.751046836 0.593900025 0.288518071
vn 0.943754673 0.326299965 -0.053437341
vn 0.670798838 0.272599965 0.689705908
vn 0.670798838 0.272599965 0.689705908
vn 0.943754673 0.326299965 -0.053437341
vn 0.801732361 0.596300066 -0.0395753756
vn 0.571596563 0.597699881 0.56211257
g 
f 1/1/1 2/2/2 3/3/3
f 1/4/4 3/5/5 4/6/6
f 5/7/7 4/8/8 3/9/9
f 5/10/10 3/11/11 2/12/12
f 1/13/13 6/14/14 7/15/15 8/16/16
f 6/17/17 1/18/18 4/19/19 9/20/20
f 10/21/21 11/22/22 12/23/23 5/24/24
f 5/25/25 12/26/26 9/27/27 4/28/28
f 12/29/29 11/30/30 7/31/31 6/32/32
f 9/33/33 12/34/34 6/35/35
f 1/36/36 8/37/37 10/38/38 5/39/39
f 2/40/40 1/41/41 5/42/42
f 13/43/43 14/44/44 15/45/45 16/46/46
f 17/47/47 13/48/48 16/49/49 18/50/50
f 19/51/51 20/52/52 21/53/53 22/54/54
f 23/55/55 19/56/56 22/57/57 24/58/58
f 13/59/59 17/60/60 20/61/61 19/62/62
f 14/63/63 13/64/64 19/65/65 23/66/66
f 16/67/67 15/68/68 24/69/69 22/70/70
f 18/71/71 16/72/72 22/73/73 21/74/74
f 21/75/75 20/76/76 17/77/77 18/78/78
f 15/79/79 14/80/80 23/81/81 24/82/82
f 25/83/83 26/84/84 27/85/85
f 28/86/86 27/87/87 26/88/88
f 28/89/89 29/90/90 27/91/91
f 29/92/92 28/93/93 26/94/94 30/95/95
f 30/96/96 26/97/97 31/98/98 32/99/99
f 33/100/100 34/101/101 25/102/102 27/103/103
f 27/104/104 29/105/105 35/106/106
f 36/107/107 37/108/108 38/109/109 30/110/110
f 39/111/111 36/112/112 30/113/113
f 30/114/114 38/115/115 35/116/116 29/117/117
f 40/118/118 41/119/119 42/120/120 43/121/121
f 44/122/122 40/123/123 43/124/124
f 43/125/125 42/126/126 34/127/127 33/128/128
f 45/129/129 33/130/130 27/131/131
f 46/132/132 45/133/133 27/134/134
f 25/135/135 34/136/136 42/137/137 26/138/138
f 41/139/139 47/140/140 26/141/141 42/142/142
f 26/143/143 47/144/144 31/145/145
f 48/146/146 49/147/147 50/148/148
f 51/149/149 48/150/150 50/151/151 52/152/152
f 52/153/153 50/154/154 45/155/155 46/156/156
f 53/157/157 46/158/158 27/159/159
f 53/160/160 27/161/161 35/162/162
f 30/163/163 32/164/164 39/165/165
f 54/166/166 51/167/167 52/168/168 55/169/169
f 56/170/170 54/171/171 55/172/172
f 55/173/173 52/174/174 46/175/175 53/176/176
f 57/177/177 56/178/178 55/179/179
f 37/180/180 57/181/181 55/182/182 38/183/183
f 38/184/184 55/185/185 53/186/186 35/187/187
f 58/188/188 44/189/189 43/190/190
f 49/191/191 58/192/192 43/193/193 50/194/194
f 50/195/195 43/196/196 33/197/197 45/198/198
